<?xml version="1.0" encoding="UTF-8" standalone="no"?>
<!DOCTYPE svg PUBLIC "-//W3C//DTD SVG 1.1//EN"
 "http://www.w3.org/Graphics/SVG/1.1/DTD/svg11.dtd">
<!-- Generated by graphviz version 12.0.0 (20240704.0754)
 -->
<!-- Title: newbius Pages: 1 -->
<svg width="1685pt" height="473pt"
 viewBox="0.00 0.00 1685.00 473.00" xmlns="http://www.w3.org/2000/svg" xmlns:xlink="http://www.w3.org/1999/xlink">
<g id="graph0" class="graph" transform="scale(1 1) rotate(0) translate(4 469)">
<title>newbius</title>
<polygon fill="white" stroke="none" points="-4,4 -4,-469 1681,-469 1681,4 -4,4"/>
<g id="clust1" class="cluster">
<title>cluster_module.root</title>
<polygon fill="none" stroke="black" points="8,-8 8,-457 1669,-457 1669,-8 8,-8"/>
<text text-anchor="middle" x="838.5" y="-439.7" font-family="Times,serif" font-size="14.00">module.root</text>
</g>
<g id="clust2" class="cluster">
<title>cluster_module.root.module.filestore</title>
<polygon fill="none" stroke="black" points="16,-16 16,-164.5 936,-164.5 936,-16 16,-16"/>
<text text-anchor="middle" x="476" y="-147.2" font-family="Times,serif" font-size="14.00">module.filestore</text>
</g>
<!-- module.root.helm_release.gpu&#45;operator -->
<g id="node1" class="node">
<title>module.root.helm_release.gpu&#45;operator</title>
<path fill="none" stroke="black" d="M1314.75,-352.5C1314.75,-352.5 1177.25,-352.5 1177.25,-352.5 1171.25,-352.5 1165.25,-346.5 1165.25,-340.5 1165.25,-340.5 1165.25,-328.5 1165.25,-328.5 1165.25,-322.5 1171.25,-316.5 1177.25,-316.5 1177.25,-316.5 1314.75,-316.5 1314.75,-316.5 1320.75,-316.5 1326.75,-322.5 1326.75,-328.5 1326.75,-328.5 1326.75,-340.5 1326.75,-340.5 1326.75,-346.5 1320.75,-352.5 1314.75,-352.5"/>
<text text-anchor="middle" x="1246" y="-329.45" font-family="Times,serif" font-size="14.00">helm_release.gpu&#45;operator</text>
</g>
<!-- module.root.helm_release.network_operator -->
<g id="node2" class="node">
<title>module.root.helm_release.network_operator</title>
<path fill="none" stroke="black" d="M1376.88,-280.5C1376.88,-280.5 1213.12,-280.5 1213.12,-280.5 1207.12,-280.5 1201.12,-274.5 1201.12,-268.5 1201.12,-268.5 1201.12,-256.5 1201.12,-256.5 1201.12,-250.5 1207.12,-244.5 1213.12,-244.5 1213.12,-244.5 1376.88,-244.5 1376.88,-244.5 1382.88,-244.5 1388.88,-250.5 1388.88,-256.5 1388.88,-256.5 1388.88,-268.5 1388.88,-268.5 1388.88,-274.5 1382.88,-280.5 1376.88,-280.5"/>
<text text-anchor="middle" x="1295" y="-257.45" font-family="Times,serif" font-size="14.00">helm_release.network_operator</text>
</g>
<!-- module.root.helm_release.gpu&#45;operator&#45;&gt;module.root.helm_release.network_operator -->
<g id="edge1" class="edge">
<title>module.root.helm_release.gpu&#45;operator&#45;&gt;module.root.helm_release.network_operator</title>
<path fill="none" stroke="black" d="M1258.11,-316.2C1263.69,-308.23 1270.43,-298.6 1276.62,-289.76"/>
<polygon fill="black" stroke="black" points="1279.29,-292.04 1282.16,-281.84 1273.56,-288.03 1279.29,-292.04"/>
</g>
<!-- module.root.nebius_mk8s_v1alpha1_node_group.cpu -->
<g id="node3" class="node">
<title>module.root.nebius_mk8s_v1alpha1_node_group.cpu</title>
<path fill="none" stroke="black" d="M918.38,-208.5C918.38,-208.5 703.62,-208.5 703.62,-208.5 697.62,-208.5 691.62,-202.5 691.62,-196.5 691.62,-196.5 691.62,-184.5 691.62,-184.5 691.62,-178.5 697.62,-172.5 703.62,-172.5 703.62,-172.5 918.38,-172.5 918.38,-172.5 924.38,-172.5 930.38,-178.5 930.38,-184.5 930.38,-184.5 930.38,-196.5 930.38,-196.5 930.38,-202.5 924.38,-208.5 918.38,-208.5"/>
<text text-anchor="middle" x="811" y="-185.45" font-family="Times,serif" font-size="14.00">nebius_mk8s_v1alpha1_node_group.cpu</text>
</g>
<!-- module.root.helm_release.network_operator&#45;&gt;module.root.nebius_mk8s_v1alpha1_node_group.cpu -->
<g id="edge2" class="edge">
<title>module.root.helm_release.network_operator&#45;&gt;module.root.nebius_mk8s_v1alpha1_node_group.cpu</title>
<path fill="none" stroke="black" d="M1200.81,-245.71C1198.18,-245.3 1195.57,-244.89 1193,-244.5 1145.82,-237.3 1032.74,-221.68 941.77,-209.26"/>
<polygon fill="black" stroke="black" points="942.39,-205.81 932.01,-207.92 941.44,-212.74 942.39,-205.81"/>
</g>
<!-- module.root.nebius_mk8s_v1alpha1_node_group.gpu -->
<g id="node4" class="node">
<title>module.root.nebius_mk8s_v1alpha1_node_group.gpu</title>
<path fill="none" stroke="black" d="M1175.75,-208.5C1175.75,-208.5 960.25,-208.5 960.25,-208.5 954.25,-208.5 948.25,-202.5 948.25,-196.5 948.25,-196.5 948.25,-184.5 948.25,-184.5 948.25,-178.5 954.25,-172.5 960.25,-172.5 960.25,-172.5 1175.75,-172.5 1175.75,-172.5 1181.75,-172.5 1187.75,-178.5 1187.75,-184.5 1187.75,-184.5 1187.75,-196.5 1187.75,-196.5 1187.75,-202.5 1181.75,-208.5 1175.75,-208.5"/>
<text text-anchor="middle" x="1068" y="-185.45" font-family="Times,serif" font-size="14.00">nebius_mk8s_v1alpha1_node_group.gpu</text>
</g>
<!-- module.root.helm_release.network_operator&#45;&gt;module.root.nebius_mk8s_v1alpha1_node_group.gpu -->
<g id="edge3" class="edge">
<title>module.root.helm_release.network_operator&#45;&gt;module.root.nebius_mk8s_v1alpha1_node_group.gpu</title>
<path fill="none" stroke="black" d="M1238.3,-244.02C1207.04,-234.38 1168.02,-222.34 1135.23,-212.23"/>
<polygon fill="black" stroke="black" points="1136.4,-208.93 1125.81,-209.33 1134.34,-215.62 1136.4,-208.93"/>
</g>
<!-- module.root.nebius_mk8s_v1alpha1_node_group.nlb -->
<g id="node5" class="node">
<title>module.root.nebius_mk8s_v1alpha1_node_group.nlb</title>
<path fill="none" stroke="black" d="M1430.25,-208.5C1430.25,-208.5 1217.75,-208.5 1217.75,-208.5 1211.75,-208.5 1205.75,-202.5 1205.75,-196.5 1205.75,-196.5 1205.75,-184.5 1205.75,-184.5 1205.75,-178.5 1211.75,-172.5 1217.75,-172.5 1217.75,-172.5 1430.25,-172.5 1430.25,-172.5 1436.25,-172.5 1442.25,-178.5 1442.25,-184.5 1442.25,-184.5 1442.25,-196.5 1442.25,-196.5 1442.25,-202.5 1436.25,-208.5 1430.25,-208.5"/>
<text text-anchor="middle" x="1324" y="-185.45" font-family="Times,serif" font-size="14.00">nebius_mk8s_v1alpha1_node_group.nlb</text>
</g>
<!-- module.root.helm_release.network_operator&#45;&gt;module.root.nebius_mk8s_v1alpha1_node_group.nlb -->
<g id="edge4" class="edge">
<title>module.root.helm_release.network_operator&#45;&gt;module.root.nebius_mk8s_v1alpha1_node_group.nlb</title>
<path fill="none" stroke="black" d="M1302.17,-244.2C1305.29,-236.65 1309.04,-227.62 1312.53,-219.18"/>
<polygon fill="black" stroke="black" points="1315.74,-220.58 1316.33,-210 1309.27,-217.9 1315.74,-220.58"/>
</g>
<!-- module.root.module.filestore.output.controller_spool -->
<g id="node10" class="node">
<title>module.root.module.filestore.output.controller_spool</title>
<polygon fill="none" stroke="black" points="450.38,-132 313.62,-132 313.62,-96 456.38,-96 456.38,-126 450.38,-132"/>
<polyline fill="none" stroke="black" points="450.38,-132 450.38,-126"/>
<polyline fill="none" stroke="black" points="456.38,-126 450.38,-126"/>
<text text-anchor="middle" x="385" y="-108.95" font-family="Times,serif" font-size="14.00">output.controller_spool</text>
</g>
<!-- module.root.nebius_mk8s_v1alpha1_node_group.cpu&#45;&gt;module.root.module.filestore.output.controller_spool -->
<g id="edge21" class="edge">
<title>module.root.nebius_mk8s_v1alpha1_node_group.cpu&#45;&gt;module.root.module.filestore.output.controller_spool</title>
<path fill="none" stroke="black" stroke-dasharray="5,2" d="M711.12,-172.03C637.16,-159.1 537.56,-141.68 467.96,-129.51"/>
<polygon fill="black" stroke="black" points="468.57,-126.06 458.12,-127.79 467.37,-132.96 468.57,-126.06"/>
</g>
<!-- module.root.module.filestore.output.jail -->
<g id="node12" class="node">
<title>module.root.module.filestore.output.jail</title>
<polygon fill="none" stroke="black" points="743.75,-132 678.25,-132 678.25,-96 749.75,-96 749.75,-126 743.75,-132"/>
<polyline fill="none" stroke="black" points="743.75,-132 743.75,-126"/>
<polyline fill="none" stroke="black" points="749.75,-126 743.75,-126"/>
<text text-anchor="middle" x="714" y="-108.95" font-family="Times,serif" font-size="14.00">output.jail</text>
</g>
<!-- module.root.nebius_mk8s_v1alpha1_node_group.cpu&#45;&gt;module.root.module.filestore.output.jail -->
<g id="edge22" class="edge">
<title>module.root.nebius_mk8s_v1alpha1_node_group.cpu&#45;&gt;module.root.module.filestore.output.jail</title>
<path fill="none" stroke="black" stroke-dasharray="5,2" d="M770.62,-172.04C766.56,-169.71 762.61,-167.19 759,-164.5 749.97,-157.77 741.33,-149.04 734.08,-140.79"/>
<polygon fill="black" stroke="black" points="736.89,-138.69 727.77,-133.3 731.53,-143.2 736.89,-138.69"/>
</g>
<!-- module.root.module.filestore.output.jail_submount -->
<g id="node14" class="node">
<title>module.root.module.filestore.output.jail_submount</title>
<polygon fill="none" stroke="black" points="894.12,-132 767.88,-132 767.88,-96 900.12,-96 900.12,-126 894.12,-132"/>
<polyline fill="none" stroke="black" points="894.12,-132 894.12,-126"/>
<polyline fill="none" stroke="black" points="900.12,-126 894.12,-126"/>
<text text-anchor="middle" x="834" y="-108.95" font-family="Times,serif" font-size="14.00">output.jail_submount</text>
</g>
<!-- module.root.nebius_mk8s_v1alpha1_node_group.cpu&#45;&gt;module.root.module.filestore.output.jail_submount -->
<g id="edge23" class="edge">
<title>module.root.nebius_mk8s_v1alpha1_node_group.cpu&#45;&gt;module.root.module.filestore.output.jail_submount</title>
<path fill="none" stroke="black" stroke-dasharray="5,2" d="M816.33,-172.22C818.99,-163.63 822.26,-153.03 825.26,-143.3"/>
<polygon fill="black" stroke="black" points="828.56,-144.48 828.17,-133.89 821.87,-142.41 828.56,-144.48"/>
</g>
<!-- module.root.nebius_mk8s_v1alpha1_cluster.this -->
<g id="node18" class="node">
<title>module.root.nebius_mk8s_v1alpha1_cluster.this</title>
<path fill="none" stroke="black" d="M1413.75,-132C1413.75,-132 1228.25,-132 1228.25,-132 1222.25,-132 1216.25,-126 1216.25,-120 1216.25,-120 1216.25,-108 1216.25,-108 1216.25,-102 1222.25,-96 1228.25,-96 1228.25,-96 1413.75,-96 1413.75,-96 1419.75,-96 1425.75,-102 1425.75,-108 1425.75,-108 1425.75,-120 1425.75,-120 1425.75,-126 1419.75,-132 1413.75,-132"/>
<text text-anchor="middle" x="1321" y="-108.95" font-family="Times,serif" font-size="14.00">nebius_mk8s_v1alpha1_cluster.this</text>
</g>
<!-- module.root.nebius_mk8s_v1alpha1_node_group.cpu&#45;&gt;module.root.nebius_mk8s_v1alpha1_cluster.this -->
<g id="edge24" class="edge">
<title>module.root.nebius_mk8s_v1alpha1_node_group.cpu&#45;&gt;module.root.nebius_mk8s_v1alpha1_cluster.this</title>
<path fill="none" stroke="black" d="M930.53,-173.23C933.38,-172.97 936.21,-172.73 939,-172.5 998.39,-167.68 1148.85,-177.49 1207,-164.5 1232.04,-158.91 1258.41,-147.83 1279.48,-137.57"/>
<polygon fill="black" stroke="black" points="1280.94,-140.75 1288.32,-133.15 1277.81,-134.49 1280.94,-140.75"/>
</g>
<!-- module.root.nebius_mk8s_v1alpha1_node_group.gpu&#45;&gt;module.root.module.filestore.output.jail -->
<g id="edge25" class="edge">
<title>module.root.nebius_mk8s_v1alpha1_node_group.gpu&#45;&gt;module.root.module.filestore.output.jail</title>
<path fill="none" stroke="black" stroke-dasharray="5,2" d="M947.87,-173.32C944.89,-173.03 941.93,-172.76 939,-172.5 919.06,-170.75 777.12,-173 759,-164.5 747.96,-159.32 738.41,-150.06 730.98,-140.94"/>
<polygon fill="black" stroke="black" points="733.99,-139.13 725.19,-133.24 728.39,-143.33 733.99,-139.13"/>
</g>
<!-- module.root.nebius_mk8s_v1alpha1_node_group.gpu&#45;&gt;module.root.module.filestore.output.jail_submount -->
<g id="edge26" class="edge">
<title>module.root.nebius_mk8s_v1alpha1_node_group.gpu&#45;&gt;module.root.module.filestore.output.jail_submount</title>
<path fill="none" stroke="black" stroke-dasharray="5,2" d="M947.95,-173.1C926.47,-169.74 909.21,-166.6 904,-164.5 889.04,-158.47 874.2,-148.67 862.06,-139.38"/>
<polygon fill="black" stroke="black" points="864.54,-136.87 854.53,-133.38 860.18,-142.35 864.54,-136.87"/>
</g>
<!-- module.root.nebius_compute_v1alpha1_gpu_cluster.this -->
<g id="node16" class="node">
<title>module.root.nebius_compute_v1alpha1_gpu_cluster.this</title>
<path fill="none" stroke="black" d="M1185.88,-132C1185.88,-132 956.12,-132 956.12,-132 950.12,-132 944.12,-126 944.12,-120 944.12,-120 944.12,-108 944.12,-108 944.12,-102 950.12,-96 956.12,-96 956.12,-96 1185.88,-96 1185.88,-96 1191.88,-96 1197.88,-102 1197.88,-108 1197.88,-108 1197.88,-120 1197.88,-120 1197.88,-126 1191.88,-132 1185.88,-132"/>
<text text-anchor="middle" x="1071" y="-108.95" font-family="Times,serif" font-size="14.00">nebius_compute_v1alpha1_gpu_cluster.this</text>
</g>
<!-- module.root.nebius_mk8s_v1alpha1_node_group.gpu&#45;&gt;module.root.nebius_compute_v1alpha1_gpu_cluster.this -->
<g id="edge27" class="edge">
<title>module.root.nebius_mk8s_v1alpha1_node_group.gpu&#45;&gt;module.root.nebius_compute_v1alpha1_gpu_cluster.this</title>
<path fill="none" stroke="black" d="M1068.7,-172.22C1069.03,-163.82 1069.45,-153.49 1069.83,-143.93"/>
<polygon fill="black" stroke="black" points="1073.33,-144.09 1070.24,-133.96 1066.34,-143.81 1073.33,-144.09"/>
</g>
<!-- module.root.nebius_mk8s_v1alpha1_node_group.gpu&#45;&gt;module.root.nebius_mk8s_v1alpha1_cluster.this -->
<g id="edge28" class="edge">
<title>module.root.nebius_mk8s_v1alpha1_node_group.gpu&#45;&gt;module.root.nebius_mk8s_v1alpha1_cluster.this</title>
<path fill="none" stroke="black" d="M1178.58,-172.03C1188.26,-169.77 1197.85,-167.27 1207,-164.5 1230.57,-157.37 1255.77,-146.76 1276.48,-137.19"/>
<polygon fill="black" stroke="black" points="1277.93,-140.38 1285.49,-132.95 1274.95,-134.04 1277.93,-140.38"/>
</g>
<!-- module.root.nebius_mk8s_v1alpha1_node_group.nlb&#45;&gt;module.root.nebius_mk8s_v1alpha1_cluster.this -->
<g id="edge29" class="edge">
<title>module.root.nebius_mk8s_v1alpha1_node_group.nlb&#45;&gt;module.root.nebius_mk8s_v1alpha1_cluster.this</title>
<path fill="none" stroke="black" d="M1323.3,-172.22C1322.97,-163.82 1322.55,-153.49 1322.17,-143.93"/>
<polygon fill="black" stroke="black" points="1325.66,-143.81 1321.76,-133.96 1318.67,-144.09 1325.66,-143.81"/>
</g>
<!-- module.root.helm_release.slurm_cluster -->
<g id="node6" class="node">
<title>module.root.helm_release.slurm_cluster</title>
<path fill="none" stroke="black" d="M1291,-424.5C1291,-424.5 1149,-424.5 1149,-424.5 1143,-424.5 1137,-418.5 1137,-412.5 1137,-412.5 1137,-400.5 1137,-400.5 1137,-394.5 1143,-388.5 1149,-388.5 1149,-388.5 1291,-388.5 1291,-388.5 1297,-388.5 1303,-394.5 1303,-400.5 1303,-400.5 1303,-412.5 1303,-412.5 1303,-418.5 1297,-424.5 1291,-424.5"/>
<text text-anchor="middle" x="1220" y="-401.45" font-family="Times,serif" font-size="14.00">helm_release.slurm_cluster</text>
</g>
<!-- module.root.helm_release.slurm_cluster&#45;&gt;module.root.helm_release.gpu&#45;operator -->
<g id="edge5" class="edge">
<title>module.root.helm_release.slurm_cluster&#45;&gt;module.root.helm_release.gpu&#45;operator</title>
<path fill="none" stroke="black" d="M1226.43,-388.2C1229.23,-380.65 1232.58,-371.62 1235.72,-363.18"/>
<polygon fill="black" stroke="black" points="1238.92,-364.62 1239.12,-354.02 1232.36,-362.18 1238.92,-364.62"/>
</g>
<!-- module.root.helm_release.slurm_cluster_storage -->
<g id="node7" class="node">
<title>module.root.helm_release.slurm_cluster_storage</title>
<path fill="none" stroke="black" d="M978.88,-280.5C978.88,-280.5 791.12,-280.5 791.12,-280.5 785.12,-280.5 779.12,-274.5 779.12,-268.5 779.12,-268.5 779.12,-256.5 779.12,-256.5 779.12,-250.5 785.12,-244.5 791.12,-244.5 791.12,-244.5 978.88,-244.5 978.88,-244.5 984.88,-244.5 990.88,-250.5 990.88,-256.5 990.88,-256.5 990.88,-268.5 990.88,-268.5 990.88,-274.5 984.88,-280.5 978.88,-280.5"/>
<text text-anchor="middle" x="885" y="-257.45" font-family="Times,serif" font-size="14.00">helm_release.slurm_cluster_storage</text>
</g>
<!-- module.root.helm_release.slurm_cluster&#45;&gt;module.root.helm_release.slurm_cluster_storage -->
<g id="edge6" class="edge">
<title>module.root.helm_release.slurm_cluster&#45;&gt;module.root.helm_release.slurm_cluster_storage</title>
<path fill="none" stroke="black" d="M1178.92,-388.09C1117.81,-362.18 1003.02,-313.52 936.41,-285.29"/>
<polygon fill="black" stroke="black" points="938.12,-282.21 927.54,-281.53 935.39,-288.66 938.12,-282.21"/>
</g>
<!-- module.root.helm_release.slurm_operator -->
<g id="node8" class="node">
<title>module.root.helm_release.slurm_operator</title>
<path fill="none" stroke="black" d="M1171.5,-280.5C1171.5,-280.5 1020.5,-280.5 1020.5,-280.5 1014.5,-280.5 1008.5,-274.5 1008.5,-268.5 1008.5,-268.5 1008.5,-256.5 1008.5,-256.5 1008.5,-250.5 1014.5,-244.5 1020.5,-244.5 1020.5,-244.5 1171.5,-244.5 1171.5,-244.5 1177.5,-244.5 1183.5,-250.5 1183.5,-256.5 1183.5,-256.5 1183.5,-268.5 1183.5,-268.5 1183.5,-274.5 1177.5,-280.5 1171.5,-280.5"/>
<text text-anchor="middle" x="1096" y="-257.45" font-family="Times,serif" font-size="14.00">helm_release.slurm_operator</text>
</g>
<!-- module.root.helm_release.slurm_cluster&#45;&gt;module.root.helm_release.slurm_operator -->
<g id="edge7" class="edge">
<title>module.root.helm_release.slurm_cluster&#45;&gt;module.root.helm_release.slurm_operator</title>
<path fill="none" stroke="black" d="M1195.77,-388.1C1183.15,-378.4 1167.91,-365.65 1156,-352.5 1138.77,-333.48 1122.71,-309.16 1111.55,-290.76"/>
<polygon fill="black" stroke="black" points="1114.61,-289.06 1106.5,-282.25 1108.6,-292.63 1114.61,-289.06"/>
</g>
<!-- module.root.nebius_vpc_v1alpha1_allocation.this -->
<g id="node9" class="node">
<title>module.root.nebius_vpc_v1alpha1_allocation.this</title>
<path fill="none" stroke="black" d="M1648.5,-132C1648.5,-132 1455.5,-132 1455.5,-132 1449.5,-132 1443.5,-126 1443.5,-120 1443.5,-120 1443.5,-108 1443.5,-108 1443.5,-102 1449.5,-96 1455.5,-96 1455.5,-96 1648.5,-96 1648.5,-96 1654.5,-96 1660.5,-102 1660.5,-108 1660.5,-108 1660.5,-120 1660.5,-120 1660.5,-126 1654.5,-132 1648.5,-132"/>
<text text-anchor="middle" x="1552" y="-108.95" font-family="Times,serif" font-size="14.00">nebius_vpc_v1alpha1_allocation.this</text>
</g>
<!-- module.root.helm_release.slurm_cluster&#45;&gt;module.root.nebius_vpc_v1alpha1_allocation.this -->
<g id="edge8" class="edge">
<title>module.root.helm_release.slurm_cluster&#45;&gt;module.root.nebius_vpc_v1alpha1_allocation.this</title>
<path fill="none" stroke="black" d="M1269.52,-388.06C1291.04,-379.2 1315.88,-367.19 1336,-352.5 1421.52,-290.06 1499.07,-189.49 1533.38,-141.78"/>
<polygon fill="black" stroke="black" points="1536.21,-143.84 1539.15,-133.66 1530.5,-139.78 1536.21,-143.84"/>
</g>
<!-- module.root.helm_release.slurm_cluster_storage&#45;&gt;module.root.nebius_mk8s_v1alpha1_node_group.cpu -->
<g id="edge9" class="edge">
<title>module.root.helm_release.slurm_cluster_storage&#45;&gt;module.root.nebius_mk8s_v1alpha1_node_group.cpu</title>
<path fill="none" stroke="black" d="M866.71,-244.2C857.9,-235.87 847.18,-225.72 837.5,-216.57"/>
<polygon fill="black" stroke="black" points="840.11,-214.22 830.44,-209.89 835.3,-219.3 840.11,-214.22"/>
</g>
<!-- module.root.helm_release.slurm_cluster_storage&#45;&gt;module.root.nebius_mk8s_v1alpha1_node_group.gpu -->
<g id="edge10" class="edge">
<title>module.root.helm_release.slurm_cluster_storage&#45;&gt;module.root.nebius_mk8s_v1alpha1_node_group.gpu</title>
<path fill="none" stroke="black" d="M930.71,-244.02C955.36,-234.58 986,-222.87 1012.07,-212.89"/>
<polygon fill="black" stroke="black" points="1013.06,-216.26 1021.15,-209.42 1010.56,-209.73 1013.06,-216.26"/>
</g>
<!-- module.root.helm_release.slurm_cluster_storage&#45;&gt;module.root.nebius_mk8s_v1alpha1_node_group.nlb -->
<g id="edge11" class="edge">
<title>module.root.helm_release.slurm_cluster_storage&#45;&gt;module.root.nebius_mk8s_v1alpha1_node_group.nlb</title>
<path fill="none" stroke="black" d="M991.27,-244.55C1055.2,-234.36 1136.77,-221.35 1203.15,-210.77"/>
<polygon fill="black" stroke="black" points="1203.69,-214.23 1213.01,-209.2 1202.59,-207.32 1203.69,-214.23"/>
</g>
<!-- module.root.helm_release.slurm_operator&#45;&gt;module.root.nebius_mk8s_v1alpha1_node_group.cpu -->
<g id="edge12" class="edge">
<title>module.root.helm_release.slurm_operator&#45;&gt;module.root.nebius_mk8s_v1alpha1_node_group.cpu</title>
<path fill="none" stroke="black" d="M1024.82,-244.02C984.71,-234.17 934.45,-221.82 892.73,-211.57"/>
<polygon fill="black" stroke="black" points="893.78,-208.23 883.24,-209.24 892.11,-215.03 893.78,-208.23"/>
</g>
<!-- module.root.helm_release.slurm_operator&#45;&gt;module.root.nebius_mk8s_v1alpha1_node_group.gpu -->
<g id="edge13" class="edge">
<title>module.root.helm_release.slurm_operator&#45;&gt;module.root.nebius_mk8s_v1alpha1_node_group.gpu</title>
<path fill="none" stroke="black" d="M1089.08,-244.2C1086.06,-236.65 1082.45,-227.62 1079.07,-219.18"/>
<polygon fill="black" stroke="black" points="1082.37,-217.99 1075.4,-210.01 1075.87,-220.59 1082.37,-217.99"/>
</g>
<!-- module.root.helm_release.slurm_operator&#45;&gt;module.root.nebius_mk8s_v1alpha1_node_group.nlb -->
<g id="edge14" class="edge">
<title>module.root.helm_release.slurm_operator&#45;&gt;module.root.nebius_mk8s_v1alpha1_node_group.nlb</title>
<path fill="none" stroke="black" d="M1152.95,-244.02C1184.35,-234.38 1223.53,-222.34 1256.47,-212.23"/>
<polygon fill="black" stroke="black" points="1257.41,-215.61 1265.94,-209.33 1255.35,-208.92 1257.41,-215.61"/>
</g>
<!-- module.root.data.nebius_iam_v1_project.this -->
<g id="node17" class="node">
<title>module.root.data.nebius_iam_v1_project.this</title>
<path fill="none" stroke="black" d="M1405.5,-60C1405.5,-60 1236.5,-60 1236.5,-60 1230.5,-60 1224.5,-54 1224.5,-48 1224.5,-48 1224.5,-36 1224.5,-36 1224.5,-30 1230.5,-24 1236.5,-24 1236.5,-24 1405.5,-24 1405.5,-24 1411.5,-24 1417.5,-30 1417.5,-36 1417.5,-36 1417.5,-48 1417.5,-48 1417.5,-54 1411.5,-60 1405.5,-60"/>
<text text-anchor="middle" x="1321" y="-36.95" font-family="Times,serif" font-size="14.00">data.nebius_iam_v1_project.this</text>
</g>
<!-- module.root.nebius_vpc_v1alpha1_allocation.this&#45;&gt;module.root.data.nebius_iam_v1_project.this -->
<g id="edge30" class="edge">
<title>module.root.nebius_vpc_v1alpha1_allocation.this&#45;&gt;module.root.data.nebius_iam_v1_project.this</title>
<path fill="none" stroke="black" d="M1494.3,-95.52C1462.35,-85.83 1422.44,-73.74 1388.98,-63.6"/>
<polygon fill="black" stroke="black" points="1390.39,-60.37 1379.81,-60.82 1388.36,-67.07 1390.39,-60.37"/>
</g>
<!-- module.root.data.nebius_vpc_v1alpha1_subnet.this -->
<g id="node19" class="node">
<title>module.root.data.nebius_vpc_v1alpha1_subnet.this</title>
<path fill="none" stroke="black" d="M1648.62,-60C1648.62,-60 1447.38,-60 1447.38,-60 1441.38,-60 1435.38,-54 1435.38,-48 1435.38,-48 1435.38,-36 1435.38,-36 1435.38,-30 1441.38,-24 1447.38,-24 1447.38,-24 1648.62,-24 1648.62,-24 1654.62,-24 1660.62,-30 1660.62,-36 1660.62,-36 1660.62,-48 1660.62,-48 1660.62,-54 1654.62,-60 1648.62,-60"/>
<text text-anchor="middle" x="1548" y="-36.95" font-family="Times,serif" font-size="14.00">data.nebius_vpc_v1alpha1_subnet.this</text>
</g>
<!-- module.root.nebius_vpc_v1alpha1_allocation.this&#45;&gt;module.root.data.nebius_vpc_v1alpha1_subnet.this -->
<g id="edge31" class="edge">
<title>module.root.nebius_vpc_v1alpha1_allocation.this&#45;&gt;module.root.data.nebius_vpc_v1alpha1_subnet.this</title>
<path fill="none" stroke="black" d="M1551.01,-95.7C1550.59,-88.41 1550.1,-79.73 1549.63,-71.54"/>
<polygon fill="black" stroke="black" points="1553.13,-71.4 1549.06,-61.62 1546.14,-71.8 1553.13,-71.4"/>
</g>
<!-- module.root.module.filestore.nebius_compute_v1alpha1_filesystem.controller_spool -->
<g id="node11" class="node">
<title>module.root.module.filestore.nebius_compute_v1alpha1_filesystem.controller_spool</title>
<path fill="none" stroke="black" d="M328.38,-60C328.38,-60 35.62,-60 35.62,-60 29.63,-60 23.62,-54 23.62,-48 23.62,-48 23.62,-36 23.62,-36 23.62,-30 29.62,-24 35.62,-24 35.62,-24 328.38,-24 328.38,-24 334.38,-24 340.38,-30 340.38,-36 340.38,-36 340.38,-48 340.38,-48 340.38,-54 334.38,-60 328.38,-60"/>
<text text-anchor="middle" x="182" y="-36.95" font-family="Times,serif" font-size="14.00">nebius_compute_v1alpha1_filesystem.controller_spool</text>
</g>
<!-- module.root.module.filestore.output.controller_spool&#45;&gt;module.root.module.filestore.nebius_compute_v1alpha1_filesystem.controller_spool -->
<g id="edge15" class="edge">
<title>module.root.module.filestore.output.controller_spool&#45;&gt;module.root.module.filestore.nebius_compute_v1alpha1_filesystem.controller_spool</title>
<path fill="none" stroke="black" d="M334.3,-95.52C306.7,-86 272.36,-74.16 243.27,-64.13"/>
<polygon fill="black" stroke="black" points="244.43,-60.83 233.84,-60.88 242.15,-67.44 244.43,-60.83"/>
</g>
<!-- module.root.module.filestore.nebius_compute_v1alpha1_filesystem.jail -->
<g id="node13" class="node">
<title>module.root.module.filestore.nebius_compute_v1alpha1_filesystem.jail</title>
<path fill="none" stroke="black" d="M591.75,-60C591.75,-60 370.25,-60 370.25,-60 364.25,-60 358.25,-54 358.25,-48 358.25,-48 358.25,-36 358.25,-36 358.25,-30 364.25,-24 370.25,-24 370.25,-24 591.75,-24 591.75,-24 597.75,-24 603.75,-30 603.75,-36 603.75,-36 603.75,-48 603.75,-48 603.75,-54 597.75,-60 591.75,-60"/>
<text text-anchor="middle" x="481" y="-36.95" font-family="Times,serif" font-size="14.00">nebius_compute_v1alpha1_filesystem.jail</text>
</g>
<!-- module.root.module.filestore.output.jail&#45;&gt;module.root.module.filestore.nebius_compute_v1alpha1_filesystem.jail -->
<g id="edge16" class="edge">
<title>module.root.module.filestore.output.jail&#45;&gt;module.root.module.filestore.nebius_compute_v1alpha1_filesystem.jail</title>
<path fill="none" stroke="black" d="M677.85,-102.14C643.82,-91.92 591.96,-76.34 550.01,-63.73"/>
<polygon fill="black" stroke="black" points="551.06,-60.39 540.47,-60.87 549.04,-67.1 551.06,-60.39"/>
</g>
<!-- module.root.module.filestore.nebius_compute_v1alpha1_filesystem.jail_submount -->
<g id="node15" class="node">
<title>module.root.module.filestore.nebius_compute_v1alpha1_filesystem.jail_submount</title>
<path fill="none" stroke="black" d="M916.12,-60C916.12,-60 633.88,-60 633.88,-60 627.88,-60 621.88,-54 621.88,-48 621.88,-48 621.88,-36 621.88,-36 621.88,-30 627.88,-24 633.88,-24 633.88,-24 916.12,-24 916.12,-24 922.12,-24 928.12,-30 928.12,-36 928.12,-36 928.12,-48 928.12,-48 928.12,-54 922.12,-60 916.12,-60"/>
<text text-anchor="middle" x="775" y="-36.95" font-family="Times,serif" font-size="14.00">nebius_compute_v1alpha1_filesystem.jail_submount</text>
</g>
<!-- module.root.module.filestore.output.jail_submount&#45;&gt;module.root.module.filestore.nebius_compute_v1alpha1_filesystem.jail_submount -->
<g id="edge17" class="edge">
<title>module.root.module.filestore.output.jail_submount&#45;&gt;module.root.module.filestore.nebius_compute_v1alpha1_filesystem.jail_submount</title>
<path fill="none" stroke="black" d="M819.42,-95.7C812.56,-87.56 804.24,-77.69 796.66,-68.7"/>
<polygon fill="black" stroke="black" points="799.51,-66.65 790.39,-61.26 794.16,-71.16 799.51,-66.65"/>
</g>
<!-- module.root.nebius_compute_v1alpha1_gpu_cluster.this&#45;&gt;module.root.data.nebius_iam_v1_project.this -->
<g id="edge18" class="edge">
<title>module.root.nebius_compute_v1alpha1_gpu_cluster.this&#45;&gt;module.root.data.nebius_iam_v1_project.this</title>
<path fill="none" stroke="black" d="M1133.44,-95.52C1168.17,-85.79 1211.59,-73.64 1247.9,-63.47"/>
<polygon fill="black" stroke="black" points="1248.78,-66.86 1257.46,-60.79 1246.89,-60.12 1248.78,-66.86"/>
</g>
<!-- module.root.nebius_mk8s_v1alpha1_cluster.this&#45;&gt;module.root.data.nebius_iam_v1_project.this -->
<g id="edge19" class="edge">
<title>module.root.nebius_mk8s_v1alpha1_cluster.this&#45;&gt;module.root.data.nebius_iam_v1_project.this</title>
<path fill="none" stroke="black" d="M1321,-95.7C1321,-88.41 1321,-79.73 1321,-71.54"/>
<polygon fill="black" stroke="black" points="1324.5,-71.62 1321,-61.62 1317.5,-71.62 1324.5,-71.62"/>
</g>
<!-- module.root.nebius_mk8s_v1alpha1_cluster.this&#45;&gt;module.root.data.nebius_vpc_v1alpha1_subnet.this -->
<g id="edge20" class="edge">
<title>module.root.nebius_mk8s_v1alpha1_cluster.this&#45;&gt;module.root.data.nebius_vpc_v1alpha1_subnet.this</title>
<path fill="none" stroke="black" d="M1377.7,-95.52C1408.96,-85.88 1447.98,-73.84 1480.77,-63.73"/>
<polygon fill="black" stroke="black" points="1481.66,-67.12 1490.19,-60.83 1479.6,-60.43 1481.66,-67.12"/>
</g>
</g>
</svg>
