<?xml version="1.0" encoding="UTF-8" standalone="no"?>
<!DOCTYPE svg PUBLIC "-//W3C//DTD SVG 1.1//EN"
 "http://www.w3.org/Graphics/SVG/1.1/DTD/svg11.dtd">
<!-- Generated by graphviz version 12.0.0 (20240704.0754)
 -->
<!-- Title: newbius Pages: 1 -->
<svg width="1685pt" height="473pt"
 viewBox="0.00 0.00 1685.00 473.00" xmlns="http://www.w3.org/2000/svg" xmlns:xlink="http://www.w3.org/1999/xlink">
<g id="graph0" class="graph" transform="scale(1 1) rotate(0) translate(4 469)">
<title>newbius</title>
<polygon fill="white" stroke="none" points="-4,4 -4,-469 1681,-469 1681,4 -4,4"/>
<g id="clust1" class="cluster">
<title>cluster_module.root</title>
<polygon fill="none" stroke="black" points="8,-8 8,-457 1669,-457 1669,-8 8,-8"/>
<text text-anchor="middle" x="838.5" y="-439.7" font-family="Times,serif" font-size="14.00">module.root</text>
</g>
<g id="clust2" class="cluster">
<title>cluster_module.root.module.filestore</title>
<polygon fill="none" stroke="black" points="16,-16 16,-164.5 936,-164.5 936,-16 16,-16"/>
<text text-anchor="middle" x="476" y="-147.2" font-family="Times,serif" font-size="14.00">module.filestore</text>
</g>
<!-- module.root.helm_release.gpu&#45;operator -->
<g id="node1" class="node">
<title>module.root.helm_release.gpu&#45;operator</title>
<path fill="none" stroke="black" d="M1211.75,-352.5C1211.75,-352.5 1074.25,-352.5 1074.25,-352.5 1068.25,-352.5 1062.25,-346.5 1062.25,-340.5 1062.25,-340.5 1062.25,-328.5 1062.25,-328.5 1062.25,-322.5 1068.25,-316.5 1074.25,-316.5 1074.25,-316.5 1211.75,-316.5 1211.75,-316.5 1217.75,-316.5 1223.75,-322.5 1223.75,-328.5 1223.75,-328.5 1223.75,-340.5 1223.75,-340.5 1223.75,-346.5 1217.75,-352.5 1211.75,-352.5"/>
<text text-anchor="middle" x="1143" y="-329.45" font-family="Times,serif" font-size="14.00">helm_release.gpu&#45;operator</text>
</g>
<!-- module.root.helm_release.network_operator -->
<g id="node2" class="node">
<title>module.root.helm_release.network_operator</title>
<path fill="none" stroke="black" d="M1224.88,-280.5C1224.88,-280.5 1061.12,-280.5 1061.12,-280.5 1055.12,-280.5 1049.12,-274.5 1049.12,-268.5 1049.12,-268.5 1049.12,-256.5 1049.12,-256.5 1049.12,-250.5 1055.12,-244.5 1061.12,-244.5 1061.12,-244.5 1224.88,-244.5 1224.88,-244.5 1230.88,-244.5 1236.88,-250.5 1236.88,-256.5 1236.88,-256.5 1236.88,-268.5 1236.88,-268.5 1236.88,-274.5 1230.88,-280.5 1224.88,-280.5"/>
<text text-anchor="middle" x="1143" y="-257.45" font-family="Times,serif" font-size="14.00">helm_release.network_operator</text>
</g>
<!-- module.root.helm_release.gpu&#45;operator&#45;&gt;module.root.helm_release.network_operator -->
<g id="edge1" class="edge">
<title>module.root.helm_release.gpu&#45;operator&#45;&gt;module.root.helm_release.network_operator</title>
<path fill="none" stroke="black" d="M1143,-316.2C1143,-308.91 1143,-300.23 1143,-292.04"/>
<polygon fill="black" stroke="black" points="1146.5,-292.12 1143,-282.12 1139.5,-292.12 1146.5,-292.12"/>
</g>
<!-- module.root.nebius_mk8s_v1alpha1_node_group.control -->
<g id="node3" class="node">
<title>module.root.nebius_mk8s_v1alpha1_node_group.control</title>
<path fill="none" stroke="black" d="M1445.75,-208.5C1445.75,-208.5 1212.25,-208.5 1212.25,-208.5 1206.25,-208.5 1200.25,-202.5 1200.25,-196.5 1200.25,-196.5 1200.25,-184.5 1200.25,-184.5 1200.25,-178.5 1206.25,-172.5 1212.25,-172.5 1212.25,-172.5 1445.75,-172.5 1445.75,-172.5 1451.75,-172.5 1457.75,-178.5 1457.75,-184.5 1457.75,-184.5 1457.75,-196.5 1457.75,-196.5 1457.75,-202.5 1451.75,-208.5 1445.75,-208.5"/>
<text text-anchor="middle" x="1329" y="-185.45" font-family="Times,serif" font-size="14.00">nebius_mk8s_v1alpha1_node_group.control</text>
</g>
<!-- module.root.helm_release.network_operator&#45;&gt;module.root.nebius_mk8s_v1alpha1_node_group.control -->
<g id="edge2" class="edge">
<title>module.root.helm_release.network_operator&#45;&gt;module.root.nebius_mk8s_v1alpha1_node_group.control</title>
<path fill="none" stroke="black" d="M1189.46,-244.02C1214.52,-234.58 1245.65,-222.87 1272.15,-212.89"/>
<polygon fill="black" stroke="black" points="1273.27,-216.21 1281.4,-209.41 1270.81,-209.66 1273.27,-216.21"/>
</g>
<!-- module.root.nebius_mk8s_v1alpha1_node_group.cpu -->
<g id="node4" class="node">
<title>module.root.nebius_mk8s_v1alpha1_node_group.cpu</title>
<path fill="none" stroke="black" d="M912.38,-208.5C912.38,-208.5 697.62,-208.5 697.62,-208.5 691.62,-208.5 685.62,-202.5 685.62,-196.5 685.62,-196.5 685.62,-184.5 685.62,-184.5 685.62,-178.5 691.62,-172.5 697.62,-172.5 697.62,-172.5 912.38,-172.5 912.38,-172.5 918.38,-172.5 924.38,-178.5 924.38,-184.5 924.38,-184.5 924.38,-196.5 924.38,-196.5 924.38,-202.5 918.38,-208.5 912.38,-208.5"/>
<text text-anchor="middle" x="805" y="-185.45" font-family="Times,serif" font-size="14.00">nebius_mk8s_v1alpha1_node_group.cpu</text>
</g>
<!-- module.root.helm_release.network_operator&#45;&gt;module.root.nebius_mk8s_v1alpha1_node_group.cpu -->
<g id="edge3" class="edge">
<title>module.root.helm_release.network_operator&#45;&gt;module.root.nebius_mk8s_v1alpha1_node_group.cpu</title>
<path fill="none" stroke="black" d="M1058.58,-244.02C1010.5,-234.06 950.11,-221.55 900.33,-211.24"/>
<polygon fill="black" stroke="black" points="901.21,-207.85 890.7,-209.25 899.79,-214.7 901.21,-207.85"/>
</g>
<!-- module.root.nebius_mk8s_v1alpha1_node_group.gpu -->
<g id="node5" class="node">
<title>module.root.nebius_mk8s_v1alpha1_node_group.gpu</title>
<path fill="none" stroke="black" d="M1169.75,-208.5C1169.75,-208.5 954.25,-208.5 954.25,-208.5 948.25,-208.5 942.25,-202.5 942.25,-196.5 942.25,-196.5 942.25,-184.5 942.25,-184.5 942.25,-178.5 948.25,-172.5 954.25,-172.5 954.25,-172.5 1169.75,-172.5 1169.75,-172.5 1175.75,-172.5 1181.75,-178.5 1181.75,-184.5 1181.75,-184.5 1181.75,-196.5 1181.75,-196.5 1181.75,-202.5 1175.75,-208.5 1169.75,-208.5"/>
<text text-anchor="middle" x="1062" y="-185.45" font-family="Times,serif" font-size="14.00">nebius_mk8s_v1alpha1_node_group.gpu</text>
</g>
<!-- module.root.helm_release.network_operator&#45;&gt;module.root.nebius_mk8s_v1alpha1_node_group.gpu -->
<g id="edge4" class="edge">
<title>module.root.helm_release.network_operator&#45;&gt;module.root.nebius_mk8s_v1alpha1_node_group.gpu</title>
<path fill="none" stroke="black" d="M1122.98,-244.2C1113.24,-235.78 1101.36,-225.52 1090.69,-216.29"/>
<polygon fill="black" stroke="black" points="1093.07,-213.73 1083.22,-209.84 1088.5,-219.02 1093.07,-213.73"/>
</g>
<!-- module.root.nebius_mk8s_v1alpha1_cluster.this -->
<g id="node18" class="node">
<title>module.root.nebius_mk8s_v1alpha1_cluster.this</title>
<path fill="none" stroke="black" d="M1413.75,-132C1413.75,-132 1228.25,-132 1228.25,-132 1222.25,-132 1216.25,-126 1216.25,-120 1216.25,-120 1216.25,-108 1216.25,-108 1216.25,-102 1222.25,-96 1228.25,-96 1228.25,-96 1413.75,-96 1413.75,-96 1419.75,-96 1425.75,-102 1425.75,-108 1425.75,-108 1425.75,-120 1425.75,-120 1425.75,-126 1419.75,-132 1413.75,-132"/>
<text text-anchor="middle" x="1321" y="-108.95" font-family="Times,serif" font-size="14.00">nebius_mk8s_v1alpha1_cluster.this</text>
</g>
<!-- module.root.nebius_mk8s_v1alpha1_node_group.control&#45;&gt;module.root.nebius_mk8s_v1alpha1_cluster.this -->
<g id="edge18" class="edge">
<title>module.root.nebius_mk8s_v1alpha1_node_group.control&#45;&gt;module.root.nebius_mk8s_v1alpha1_cluster.this</title>
<path fill="none" stroke="black" d="M1327.14,-172.22C1326.23,-163.73 1325.11,-153.26 1324.07,-143.62"/>
<polygon fill="black" stroke="black" points="1327.58,-143.52 1323.03,-133.95 1320.62,-144.26 1327.58,-143.52"/>
</g>
<!-- module.root.module.filestore.output.controller_spool -->
<g id="node10" class="node">
<title>module.root.module.filestore.output.controller_spool</title>
<polygon fill="none" stroke="black" points="448.38,-132 311.62,-132 311.62,-96 454.38,-96 454.38,-126 448.38,-132"/>
<polyline fill="none" stroke="black" points="448.38,-132 448.38,-126"/>
<polyline fill="none" stroke="black" points="454.38,-126 448.38,-126"/>
<text text-anchor="middle" x="383" y="-108.95" font-family="Times,serif" font-size="14.00">output.controller_spool</text>
</g>
<!-- module.root.nebius_mk8s_v1alpha1_node_group.cpu&#45;&gt;module.root.module.filestore.output.controller_spool -->
<g id="edge19" class="edge">
<title>module.root.nebius_mk8s_v1alpha1_node_group.cpu&#45;&gt;module.root.module.filestore.output.controller_spool</title>
<path fill="none" stroke="black" stroke-dasharray="5,2" d="M706.06,-172.03C633.02,-159.14 534.75,-141.79 465.84,-129.62"/>
<polygon fill="black" stroke="black" points="466.56,-126.2 456.1,-127.91 465.34,-133.09 466.56,-126.2"/>
</g>
<!-- module.root.module.filestore.output.jail -->
<g id="node12" class="node">
<title>module.root.module.filestore.output.jail</title>
<polygon fill="none" stroke="black" points="738.75,-132 673.25,-132 673.25,-96 744.75,-96 744.75,-126 738.75,-132"/>
<polyline fill="none" stroke="black" points="738.75,-132 738.75,-126"/>
<polyline fill="none" stroke="black" points="744.75,-126 738.75,-126"/>
<text text-anchor="middle" x="709" y="-108.95" font-family="Times,serif" font-size="14.00">output.jail</text>
</g>
<!-- module.root.nebius_mk8s_v1alpha1_node_group.cpu&#45;&gt;module.root.module.filestore.output.jail -->
<g id="edge20" class="edge">
<title>module.root.nebius_mk8s_v1alpha1_node_group.cpu&#45;&gt;module.root.module.filestore.output.jail</title>
<path fill="none" stroke="black" stroke-dasharray="5,2" d="M765.67,-172.13C761.6,-169.78 757.63,-167.22 754,-164.5 745,-157.74 736.36,-149 729.1,-140.75"/>
<polygon fill="black" stroke="black" points="731.92,-138.65 722.79,-133.27 726.56,-143.17 731.92,-138.65"/>
</g>
<!-- module.root.module.filestore.output.jail_submount -->
<g id="node14" class="node">
<title>module.root.module.filestore.output.jail_submount</title>
<polygon fill="none" stroke="black" points="889.12,-132 762.88,-132 762.88,-96 895.12,-96 895.12,-126 889.12,-132"/>
<polyline fill="none" stroke="black" points="889.12,-132 889.12,-126"/>
<polyline fill="none" stroke="black" points="895.12,-126 889.12,-126"/>
<text text-anchor="middle" x="829" y="-108.95" font-family="Times,serif" font-size="14.00">output.jail_submount</text>
</g>
<!-- module.root.nebius_mk8s_v1alpha1_node_group.cpu&#45;&gt;module.root.module.filestore.output.jail_submount -->
<g id="edge21" class="edge">
<title>module.root.nebius_mk8s_v1alpha1_node_group.cpu&#45;&gt;module.root.module.filestore.output.jail_submount</title>
<path fill="none" stroke="black" stroke-dasharray="5,2" d="M810.57,-172.22C813.33,-163.63 816.75,-153.03 819.88,-143.3"/>
<polygon fill="black" stroke="black" points="823.18,-144.48 822.92,-133.88 816.52,-142.33 823.18,-144.48"/>
</g>
<!-- module.root.nebius_mk8s_v1alpha1_node_group.cpu&#45;&gt;module.root.nebius_mk8s_v1alpha1_cluster.this -->
<g id="edge22" class="edge">
<title>module.root.nebius_mk8s_v1alpha1_node_group.cpu&#45;&gt;module.root.nebius_mk8s_v1alpha1_cluster.this</title>
<path fill="none" stroke="black" d="M924.53,-173.23C927.38,-172.97 930.21,-172.73 933,-172.5 993.72,-167.59 1147.55,-177.76 1207,-164.5 1232.04,-158.92 1258.42,-147.84 1279.48,-137.58"/>
<polygon fill="black" stroke="black" points="1280.94,-140.76 1288.32,-133.15 1277.81,-134.5 1280.94,-140.76"/>
</g>
<!-- module.root.nebius_mk8s_v1alpha1_node_group.gpu&#45;&gt;module.root.module.filestore.output.jail -->
<g id="edge23" class="edge">
<title>module.root.nebius_mk8s_v1alpha1_node_group.gpu&#45;&gt;module.root.module.filestore.output.jail</title>
<path fill="none" stroke="black" stroke-dasharray="5,2" d="M941.87,-173.32C938.89,-173.03 935.93,-172.76 933,-172.5 913.17,-170.75 772.02,-172.96 754,-164.5 742.96,-159.32 733.41,-150.06 725.98,-140.94"/>
<polygon fill="black" stroke="black" points="728.99,-139.13 720.19,-133.23 723.4,-143.33 728.99,-139.13"/>
</g>
<!-- module.root.nebius_mk8s_v1alpha1_node_group.gpu&#45;&gt;module.root.module.filestore.output.jail_submount -->
<g id="edge24" class="edge">
<title>module.root.nebius_mk8s_v1alpha1_node_group.gpu&#45;&gt;module.root.module.filestore.output.jail_submount</title>
<path fill="none" stroke="black" stroke-dasharray="5,2" d="M941.86,-172.95C920.89,-169.65 904.11,-166.56 899,-164.5 884.04,-158.46 869.2,-148.66 857.06,-139.37"/>
<polygon fill="black" stroke="black" points="859.54,-136.87 849.53,-133.38 855.18,-142.34 859.54,-136.87"/>
</g>
<!-- module.root.nebius_compute_v1alpha1_gpu_cluster.this -->
<g id="node16" class="node">
<title>module.root.nebius_compute_v1alpha1_gpu_cluster.this</title>
<path fill="none" stroke="black" d="M1185.88,-132C1185.88,-132 956.12,-132 956.12,-132 950.12,-132 944.12,-126 944.12,-120 944.12,-120 944.12,-108 944.12,-108 944.12,-102 950.12,-96 956.12,-96 956.12,-96 1185.88,-96 1185.88,-96 1191.88,-96 1197.88,-102 1197.88,-108 1197.88,-108 1197.88,-120 1197.88,-120 1197.88,-126 1191.88,-132 1185.88,-132"/>
<text text-anchor="middle" x="1071" y="-108.95" font-family="Times,serif" font-size="14.00">nebius_compute_v1alpha1_gpu_cluster.this</text>
</g>
<!-- module.root.nebius_mk8s_v1alpha1_node_group.gpu&#45;&gt;module.root.nebius_compute_v1alpha1_gpu_cluster.this -->
<g id="edge25" class="edge">
<title>module.root.nebius_mk8s_v1alpha1_node_group.gpu&#45;&gt;module.root.nebius_compute_v1alpha1_gpu_cluster.this</title>
<path fill="none" stroke="black" d="M1064.09,-172.22C1065.11,-163.73 1066.38,-153.26 1067.54,-143.62"/>
<polygon fill="black" stroke="black" points="1070.99,-144.29 1068.71,-133.95 1064.04,-143.45 1070.99,-144.29"/>
</g>
<!-- module.root.nebius_mk8s_v1alpha1_node_group.gpu&#45;&gt;module.root.nebius_mk8s_v1alpha1_cluster.this -->
<g id="edge26" class="edge">
<title>module.root.nebius_mk8s_v1alpha1_node_group.gpu&#45;&gt;module.root.nebius_mk8s_v1alpha1_cluster.this</title>
<path fill="none" stroke="black" d="M1178.13,-172.03C1187.96,-169.78 1197.7,-167.28 1207,-164.5 1230.59,-157.45 1255.8,-146.86 1276.5,-137.27"/>
<polygon fill="black" stroke="black" points="1277.96,-140.45 1285.51,-133.02 1274.97,-134.12 1277.96,-140.45"/>
</g>
<!-- module.root.helm_release.slurm_cluster -->
<g id="node6" class="node">
<title>module.root.helm_release.slurm_cluster</title>
<path fill="none" stroke="black" d="M1307,-424.5C1307,-424.5 1165,-424.5 1165,-424.5 1159,-424.5 1153,-418.5 1153,-412.5 1153,-412.5 1153,-400.5 1153,-400.5 1153,-394.5 1159,-388.5 1165,-388.5 1165,-388.5 1307,-388.5 1307,-388.5 1313,-388.5 1319,-394.5 1319,-400.5 1319,-400.5 1319,-412.5 1319,-412.5 1319,-418.5 1313,-424.5 1307,-424.5"/>
<text text-anchor="middle" x="1236" y="-401.45" font-family="Times,serif" font-size="14.00">helm_release.slurm_cluster</text>
</g>
<!-- module.root.helm_release.slurm_cluster&#45;&gt;module.root.helm_release.gpu&#45;operator -->
<g id="edge5" class="edge">
<title>module.root.helm_release.slurm_cluster&#45;&gt;module.root.helm_release.gpu&#45;operator</title>
<path fill="none" stroke="black" d="M1213.01,-388.2C1201.61,-379.61 1187.65,-369.11 1175.2,-359.74"/>
<polygon fill="black" stroke="black" points="1177.35,-356.97 1167.26,-353.76 1173.14,-362.57 1177.35,-356.97"/>
</g>
<!-- module.root.helm_release.slurm_cluster_storage -->
<g id="node7" class="node">
<title>module.root.helm_release.slurm_cluster_storage</title>
<path fill="none" stroke="black" d="M1018.88,-280.5C1018.88,-280.5 831.12,-280.5 831.12,-280.5 825.12,-280.5 819.12,-274.5 819.12,-268.5 819.12,-268.5 819.12,-256.5 819.12,-256.5 819.12,-250.5 825.12,-244.5 831.12,-244.5 831.12,-244.5 1018.88,-244.5 1018.88,-244.5 1024.88,-244.5 1030.88,-250.5 1030.88,-256.5 1030.88,-256.5 1030.88,-268.5 1030.88,-268.5 1030.88,-274.5 1024.88,-280.5 1018.88,-280.5"/>
<text text-anchor="middle" x="925" y="-257.45" font-family="Times,serif" font-size="14.00">helm_release.slurm_cluster_storage</text>
</g>
<!-- module.root.helm_release.slurm_cluster&#45;&gt;module.root.helm_release.slurm_cluster_storage -->
<g id="edge6" class="edge">
<title>module.root.helm_release.slurm_cluster&#45;&gt;module.root.helm_release.slurm_cluster_storage</title>
<path fill="none" stroke="black" d="M1154.65,-388.01C1122.16,-379.48 1084.95,-367.73 1053,-352.5 1016.6,-335.15 979.22,-307.86 954.33,-288.07"/>
<polygon fill="black" stroke="black" points="956.58,-285.39 946.6,-281.84 952.19,-290.84 956.58,-285.39"/>
</g>
<!-- module.root.helm_release.slurm_operator -->
<g id="node8" class="node">
<title>module.root.helm_release.slurm_operator</title>
<path fill="none" stroke="black" d="M1404.5,-352.5C1404.5,-352.5 1253.5,-352.5 1253.5,-352.5 1247.5,-352.5 1241.5,-346.5 1241.5,-340.5 1241.5,-340.5 1241.5,-328.5 1241.5,-328.5 1241.5,-322.5 1247.5,-316.5 1253.5,-316.5 1253.5,-316.5 1404.5,-316.5 1404.5,-316.5 1410.5,-316.5 1416.5,-322.5 1416.5,-328.5 1416.5,-328.5 1416.5,-340.5 1416.5,-340.5 1416.5,-346.5 1410.5,-352.5 1404.5,-352.5"/>
<text text-anchor="middle" x="1329" y="-329.45" font-family="Times,serif" font-size="14.00">helm_release.slurm_operator</text>
</g>
<!-- module.root.helm_release.slurm_cluster&#45;&gt;module.root.helm_release.slurm_operator -->
<g id="edge7" class="edge">
<title>module.root.helm_release.slurm_cluster&#45;&gt;module.root.helm_release.slurm_operator</title>
<path fill="none" stroke="black" d="M1258.99,-388.2C1270.39,-379.61 1284.35,-369.11 1296.8,-359.74"/>
<polygon fill="black" stroke="black" points="1298.86,-362.57 1304.74,-353.76 1294.65,-356.97 1298.86,-362.57"/>
</g>
<!-- module.root.nebius_vpc_v1alpha1_allocation.this -->
<g id="node9" class="node">
<title>module.root.nebius_vpc_v1alpha1_allocation.this</title>
<path fill="none" stroke="black" d="M1648.5,-132C1648.5,-132 1455.5,-132 1455.5,-132 1449.5,-132 1443.5,-126 1443.5,-120 1443.5,-120 1443.5,-108 1443.5,-108 1443.5,-102 1449.5,-96 1455.5,-96 1455.5,-96 1648.5,-96 1648.5,-96 1654.5,-96 1660.5,-102 1660.5,-108 1660.5,-108 1660.5,-120 1660.5,-120 1660.5,-126 1654.5,-132 1648.5,-132"/>
<text text-anchor="middle" x="1552" y="-108.95" font-family="Times,serif" font-size="14.00">nebius_vpc_v1alpha1_allocation.this</text>
</g>
<!-- module.root.helm_release.slurm_cluster&#45;&gt;module.root.nebius_vpc_v1alpha1_allocation.this -->
<g id="edge8" class="edge">
<title>module.root.helm_release.slurm_cluster&#45;&gt;module.root.nebius_vpc_v1alpha1_allocation.this</title>
<path fill="none" stroke="black" d="M1319.4,-397.07C1355.3,-389.93 1395.85,-376.76 1426,-352.5 1495.02,-296.97 1530.95,-193.24 1544.92,-143.3"/>
<polygon fill="black" stroke="black" points="1548.25,-144.41 1547.47,-133.84 1541.49,-142.59 1548.25,-144.41"/>
</g>
<!-- module.root.helm_release.slurm_cluster_storage&#45;&gt;module.root.nebius_mk8s_v1alpha1_node_group.cpu -->
<g id="edge9" class="edge">
<title>module.root.helm_release.slurm_cluster_storage&#45;&gt;module.root.nebius_mk8s_v1alpha1_node_group.cpu</title>
<path fill="none" stroke="black" d="M895.03,-244.02C879.74,-235.1 860.94,-224.13 844.48,-214.53"/>
<polygon fill="black" stroke="black" points="846.3,-211.54 835.9,-209.52 842.77,-217.59 846.3,-211.54"/>
</g>
<!-- module.root.helm_release.slurm_cluster_storage&#45;&gt;module.root.nebius_mk8s_v1alpha1_node_group.gpu -->
<g id="edge10" class="edge">
<title>module.root.helm_release.slurm_cluster_storage&#45;&gt;module.root.nebius_mk8s_v1alpha1_node_group.gpu</title>
<path fill="none" stroke="black" d="M959.22,-244.02C977.01,-234.93 998.95,-223.72 1017.99,-213.99"/>
<polygon fill="black" stroke="black" points="1019.56,-217.12 1026.87,-209.45 1016.37,-210.88 1019.56,-217.12"/>
</g>
<!-- module.root.helm_release.slurm_operator&#45;&gt;module.root.nebius_mk8s_v1alpha1_node_group.control -->
<g id="edge11" class="edge">
<title>module.root.helm_release.slurm_operator&#45;&gt;module.root.nebius_mk8s_v1alpha1_node_group.control</title>
<path fill="none" stroke="black" d="M1329,-316.09C1329,-292.11 1329,-248.64 1329,-219.92"/>
<polygon fill="black" stroke="black" points="1332.5,-220.12 1329,-210.12 1325.5,-220.12 1332.5,-220.12"/>
</g>
<!-- module.root.data.nebius_iam_v1_project.this -->
<g id="node17" class="node">
<title>module.root.data.nebius_iam_v1_project.this</title>
<path fill="none" stroke="black" d="M1405.5,-60C1405.5,-60 1236.5,-60 1236.5,-60 1230.5,-60 1224.5,-54 1224.5,-48 1224.5,-48 1224.5,-36 1224.5,-36 1224.5,-30 1230.5,-24 1236.5,-24 1236.5,-24 1405.5,-24 1405.5,-24 1411.5,-24 1417.5,-30 1417.5,-36 1417.5,-36 1417.5,-48 1417.5,-48 1417.5,-54 1411.5,-60 1405.5,-60"/>
<text text-anchor="middle" x="1321" y="-36.95" font-family="Times,serif" font-size="14.00">data.nebius_iam_v1_project.this</text>
</g>
<!-- module.root.nebius_vpc_v1alpha1_allocation.this&#45;&gt;module.root.data.nebius_iam_v1_project.this -->
<g id="edge27" class="edge">
<title>module.root.nebius_vpc_v1alpha1_allocation.this&#45;&gt;module.root.data.nebius_iam_v1_project.this</title>
<path fill="none" stroke="black" d="M1494.3,-95.52C1462.35,-85.83 1422.44,-73.74 1388.98,-63.6"/>
<polygon fill="black" stroke="black" points="1390.39,-60.37 1379.81,-60.82 1388.36,-67.07 1390.39,-60.37"/>
</g>
<!-- module.root.data.nebius_vpc_v1alpha1_subnet.this -->
<g id="node19" class="node">
<title>module.root.data.nebius_vpc_v1alpha1_subnet.this</title>
<path fill="none" stroke="black" d="M1648.62,-60C1648.62,-60 1447.38,-60 1447.38,-60 1441.38,-60 1435.38,-54 1435.38,-48 1435.38,-48 1435.38,-36 1435.38,-36 1435.38,-30 1441.38,-24 1447.38,-24 1447.38,-24 1648.62,-24 1648.62,-24 1654.62,-24 1660.62,-30 1660.62,-36 1660.62,-36 1660.62,-48 1660.62,-48 1660.62,-54 1654.62,-60 1648.62,-60"/>
<text text-anchor="middle" x="1548" y="-36.95" font-family="Times,serif" font-size="14.00">data.nebius_vpc_v1alpha1_subnet.this</text>
</g>
<!-- module.root.nebius_vpc_v1alpha1_allocation.this&#45;&gt;module.root.data.nebius_vpc_v1alpha1_subnet.this -->
<g id="edge28" class="edge">
<title>module.root.nebius_vpc_v1alpha1_allocation.this&#45;&gt;module.root.data.nebius_vpc_v1alpha1_subnet.this</title>
<path fill="none" stroke="black" d="M1551.01,-95.7C1550.59,-88.41 1550.1,-79.73 1549.63,-71.54"/>
<polygon fill="black" stroke="black" points="1553.13,-71.4 1549.06,-61.62 1546.14,-71.8 1553.13,-71.4"/>
</g>
<!-- module.root.module.filestore.nebius_compute_v1alpha1_filesystem.controller_spool -->
<g id="node11" class="node">
<title>module.root.module.filestore.nebius_compute_v1alpha1_filesystem.controller_spool</title>
<path fill="none" stroke="black" d="M328.38,-60C328.38,-60 35.62,-60 35.62,-60 29.63,-60 23.62,-54 23.62,-48 23.62,-48 23.62,-36 23.62,-36 23.62,-30 29.62,-24 35.62,-24 35.62,-24 328.38,-24 328.38,-24 334.38,-24 340.38,-30 340.38,-36 340.38,-36 340.38,-48 340.38,-48 340.38,-54 334.38,-60 328.38,-60"/>
<text text-anchor="middle" x="182" y="-36.95" font-family="Times,serif" font-size="14.00">nebius_compute_v1alpha1_filesystem.controller_spool</text>
</g>
<!-- module.root.module.filestore.output.controller_spool&#45;&gt;module.root.module.filestore.nebius_compute_v1alpha1_filesystem.controller_spool -->
<g id="edge12" class="edge">
<title>module.root.module.filestore.output.controller_spool&#45;&gt;module.root.module.filestore.nebius_compute_v1alpha1_filesystem.controller_spool</title>
<path fill="none" stroke="black" d="M332.8,-95.52C305.47,-86 271.47,-74.16 242.67,-64.13"/>
<polygon fill="black" stroke="black" points="243.93,-60.86 233.34,-60.88 241.63,-67.47 243.93,-60.86"/>
</g>
<!-- module.root.module.filestore.nebius_compute_v1alpha1_filesystem.jail -->
<g id="node13" class="node">
<title>module.root.module.filestore.nebius_compute_v1alpha1_filesystem.jail</title>
<path fill="none" stroke="black" d="M591.75,-60C591.75,-60 370.25,-60 370.25,-60 364.25,-60 358.25,-54 358.25,-48 358.25,-48 358.25,-36 358.25,-36 358.25,-30 364.25,-24 370.25,-24 370.25,-24 591.75,-24 591.75,-24 597.75,-24 603.75,-30 603.75,-36 603.75,-36 603.75,-48 603.75,-48 603.75,-54 597.75,-60 591.75,-60"/>
<text text-anchor="middle" x="481" y="-36.95" font-family="Times,serif" font-size="14.00">nebius_compute_v1alpha1_filesystem.jail</text>
</g>
<!-- module.root.module.filestore.output.jail&#45;&gt;module.root.module.filestore.nebius_compute_v1alpha1_filesystem.jail -->
<g id="edge13" class="edge">
<title>module.root.module.filestore.output.jail&#45;&gt;module.root.module.filestore.nebius_compute_v1alpha1_filesystem.jail</title>
<path fill="none" stroke="black" d="M672.87,-101.91C639.63,-91.7 589.47,-76.3 548.77,-63.81"/>
<polygon fill="black" stroke="black" points="549.87,-60.48 539.28,-60.89 547.82,-67.18 549.87,-60.48"/>
</g>
<!-- module.root.module.filestore.nebius_compute_v1alpha1_filesystem.jail_submount -->
<g id="node15" class="node">
<title>module.root.module.filestore.nebius_compute_v1alpha1_filesystem.jail_submount</title>
<path fill="none" stroke="black" d="M916.12,-60C916.12,-60 633.88,-60 633.88,-60 627.88,-60 621.88,-54 621.88,-48 621.88,-48 621.88,-36 621.88,-36 621.88,-30 627.88,-24 633.88,-24 633.88,-24 916.12,-24 916.12,-24 922.12,-24 928.12,-30 928.12,-36 928.12,-36 928.12,-48 928.12,-48 928.12,-54 922.12,-60 916.12,-60"/>
<text text-anchor="middle" x="775" y="-36.95" font-family="Times,serif" font-size="14.00">nebius_compute_v1alpha1_filesystem.jail_submount</text>
</g>
<!-- module.root.module.filestore.output.jail_submount&#45;&gt;module.root.module.filestore.nebius_compute_v1alpha1_filesystem.jail_submount -->
<g id="edge14" class="edge">
<title>module.root.module.filestore.output.jail_submount&#45;&gt;module.root.module.filestore.nebius_compute_v1alpha1_filesystem.jail_submount</title>
<path fill="none" stroke="black" d="M815.65,-95.7C809.44,-87.64 801.92,-77.89 795.04,-68.98"/>
<polygon fill="black" stroke="black" points="798,-67.08 789.12,-61.3 792.46,-71.36 798,-67.08"/>
</g>
<!-- module.root.nebius_compute_v1alpha1_gpu_cluster.this&#45;&gt;module.root.data.nebius_iam_v1_project.this -->
<g id="edge15" class="edge">
<title>module.root.nebius_compute_v1alpha1_gpu_cluster.this&#45;&gt;module.root.data.nebius_iam_v1_project.this</title>
<path fill="none" stroke="black" d="M1133.44,-95.52C1168.17,-85.79 1211.59,-73.64 1247.9,-63.47"/>
<polygon fill="black" stroke="black" points="1248.78,-66.86 1257.46,-60.79 1246.89,-60.12 1248.78,-66.86"/>
</g>
<!-- module.root.nebius_mk8s_v1alpha1_cluster.this&#45;&gt;module.root.data.nebius_iam_v1_project.this -->
<g id="edge16" class="edge">
<title>module.root.nebius_mk8s_v1alpha1_cluster.this&#45;&gt;module.root.data.nebius_iam_v1_project.this</title>
<path fill="none" stroke="black" d="M1321,-95.7C1321,-88.41 1321,-79.73 1321,-71.54"/>
<polygon fill="black" stroke="black" points="1324.5,-71.62 1321,-61.62 1317.5,-71.62 1324.5,-71.62"/>
</g>
<!-- module.root.nebius_mk8s_v1alpha1_cluster.this&#45;&gt;module.root.data.nebius_vpc_v1alpha1_subnet.this -->
<g id="edge17" class="edge">
<title>module.root.nebius_mk8s_v1alpha1_cluster.this&#45;&gt;module.root.data.nebius_vpc_v1alpha1_subnet.this</title>
<path fill="none" stroke="black" d="M1377.7,-95.52C1408.96,-85.88 1447.98,-73.84 1480.77,-63.73"/>
<polygon fill="black" stroke="black" points="1481.66,-67.12 1490.19,-60.83 1479.6,-60.43 1481.66,-67.12"/>
</g>
</g>
</svg>
