<?xml version="1.0" encoding="UTF-8" standalone="no"?>
<!DOCTYPE svg PUBLIC "-//W3C//DTD SVG 1.1//EN"
 "http://www.w3.org/Graphics/SVG/1.1/DTD/svg11.dtd">
<!-- Generated by graphviz version 12.0.0 (20240704.0754)
 -->
<!-- Title: newbius Pages: 1 -->
<svg width="3309pt" height="542pt"
 viewBox="0.00 0.00 3309.00 541.50" xmlns="http://www.w3.org/2000/svg" xmlns:xlink="http://www.w3.org/1999/xlink">
<g id="graph0" class="graph" transform="scale(1 1) rotate(0) translate(4 537.5)">
<title>newbius</title>
<polygon fill="white" stroke="none" points="-4,4 -4,-537.5 3305,-537.5 3305,4 -4,4"/>
<g id="clust1" class="cluster">
<title>cluster_module.root</title>
<polygon fill="none" stroke="black" points="8,-8 8,-525.5 3293,-525.5 3293,-8 8,-8"/>
<text text-anchor="middle" x="1650.5" y="-508.2" font-family="Times,serif" font-size="14.00">module.root</text>
</g>
<g id="clust2" class="cluster">
<title>cluster_module.root.module.filestore</title>
<polygon fill="none" stroke="black" points="16,-312 16,-460.5 828,-460.5 828,-312 16,-312"/>
<text text-anchor="middle" x="422" y="-443.2" font-family="Times,serif" font-size="14.00">module.filestore</text>
</g>
<g id="clust3" class="cluster">
<title>cluster_module.root.module.k8s</title>
<polygon fill="none" stroke="black" points="836,-312 836,-460.5 1841,-460.5 1841,-312 836,-312"/>
<text text-anchor="middle" x="1338.5" y="-443.2" font-family="Times,serif" font-size="14.00">module.k8s</text>
</g>
<g id="clust4" class="cluster">
<title>cluster_module.root.module.nvidia_operators</title>
<polygon fill="none" stroke="black" points="1849,-312 1849,-460.5 2053,-460.5 2053,-312 1849,-312"/>
<text text-anchor="middle" x="1951" y="-443.2" font-family="Times,serif" font-size="14.00">module.nvidia_operators</text>
</g>
<g id="clust5" class="cluster">
<title>cluster_module.root.module.slurm</title>
<polygon fill="none" stroke="black" points="2061,-16 2061,-493 2876,-493 2876,-16 2061,-16"/>
<text text-anchor="middle" x="2468.5" y="-475.7" font-family="Times,serif" font-size="14.00">module.slurm</text>
</g>
<g id="clust6" class="cluster">
<title>cluster_module.root.module.slurm.module.monitoring</title>
<polygon fill="none" stroke="black" points="2069,-24 2069,-460.5 2455,-460.5 2455,-24 2069,-24"/>
<text text-anchor="middle" x="2262" y="-443.2" font-family="Times,serif" font-size="14.00">module.monitoring</text>
</g>
<!-- module.root.module.filestore.output.controller_spool -->
<g id="node1" class="node">
<title>module.root.module.filestore.output.controller_spool</title>
<polygon fill="none" stroke="black" points="229.38,-428 92.62,-428 92.62,-392 235.38,-392 235.38,-422 229.38,-428"/>
<polyline fill="none" stroke="black" points="229.38,-428 229.38,-422"/>
<polyline fill="none" stroke="black" points="235.38,-422 229.38,-422"/>
<text text-anchor="middle" x="164" y="-404.95" font-family="Times,serif" font-size="14.00">output.controller_spool</text>
</g>
<!-- module.root.module.filestore.nebius_compute_v1_filesystem.controller_spool -->
<g id="node2" class="node">
<title>module.root.module.filestore.nebius_compute_v1_filesystem.controller_spool</title>
<path fill="none" stroke="black" d="M292.38,-356C292.38,-356 35.62,-356 35.62,-356 29.63,-356 23.62,-350 23.62,-344 23.62,-344 23.62,-332 23.62,-332 23.62,-326 29.62,-320 35.62,-320 35.62,-320 292.38,-320 292.38,-320 298.38,-320 304.38,-326 304.38,-332 304.38,-332 304.38,-344 304.38,-344 304.38,-350 298.38,-356 292.38,-356"/>
<text text-anchor="middle" x="164" y="-332.95" font-family="Times,serif" font-size="14.00">nebius_compute_v1_filesystem.controller_spool</text>
</g>
<!-- module.root.module.filestore.output.controller_spool&#45;&gt;module.root.module.filestore.nebius_compute_v1_filesystem.controller_spool -->
<g id="edge1" class="edge">
<title>module.root.module.filestore.output.controller_spool&#45;&gt;module.root.module.filestore.nebius_compute_v1_filesystem.controller_spool</title>
<path fill="none" stroke="black" d="M164,-391.7C164,-384.41 164,-375.73 164,-367.54"/>
<polygon fill="black" stroke="black" points="167.5,-367.62 164,-357.62 160.5,-367.62 167.5,-367.62"/>
</g>
<!-- module.root.module.filestore.output.jail -->
<g id="node3" class="node">
<title>module.root.module.filestore.output.jail</title>
<polygon fill="none" stroke="black" points="456.75,-428 391.25,-428 391.25,-392 462.75,-392 462.75,-422 456.75,-428"/>
<polyline fill="none" stroke="black" points="456.75,-428 456.75,-422"/>
<polyline fill="none" stroke="black" points="462.75,-422 456.75,-422"/>
<text text-anchor="middle" x="427" y="-404.95" font-family="Times,serif" font-size="14.00">output.jail</text>
</g>
<!-- module.root.module.filestore.nebius_compute_v1_filesystem.jail -->
<g id="node4" class="node">
<title>module.root.module.filestore.nebius_compute_v1_filesystem.jail</title>
<path fill="none" stroke="black" d="M519.75,-356C519.75,-356 334.25,-356 334.25,-356 328.25,-356 322.25,-350 322.25,-344 322.25,-344 322.25,-332 322.25,-332 322.25,-326 328.25,-320 334.25,-320 334.25,-320 519.75,-320 519.75,-320 525.75,-320 531.75,-326 531.75,-332 531.75,-332 531.75,-344 531.75,-344 531.75,-350 525.75,-356 519.75,-356"/>
<text text-anchor="middle" x="427" y="-332.95" font-family="Times,serif" font-size="14.00">nebius_compute_v1_filesystem.jail</text>
</g>
<!-- module.root.module.filestore.output.jail&#45;&gt;module.root.module.filestore.nebius_compute_v1_filesystem.jail -->
<g id="edge2" class="edge">
<title>module.root.module.filestore.output.jail&#45;&gt;module.root.module.filestore.nebius_compute_v1_filesystem.jail</title>
<path fill="none" stroke="black" d="M427,-391.7C427,-384.41 427,-375.73 427,-367.54"/>
<polygon fill="black" stroke="black" points="430.5,-367.62 427,-357.62 423.5,-367.62 430.5,-367.62"/>
</g>
<!-- module.root.module.filestore.output.jail_submounts -->
<g id="node5" class="node">
<title>module.root.module.filestore.output.jail_submounts</title>
<polygon fill="none" stroke="black" points="747.75,-428 616.25,-428 616.25,-392 753.75,-392 753.75,-422 747.75,-428"/>
<polyline fill="none" stroke="black" points="747.75,-428 747.75,-422"/>
<polyline fill="none" stroke="black" points="753.75,-422 747.75,-422"/>
<text text-anchor="middle" x="685" y="-404.95" font-family="Times,serif" font-size="14.00">output.jail_submounts</text>
</g>
<!-- module.root.module.filestore.nebius_compute_v1_filesystem.jail_submount -->
<g id="node6" class="node">
<title>module.root.module.filestore.nebius_compute_v1_filesystem.jail_submount</title>
<path fill="none" stroke="black" d="M808.12,-356C808.12,-356 561.88,-356 561.88,-356 555.88,-356 549.88,-350 549.88,-344 549.88,-344 549.88,-332 549.88,-332 549.88,-326 555.88,-320 561.88,-320 561.88,-320 808.12,-320 808.12,-320 814.12,-320 820.12,-326 820.12,-332 820.12,-332 820.12,-344 820.12,-344 820.12,-350 814.12,-356 808.12,-356"/>
<text text-anchor="middle" x="685" y="-332.95" font-family="Times,serif" font-size="14.00">nebius_compute_v1_filesystem.jail_submount</text>
</g>
<!-- module.root.module.filestore.output.jail_submounts&#45;&gt;module.root.module.filestore.nebius_compute_v1_filesystem.jail_submount -->
<g id="edge3" class="edge">
<title>module.root.module.filestore.output.jail_submounts&#45;&gt;module.root.module.filestore.nebius_compute_v1_filesystem.jail_submount</title>
<path fill="none" stroke="black" d="M685,-391.7C685,-384.41 685,-375.73 685,-367.54"/>
<polygon fill="black" stroke="black" points="688.5,-367.62 685,-357.62 681.5,-367.62 688.5,-367.62"/>
</g>
<!-- module.root.module.k8s.nebius_mk8s_v1_node_group.cpu -->
<g id="node7" class="node">
<title>module.root.module.k8s.nebius_mk8s_v1_node_group.cpu</title>
<path fill="none" stroke="black" d="M1256.38,-428C1256.38,-428 1077.62,-428 1077.62,-428 1071.62,-428 1065.62,-422 1065.62,-416 1065.62,-416 1065.62,-404 1065.62,-404 1065.62,-398 1071.62,-392 1077.62,-392 1077.62,-392 1256.38,-392 1256.38,-392 1262.38,-392 1268.38,-398 1268.38,-404 1268.38,-404 1268.38,-416 1268.38,-416 1268.38,-422 1262.38,-428 1256.38,-428"/>
<text text-anchor="middle" x="1167" y="-404.95" font-family="Times,serif" font-size="14.00">nebius_mk8s_v1_node_group.cpu</text>
</g>
<!-- module.root.module.k8s.nebius_mk8s_v1_cluster.this -->
<g id="node8" class="node">
<title>module.root.module.k8s.nebius_mk8s_v1_cluster.this</title>
<path fill="none" stroke="black" d="M1461.75,-356C1461.75,-356 1312.25,-356 1312.25,-356 1306.25,-356 1300.25,-350 1300.25,-344 1300.25,-344 1300.25,-332 1300.25,-332 1300.25,-326 1306.25,-320 1312.25,-320 1312.25,-320 1461.75,-320 1461.75,-320 1467.75,-320 1473.75,-326 1473.75,-332 1473.75,-332 1473.75,-344 1473.75,-344 1473.75,-350 1467.75,-356 1461.75,-356"/>
<text text-anchor="middle" x="1387" y="-332.95" font-family="Times,serif" font-size="14.00">nebius_mk8s_v1_cluster.this</text>
</g>
<!-- module.root.module.k8s.nebius_mk8s_v1_node_group.cpu&#45;&gt;module.root.module.k8s.nebius_mk8s_v1_cluster.this -->
<g id="edge4" class="edge">
<title>module.root.module.k8s.nebius_mk8s_v1_node_group.cpu&#45;&gt;module.root.module.k8s.nebius_mk8s_v1_cluster.this</title>
<path fill="none" stroke="black" d="M1221.95,-391.52C1252.12,-381.92 1289.73,-369.95 1321.43,-359.86"/>
<polygon fill="black" stroke="black" points="1322.46,-363.21 1330.93,-356.84 1320.34,-356.54 1322.46,-363.21"/>
</g>
<!-- module.root.module.k8s.nebius_mk8s_v1_node_group.gpu -->
<g id="node9" class="node">
<title>module.root.module.k8s.nebius_mk8s_v1_node_group.gpu</title>
<path fill="none" stroke="black" d="M1035.75,-428C1035.75,-428 856.25,-428 856.25,-428 850.25,-428 844.25,-422 844.25,-416 844.25,-416 844.25,-404 844.25,-404 844.25,-398 850.25,-392 856.25,-392 856.25,-392 1035.75,-392 1035.75,-392 1041.75,-392 1047.75,-398 1047.75,-404 1047.75,-404 1047.75,-416 1047.75,-416 1047.75,-422 1041.75,-428 1035.75,-428"/>
<text text-anchor="middle" x="946" y="-404.95" font-family="Times,serif" font-size="14.00">nebius_mk8s_v1_node_group.gpu</text>
</g>
<!-- module.root.module.k8s.nebius_mk8s_v1_node_group.gpu&#45;&gt;module.root.module.k8s.nebius_mk8s_v1_cluster.this -->
<g id="edge6" class="edge">
<title>module.root.module.k8s.nebius_mk8s_v1_node_group.gpu&#45;&gt;module.root.module.k8s.nebius_mk8s_v1_cluster.this</title>
<path fill="none" stroke="black" d="M1048.01,-392.81C1120.45,-381.31 1217.18,-365.96 1288.76,-354.59"/>
<polygon fill="black" stroke="black" points="1289.2,-358.07 1298.53,-353.04 1288.11,-351.15 1289.2,-358.07"/>
</g>
<!-- module.root.module.k8s.nebius_compute_v1_gpu_cluster.this -->
<g id="node10" class="node">
<title>module.root.module.k8s.nebius_compute_v1_gpu_cluster.this</title>
<path fill="none" stroke="black" d="M1049.88,-356C1049.88,-356 856.12,-356 856.12,-356 850.12,-356 844.12,-350 844.12,-344 844.12,-344 844.12,-332 844.12,-332 844.12,-326 850.12,-320 856.12,-320 856.12,-320 1049.88,-320 1049.88,-320 1055.88,-320 1061.88,-326 1061.88,-332 1061.88,-332 1061.88,-344 1061.88,-344 1061.88,-350 1055.88,-356 1049.88,-356"/>
<text text-anchor="middle" x="953" y="-332.95" font-family="Times,serif" font-size="14.00">nebius_compute_v1_gpu_cluster.this</text>
</g>
<!-- module.root.module.k8s.nebius_mk8s_v1_node_group.gpu&#45;&gt;module.root.module.k8s.nebius_compute_v1_gpu_cluster.this -->
<g id="edge5" class="edge">
<title>module.root.module.k8s.nebius_mk8s_v1_node_group.gpu&#45;&gt;module.root.module.k8s.nebius_compute_v1_gpu_cluster.this</title>
<path fill="none" stroke="black" d="M947.73,-391.7C948.46,-384.41 949.33,-375.73 950.15,-367.54"/>
<polygon fill="black" stroke="black" points="953.63,-367.91 951.14,-357.61 946.66,-367.21 953.63,-367.91"/>
</g>
<!-- module.root.module.k8s.nebius_mk8s_v1_node_group.nlb -->
<g id="node11" class="node">
<title>module.root.module.k8s.nebius_mk8s_v1_node_group.nlb</title>
<path fill="none" stroke="black" d="M1475.25,-428C1475.25,-428 1298.75,-428 1298.75,-428 1292.75,-428 1286.75,-422 1286.75,-416 1286.75,-416 1286.75,-404 1286.75,-404 1286.75,-398 1292.75,-392 1298.75,-392 1298.75,-392 1475.25,-392 1475.25,-392 1481.25,-392 1487.25,-398 1487.25,-404 1487.25,-404 1487.25,-416 1487.25,-416 1487.25,-422 1481.25,-428 1475.25,-428"/>
<text text-anchor="middle" x="1387" y="-404.95" font-family="Times,serif" font-size="14.00">nebius_mk8s_v1_node_group.nlb</text>
</g>
<!-- module.root.module.k8s.nebius_mk8s_v1_node_group.nlb&#45;&gt;module.root.module.k8s.nebius_mk8s_v1_cluster.this -->
<g id="edge7" class="edge">
<title>module.root.module.k8s.nebius_mk8s_v1_node_group.nlb&#45;&gt;module.root.module.k8s.nebius_mk8s_v1_cluster.this</title>
<path fill="none" stroke="black" d="M1387,-391.7C1387,-384.41 1387,-375.73 1387,-367.54"/>
<polygon fill="black" stroke="black" points="1390.5,-367.62 1387,-357.62 1383.5,-367.62 1390.5,-367.62"/>
</g>
<!-- module.root.module.k8s.nebius_vpc_v1_allocation.this -->
<g id="node12" class="node">
<title>module.root.module.k8s.nebius_vpc_v1_allocation.this</title>
<path fill="none" stroke="black" d="M1674.5,-428C1674.5,-428 1517.5,-428 1517.5,-428 1511.5,-428 1505.5,-422 1505.5,-416 1505.5,-416 1505.5,-404 1505.5,-404 1505.5,-398 1511.5,-392 1517.5,-392 1517.5,-392 1674.5,-392 1674.5,-392 1680.5,-392 1686.5,-398 1686.5,-404 1686.5,-404 1686.5,-416 1686.5,-416 1686.5,-422 1680.5,-428 1674.5,-428"/>
<text text-anchor="middle" x="1596" y="-404.95" font-family="Times,serif" font-size="14.00">nebius_vpc_v1_allocation.this</text>
</g>
<!-- module.root.module.k8s.nebius_vpc_v1_allocation.this&#45;&gt;module.root.module.k8s.nebius_mk8s_v1_cluster.this -->
<g id="edge8" class="edge">
<title>module.root.module.k8s.nebius_vpc_v1_allocation.this&#45;&gt;module.root.module.k8s.nebius_mk8s_v1_cluster.this</title>
<path fill="none" stroke="black" d="M1543.8,-391.52C1515.26,-381.96 1479.72,-370.05 1449.69,-360"/>
<polygon fill="black" stroke="black" points="1450.93,-356.72 1440.33,-356.86 1448.7,-363.36 1450.93,-356.72"/>
</g>
<!-- module.root.module.k8s.output.control_plane -->
<g id="node13" class="node">
<title>module.root.module.k8s.output.control_plane</title>
<polygon fill="none" stroke="black" points="1827.25,-428 1704.75,-428 1704.75,-392 1833.25,-392 1833.25,-422 1827.25,-428"/>
<polyline fill="none" stroke="black" points="1827.25,-428 1827.25,-422"/>
<polyline fill="none" stroke="black" points="1833.25,-422 1827.25,-422"/>
<text text-anchor="middle" x="1769" y="-404.95" font-family="Times,serif" font-size="14.00">output.control_plane</text>
</g>
<!-- module.root.module.k8s.output.control_plane&#45;&gt;module.root.module.k8s.nebius_mk8s_v1_cluster.this -->
<g id="edge9" class="edge">
<title>module.root.module.k8s.output.control_plane&#45;&gt;module.root.module.k8s.nebius_mk8s_v1_cluster.this</title>
<path fill="none" stroke="black" d="M1704.56,-393.78C1701.67,-393.16 1698.81,-392.57 1696,-392 1625.81,-377.82 1546.15,-364.22 1485.3,-354.34"/>
<polygon fill="black" stroke="black" points="1486.09,-350.93 1475.66,-352.79 1484.97,-357.84 1486.09,-350.93"/>
</g>
<!-- module.root.module.nvidia_operators.helm_release.gpu&#45;operator -->
<g id="node14" class="node">
<title>module.root.module.nvidia_operators.helm_release.gpu&#45;operator</title>
<path fill="none" stroke="black" d="M2019.75,-428C2019.75,-428 1882.25,-428 1882.25,-428 1876.25,-428 1870.25,-422 1870.25,-416 1870.25,-416 1870.25,-404 1870.25,-404 1870.25,-398 1876.25,-392 1882.25,-392 1882.25,-392 2019.75,-392 2019.75,-392 2025.75,-392 2031.75,-398 2031.75,-404 2031.75,-404 2031.75,-416 2031.75,-416 2031.75,-422 2025.75,-428 2019.75,-428"/>
<text text-anchor="middle" x="1951" y="-404.95" font-family="Times,serif" font-size="14.00">helm_release.gpu&#45;operator</text>
</g>
<!-- module.root.module.nvidia_operators.helm_release.network_operator -->
<g id="node15" class="node">
<title>module.root.module.nvidia_operators.helm_release.network_operator</title>
<path fill="none" stroke="black" d="M2032.88,-356C2032.88,-356 1869.12,-356 1869.12,-356 1863.12,-356 1857.12,-350 1857.12,-344 1857.12,-344 1857.12,-332 1857.12,-332 1857.12,-326 1863.12,-320 1869.12,-320 1869.12,-320 2032.88,-320 2032.88,-320 2038.88,-320 2044.88,-326 2044.88,-332 2044.88,-332 2044.88,-344 2044.88,-344 2044.88,-350 2038.88,-356 2032.88,-356"/>
<text text-anchor="middle" x="1951" y="-332.95" font-family="Times,serif" font-size="14.00">helm_release.network_operator</text>
</g>
<!-- module.root.module.nvidia_operators.helm_release.gpu&#45;operator&#45;&gt;module.root.module.nvidia_operators.helm_release.network_operator -->
<g id="edge10" class="edge">
<title>module.root.module.nvidia_operators.helm_release.gpu&#45;operator&#45;&gt;module.root.module.nvidia_operators.helm_release.network_operator</title>
<path fill="none" stroke="black" d="M1951,-391.7C1951,-384.41 1951,-375.73 1951,-367.54"/>
<polygon fill="black" stroke="black" points="1954.5,-367.62 1951,-357.62 1947.5,-367.62 1954.5,-367.62"/>
</g>
<!-- module.root.module.slurm.helm_release.slurm_cluster -->
<g id="node16" class="node">
<title>module.root.module.slurm.helm_release.slurm_cluster</title>
<path fill="none" stroke="black" d="M2745,-428C2745,-428 2603,-428 2603,-428 2597,-428 2591,-422 2591,-416 2591,-416 2591,-404 2591,-404 2591,-398 2597,-392 2603,-392 2603,-392 2745,-392 2745,-392 2751,-392 2757,-398 2757,-404 2757,-404 2757,-416 2757,-416 2757,-422 2751,-428 2745,-428"/>
<text text-anchor="middle" x="2674" y="-404.95" font-family="Times,serif" font-size="14.00">helm_release.slurm_cluster</text>
</g>
<!-- module.root.module.slurm.helm_release.slurm_cluster_storage -->
<g id="node17" class="node">
<title>module.root.module.slurm.helm_release.slurm_cluster_storage</title>
<path fill="none" stroke="black" d="M2662.88,-356C2662.88,-356 2475.12,-356 2475.12,-356 2469.12,-356 2463.12,-350 2463.12,-344 2463.12,-344 2463.12,-332 2463.12,-332 2463.12,-326 2469.12,-320 2475.12,-320 2475.12,-320 2662.88,-320 2662.88,-320 2668.88,-320 2674.88,-326 2674.88,-332 2674.88,-332 2674.88,-344 2674.88,-344 2674.88,-350 2668.88,-356 2662.88,-356"/>
<text text-anchor="middle" x="2569" y="-332.95" font-family="Times,serif" font-size="14.00">helm_release.slurm_cluster_storage</text>
</g>
<!-- module.root.module.slurm.helm_release.slurm_cluster&#45;&gt;module.root.module.slurm.helm_release.slurm_cluster_storage -->
<g id="edge11" class="edge">
<title>module.root.module.slurm.helm_release.slurm_cluster&#45;&gt;module.root.module.slurm.helm_release.slurm_cluster_storage</title>
<path fill="none" stroke="black" d="M2647.77,-391.52C2634.65,-382.76 2618.57,-372.04 2604.36,-362.58"/>
<polygon fill="black" stroke="black" points="2606.41,-359.73 2596.15,-357.1 2602.53,-365.56 2606.41,-359.73"/>
</g>
<!-- module.root.module.slurm.helm_release.slurm_operator -->
<g id="node18" class="node">
<title>module.root.module.slurm.helm_release.slurm_operator</title>
<path fill="none" stroke="black" d="M2855.5,-356C2855.5,-356 2704.5,-356 2704.5,-356 2698.5,-356 2692.5,-350 2692.5,-344 2692.5,-344 2692.5,-332 2692.5,-332 2692.5,-326 2698.5,-320 2704.5,-320 2704.5,-320 2855.5,-320 2855.5,-320 2861.5,-320 2867.5,-326 2867.5,-332 2867.5,-332 2867.5,-344 2867.5,-344 2867.5,-350 2861.5,-356 2855.5,-356"/>
<text text-anchor="middle" x="2780" y="-332.95" font-family="Times,serif" font-size="14.00">helm_release.slurm_operator</text>
</g>
<!-- module.root.module.slurm.helm_release.slurm_cluster&#45;&gt;module.root.module.slurm.helm_release.slurm_operator -->
<g id="edge12" class="edge">
<title>module.root.module.slurm.helm_release.slurm_cluster&#45;&gt;module.root.module.slurm.helm_release.slurm_operator</title>
<path fill="none" stroke="black" d="M2700.47,-391.52C2713.73,-382.76 2729.96,-372.04 2744.3,-362.58"/>
<polygon fill="black" stroke="black" points="2746.18,-365.53 2752.6,-357.09 2742.33,-359.68 2746.18,-365.53"/>
</g>
<!-- module.root.module.slurm.helm_release.slurm_cluster_crd -->
<g id="node19" class="node">
<title>module.root.module.slurm.helm_release.slurm_cluster_crd</title>
<path fill="none" stroke="black" d="M2856,-284C2856,-284 2690,-284 2690,-284 2684,-284 2678,-278 2678,-272 2678,-272 2678,-260 2678,-260 2678,-254 2684,-248 2690,-248 2690,-248 2856,-248 2856,-248 2862,-248 2868,-254 2868,-260 2868,-260 2868,-272 2868,-272 2868,-278 2862,-284 2856,-284"/>
<text text-anchor="middle" x="2773" y="-260.95" font-family="Times,serif" font-size="14.00">helm_release.slurm_cluster_crd</text>
</g>
<!-- module.root.module.slurm.helm_release.slurm_operator&#45;&gt;module.root.module.slurm.helm_release.slurm_cluster_crd -->
<g id="edge13" class="edge">
<title>module.root.module.slurm.helm_release.slurm_operator&#45;&gt;module.root.module.slurm.helm_release.slurm_cluster_crd</title>
<path fill="none" stroke="black" d="M2778.27,-319.7C2777.54,-312.41 2776.67,-303.73 2775.85,-295.54"/>
<polygon fill="black" stroke="black" points="2779.34,-295.21 2774.86,-285.61 2772.37,-295.91 2779.34,-295.21"/>
</g>
<!-- module.root.module.slurm.module.monitoring.helm_release.dashboard -->
<g id="node20" class="node">
<title>module.root.module.slurm.module.monitoring.helm_release.dashboard</title>
<path fill="none" stroke="black" d="M2231.62,-428C2231.62,-428 2108.38,-428 2108.38,-428 2102.38,-428 2096.38,-422 2096.38,-416 2096.38,-416 2096.38,-404 2096.38,-404 2096.38,-398 2102.38,-392 2108.38,-392 2108.38,-392 2231.62,-392 2231.62,-392 2237.62,-392 2243.62,-398 2243.62,-404 2243.62,-404 2243.62,-416 2243.62,-416 2243.62,-422 2237.62,-428 2231.62,-428"/>
<text text-anchor="middle" x="2170" y="-404.95" font-family="Times,serif" font-size="14.00">helm_release.dashboard</text>
</g>
<!-- module.root.module.slurm.module.monitoring.helm_release.fb_logs_collector -->
<g id="node21" class="node">
<title>module.root.module.slurm.module.monitoring.helm_release.fb_logs_collector</title>
<path fill="none" stroke="black" d="M2251.12,-356C2251.12,-356 2088.88,-356 2088.88,-356 2082.88,-356 2076.88,-350 2076.88,-344 2076.88,-344 2076.88,-332 2076.88,-332 2076.88,-326 2082.88,-320 2088.88,-320 2088.88,-320 2251.12,-320 2251.12,-320 2257.12,-320 2263.12,-326 2263.12,-332 2263.12,-332 2263.12,-344 2263.12,-344 2263.12,-350 2257.12,-356 2251.12,-356"/>
<text text-anchor="middle" x="2170" y="-332.95" font-family="Times,serif" font-size="14.00">helm_release.fb_logs_collector</text>
</g>
<!-- module.root.module.slurm.module.monitoring.helm_release.dashboard&#45;&gt;module.root.module.slurm.module.monitoring.helm_release.fb_logs_collector -->
<g id="edge14" class="edge">
<title>module.root.module.slurm.module.monitoring.helm_release.dashboard&#45;&gt;module.root.module.slurm.module.monitoring.helm_release.fb_logs_collector</title>
<path fill="none" stroke="black" d="M2170,-391.7C2170,-384.41 2170,-375.73 2170,-367.54"/>
<polygon fill="black" stroke="black" points="2173.5,-367.62 2170,-357.62 2166.5,-367.62 2173.5,-367.62"/>
</g>
<!-- module.root.module.slurm.module.monitoring.helm_release.vm_logs_server -->
<g id="node22" class="node">
<title>module.root.module.slurm.module.monitoring.helm_release.vm_logs_server</title>
<path fill="none" stroke="black" d="M2243.38,-284C2243.38,-284 2088.62,-284 2088.62,-284 2082.62,-284 2076.62,-278 2076.62,-272 2076.62,-272 2076.62,-260 2076.62,-260 2076.62,-254 2082.62,-248 2088.62,-248 2088.62,-248 2243.38,-248 2243.38,-248 2249.38,-248 2255.38,-254 2255.38,-260 2255.38,-260 2255.38,-272 2255.38,-272 2255.38,-278 2249.38,-284 2243.38,-284"/>
<text text-anchor="middle" x="2166" y="-260.95" font-family="Times,serif" font-size="14.00">helm_release.vm_logs_server</text>
</g>
<!-- module.root.module.slurm.module.monitoring.helm_release.fb_logs_collector&#45;&gt;module.root.module.slurm.module.monitoring.helm_release.vm_logs_server -->
<g id="edge15" class="edge">
<title>module.root.module.slurm.module.monitoring.helm_release.fb_logs_collector&#45;&gt;module.root.module.slurm.module.monitoring.helm_release.vm_logs_server</title>
<path fill="none" stroke="black" d="M2169.01,-319.7C2168.59,-312.41 2168.1,-303.73 2167.63,-295.54"/>
<polygon fill="black" stroke="black" points="2171.13,-295.4 2167.06,-285.62 2164.14,-295.8 2171.13,-295.4"/>
</g>
<!-- module.root.module.slurm.module.monitoring.helm_release.vm_operator -->
<g id="node26" class="node">
<title>module.root.module.slurm.module.monitoring.helm_release.vm_operator</title>
<path fill="none" stroke="black" d="M2330.75,-212C2330.75,-212 2193.25,-212 2193.25,-212 2187.25,-212 2181.25,-206 2181.25,-200 2181.25,-200 2181.25,-188 2181.25,-188 2181.25,-182 2187.25,-176 2193.25,-176 2193.25,-176 2330.75,-176 2330.75,-176 2336.75,-176 2342.75,-182 2342.75,-188 2342.75,-188 2342.75,-200 2342.75,-200 2342.75,-206 2336.75,-212 2330.75,-212"/>
<text text-anchor="middle" x="2262" y="-188.95" font-family="Times,serif" font-size="14.00">helm_release.vm_operator</text>
</g>
<!-- module.root.module.slurm.module.monitoring.helm_release.vm_logs_server&#45;&gt;module.root.module.slurm.module.monitoring.helm_release.vm_operator -->
<g id="edge18" class="edge">
<title>module.root.module.slurm.module.monitoring.helm_release.vm_logs_server&#45;&gt;module.root.module.slurm.module.monitoring.helm_release.vm_operator</title>
<path fill="none" stroke="black" d="M2189.73,-247.7C2201.62,-239.03 2216.19,-228.4 2229.14,-218.96"/>
<polygon fill="black" stroke="black" points="2230.97,-221.96 2236.99,-213.24 2226.84,-216.3 2230.97,-221.96"/>
</g>
<!-- module.root.module.slurm.module.monitoring.helm_release.prometheus_stack -->
<g id="node23" class="node">
<title>module.root.module.slurm.module.monitoring.helm_release.prometheus_stack</title>
<path fill="none" stroke="black" d="M2345,-140C2345,-140 2179,-140 2179,-140 2173,-140 2167,-134 2167,-128 2167,-128 2167,-116 2167,-116 2167,-110 2173,-104 2179,-104 2179,-104 2345,-104 2345,-104 2351,-104 2357,-110 2357,-116 2357,-116 2357,-128 2357,-128 2357,-134 2351,-140 2345,-140"/>
<text text-anchor="middle" x="2262" y="-116.95" font-family="Times,serif" font-size="14.00">helm_release.prometheus_stack</text>
</g>
<!-- module.root.module.slurm.module.monitoring.helm_release.certificate_manager -->
<g id="node24" class="node">
<title>module.root.module.slurm.module.monitoring.helm_release.certificate_manager</title>
<path fill="none" stroke="black" d="M2349.88,-68C2349.88,-68 2174.12,-68 2174.12,-68 2168.12,-68 2162.12,-62 2162.12,-56 2162.12,-56 2162.12,-44 2162.12,-44 2162.12,-38 2168.12,-32 2174.12,-32 2174.12,-32 2349.88,-32 2349.88,-32 2355.88,-32 2361.88,-38 2361.88,-44 2361.88,-44 2361.88,-56 2361.88,-56 2361.88,-62 2355.88,-68 2349.88,-68"/>
<text text-anchor="middle" x="2262" y="-44.95" font-family="Times,serif" font-size="14.00">helm_release.certificate_manager</text>
</g>
<!-- module.root.module.slurm.module.monitoring.helm_release.prometheus_stack&#45;&gt;module.root.module.slurm.module.monitoring.helm_release.certificate_manager -->
<g id="edge16" class="edge">
<title>module.root.module.slurm.module.monitoring.helm_release.prometheus_stack&#45;&gt;module.root.module.slurm.module.monitoring.helm_release.certificate_manager</title>
<path fill="none" stroke="black" d="M2262,-103.7C2262,-96.41 2262,-87.73 2262,-79.54"/>
<polygon fill="black" stroke="black" points="2265.5,-79.62 2262,-69.62 2258.5,-79.62 2265.5,-79.62"/>
</g>
<!-- module.root.module.slurm.module.monitoring.helm_release.slurm_monitor -->
<g id="node25" class="node">
<title>module.root.module.slurm.module.monitoring.helm_release.slurm_monitor</title>
<path fill="none" stroke="black" d="M2434.75,-284C2434.75,-284 2285.25,-284 2285.25,-284 2279.25,-284 2273.25,-278 2273.25,-272 2273.25,-272 2273.25,-260 2273.25,-260 2273.25,-254 2279.25,-248 2285.25,-248 2285.25,-248 2434.75,-248 2434.75,-248 2440.75,-248 2446.75,-254 2446.75,-260 2446.75,-260 2446.75,-272 2446.75,-272 2446.75,-278 2440.75,-284 2434.75,-284"/>
<text text-anchor="middle" x="2360" y="-260.95" font-family="Times,serif" font-size="14.00">helm_release.slurm_monitor</text>
</g>
<!-- module.root.module.slurm.module.monitoring.helm_release.slurm_monitor&#45;&gt;module.root.module.slurm.module.monitoring.helm_release.vm_operator -->
<g id="edge17" class="edge">
<title>module.root.module.slurm.module.monitoring.helm_release.slurm_monitor&#45;&gt;module.root.module.slurm.module.monitoring.helm_release.vm_operator</title>
<path fill="none" stroke="black" d="M2335.52,-247.52C2323.39,-238.85 2308.55,-228.25 2295.39,-218.85"/>
<polygon fill="black" stroke="black" points="2297.57,-216.1 2287.4,-213.14 2293.5,-221.8 2297.57,-216.1"/>
</g>
<!-- module.root.module.slurm.module.monitoring.helm_release.vm_operator&#45;&gt;module.root.module.slurm.module.monitoring.helm_release.prometheus_stack -->
<g id="edge19" class="edge">
<title>module.root.module.slurm.module.monitoring.helm_release.vm_operator&#45;&gt;module.root.module.slurm.module.monitoring.helm_release.prometheus_stack</title>
<path fill="none" stroke="black" d="M2262,-175.7C2262,-168.41 2262,-159.73 2262,-151.54"/>
<polygon fill="black" stroke="black" points="2265.5,-151.62 2262,-141.62 2258.5,-151.62 2265.5,-151.62"/>
</g>
<!-- module.root.data.nebius_iam_v1_project.this -->
<g id="node27" class="node">
<title>module.root.data.nebius_iam_v1_project.this</title>
<path fill="none" stroke="black" d="M3065.5,-428C3065.5,-428 2896.5,-428 2896.5,-428 2890.5,-428 2884.5,-422 2884.5,-416 2884.5,-416 2884.5,-404 2884.5,-404 2884.5,-398 2890.5,-392 2896.5,-392 2896.5,-392 3065.5,-392 3065.5,-392 3071.5,-392 3077.5,-398 3077.5,-404 3077.5,-404 3077.5,-416 3077.5,-416 3077.5,-422 3071.5,-428 3065.5,-428"/>
<text text-anchor="middle" x="2981" y="-404.95" font-family="Times,serif" font-size="14.00">data.nebius_iam_v1_project.this</text>
</g>
<!-- module.root.data.nebius_vpc_v1_subnet.this -->
<g id="node28" class="node">
<title>module.root.data.nebius_vpc_v1_subnet.this</title>
<path fill="none" stroke="black" d="M3272.62,-428C3272.62,-428 3107.38,-428 3107.38,-428 3101.38,-428 3095.38,-422 3095.38,-416 3095.38,-416 3095.38,-404 3095.38,-404 3095.38,-398 3101.38,-392 3107.38,-392 3107.38,-392 3272.62,-392 3272.62,-392 3278.62,-392 3284.62,-398 3284.62,-404 3284.62,-404 3284.62,-416 3284.62,-416 3284.62,-422 3278.62,-428 3272.62,-428"/>
<text text-anchor="middle" x="3190" y="-404.95" font-family="Times,serif" font-size="14.00">data.nebius_vpc_v1_subnet.this</text>
</g>
</g>
</svg>
