<?xml version="1.0" encoding="UTF-8" standalone="no"?>
<!DOCTYPE svg PUBLIC "-//W3C//DTD SVG 1.1//EN"
 "http://www.w3.org/Graphics/SVG/1.1/DTD/svg11.dtd">
<!-- Generated by graphviz version 12.0.0 (20240704.0754)
 -->
<!-- Title: newbius Pages: 1 -->
<svg width="1685pt" height="473pt"
 viewBox="0.00 0.00 1685.00 473.00" xmlns="http://www.w3.org/2000/svg" xmlns:xlink="http://www.w3.org/1999/xlink">
<g id="graph0" class="graph" transform="scale(1 1) rotate(0) translate(4 469)">
<title>newbius</title>
<polygon fill="white" stroke="none" points="-4,4 -4,-469 1681,-469 1681,4 -4,4"/>
<g id="clust1" class="cluster">
<title>cluster_module.root</title>
<polygon fill="none" stroke="black" points="8,-8 8,-457 1669,-457 1669,-8 8,-8"/>
<text text-anchor="middle" x="838.5" y="-439.7" font-family="Times,serif" font-size="14.00">module.root</text>
</g>
<g id="clust2" class="cluster">
<title>cluster_module.root.module.filestore</title>
<polygon fill="none" stroke="black" points="16,-16 16,-164.5 936,-164.5 936,-16 16,-16"/>
<text text-anchor="middle" x="476" y="-147.2" font-family="Times,serif" font-size="14.00">module.filestore</text>
</g>
<!-- module.root.helm_release.gpu&#45;operator -->
<g id="node1" class="node">
<title>module.root.helm_release.gpu&#45;operator</title>
<path fill="none" stroke="black" d="M1221.75,-352.5C1221.75,-352.5 1084.25,-352.5 1084.25,-352.5 1078.25,-352.5 1072.25,-346.5 1072.25,-340.5 1072.25,-340.5 1072.25,-328.5 1072.25,-328.5 1072.25,-322.5 1078.25,-316.5 1084.25,-316.5 1084.25,-316.5 1221.75,-316.5 1221.75,-316.5 1227.75,-316.5 1233.75,-322.5 1233.75,-328.5 1233.75,-328.5 1233.75,-340.5 1233.75,-340.5 1233.75,-346.5 1227.75,-352.5 1221.75,-352.5"/>
<text text-anchor="middle" x="1153" y="-329.45" font-family="Times,serif" font-size="14.00">helm_release.gpu&#45;operator</text>
</g>
<!-- module.root.helm_release.network_operator -->
<g id="node2" class="node">
<title>module.root.helm_release.network_operator</title>
<path fill="none" stroke="black" d="M1283.88,-280.5C1283.88,-280.5 1120.12,-280.5 1120.12,-280.5 1114.12,-280.5 1108.12,-274.5 1108.12,-268.5 1108.12,-268.5 1108.12,-256.5 1108.12,-256.5 1108.12,-250.5 1114.12,-244.5 1120.12,-244.5 1120.12,-244.5 1283.88,-244.5 1283.88,-244.5 1289.88,-244.5 1295.88,-250.5 1295.88,-256.5 1295.88,-256.5 1295.88,-268.5 1295.88,-268.5 1295.88,-274.5 1289.88,-280.5 1283.88,-280.5"/>
<text text-anchor="middle" x="1202" y="-257.45" font-family="Times,serif" font-size="14.00">helm_release.network_operator</text>
</g>
<!-- module.root.helm_release.gpu&#45;operator&#45;&gt;module.root.helm_release.network_operator -->
<g id="edge1" class="edge">
<title>module.root.helm_release.gpu&#45;operator&#45;&gt;module.root.helm_release.network_operator</title>
<path fill="none" stroke="black" d="M1165.11,-316.2C1170.69,-308.23 1177.43,-298.6 1183.62,-289.76"/>
<polygon fill="black" stroke="black" points="1186.29,-292.04 1189.16,-281.84 1180.56,-288.03 1186.29,-292.04"/>
</g>
<!-- module.root.nebius_mk8s_v1alpha1_node_group.cpu -->
<g id="node3" class="node">
<title>module.root.nebius_mk8s_v1alpha1_node_group.cpu</title>
<path fill="none" stroke="black" d="M899.38,-208.5C899.38,-208.5 684.62,-208.5 684.62,-208.5 678.62,-208.5 672.62,-202.5 672.62,-196.5 672.62,-196.5 672.62,-184.5 672.62,-184.5 672.62,-178.5 678.62,-172.5 684.62,-172.5 684.62,-172.5 899.38,-172.5 899.38,-172.5 905.38,-172.5 911.38,-178.5 911.38,-184.5 911.38,-184.5 911.38,-196.5 911.38,-196.5 911.38,-202.5 905.38,-208.5 899.38,-208.5"/>
<text text-anchor="middle" x="792" y="-185.45" font-family="Times,serif" font-size="14.00">nebius_mk8s_v1alpha1_node_group.cpu</text>
</g>
<!-- module.root.helm_release.network_operator&#45;&gt;module.root.nebius_mk8s_v1alpha1_node_group.cpu -->
<g id="edge2" class="edge">
<title>module.root.helm_release.network_operator&#45;&gt;module.root.nebius_mk8s_v1alpha1_node_group.cpu</title>
<path fill="none" stroke="black" d="M1107.68,-245.4C1047.57,-235.13 969.32,-221.77 905.76,-210.92"/>
<polygon fill="black" stroke="black" points="906.42,-207.48 895.97,-209.25 905.24,-214.38 906.42,-207.48"/>
</g>
<!-- module.root.nebius_mk8s_v1alpha1_node_group.gpu -->
<g id="node4" class="node">
<title>module.root.nebius_mk8s_v1alpha1_node_group.gpu</title>
<path fill="none" stroke="black" d="M1156.75,-208.5C1156.75,-208.5 941.25,-208.5 941.25,-208.5 935.25,-208.5 929.25,-202.5 929.25,-196.5 929.25,-196.5 929.25,-184.5 929.25,-184.5 929.25,-178.5 935.25,-172.5 941.25,-172.5 941.25,-172.5 1156.75,-172.5 1156.75,-172.5 1162.75,-172.5 1168.75,-178.5 1168.75,-184.5 1168.75,-184.5 1168.75,-196.5 1168.75,-196.5 1168.75,-202.5 1162.75,-208.5 1156.75,-208.5"/>
<text text-anchor="middle" x="1049" y="-185.45" font-family="Times,serif" font-size="14.00">nebius_mk8s_v1alpha1_node_group.gpu</text>
</g>
<!-- module.root.helm_release.network_operator&#45;&gt;module.root.nebius_mk8s_v1alpha1_node_group.gpu -->
<g id="edge3" class="edge">
<title>module.root.helm_release.network_operator&#45;&gt;module.root.nebius_mk8s_v1alpha1_node_group.gpu</title>
<path fill="none" stroke="black" d="M1163.79,-244.02C1143.63,-234.79 1118.69,-223.39 1097.22,-213.56"/>
<polygon fill="black" stroke="black" points="1098.92,-210.49 1088.37,-209.51 1096.01,-216.85 1098.92,-210.49"/>
</g>
<!-- module.root.module.filestore.output.controller_spool -->
<g id="node9" class="node">
<title>module.root.module.filestore.output.controller_spool</title>
<polygon fill="none" stroke="black" points="446.38,-132 309.62,-132 309.62,-96 452.38,-96 452.38,-126 446.38,-132"/>
<polyline fill="none" stroke="black" points="446.38,-132 446.38,-126"/>
<polyline fill="none" stroke="black" points="452.38,-126 446.38,-126"/>
<text text-anchor="middle" x="381" y="-108.95" font-family="Times,serif" font-size="14.00">output.controller_spool</text>
</g>
<!-- module.root.nebius_mk8s_v1alpha1_node_group.cpu&#45;&gt;module.root.module.filestore.output.controller_spool -->
<g id="edge18" class="edge">
<title>module.root.nebius_mk8s_v1alpha1_node_group.cpu&#45;&gt;module.root.module.filestore.output.controller_spool</title>
<path fill="none" stroke="black" stroke-dasharray="5,2" d="M695.64,-172.03C625.18,-159.26 530.6,-142.12 463.59,-129.97"/>
<polygon fill="black" stroke="black" points="464.62,-126.6 454.16,-128.26 463.37,-133.49 464.62,-126.6"/>
</g>
<!-- module.root.module.filestore.output.jail -->
<g id="node11" class="node">
<title>module.root.module.filestore.output.jail</title>
<polygon fill="none" stroke="black" points="735.75,-132 670.25,-132 670.25,-96 741.75,-96 741.75,-126 735.75,-132"/>
<polyline fill="none" stroke="black" points="735.75,-132 735.75,-126"/>
<polyline fill="none" stroke="black" points="741.75,-126 735.75,-126"/>
<text text-anchor="middle" x="706" y="-108.95" font-family="Times,serif" font-size="14.00">output.jail</text>
</g>
<!-- module.root.nebius_mk8s_v1alpha1_node_group.cpu&#45;&gt;module.root.module.filestore.output.jail -->
<g id="edge19" class="edge">
<title>module.root.nebius_mk8s_v1alpha1_node_group.cpu&#45;&gt;module.root.module.filestore.output.jail</title>
<path fill="none" stroke="black" stroke-dasharray="5,2" d="M761.32,-172.14C757.74,-169.73 754.21,-167.15 751,-164.5 742.45,-157.44 734.02,-148.76 726.81,-140.65"/>
<polygon fill="black" stroke="black" points="729.68,-138.62 720.5,-133.33 724.37,-143.19 729.68,-138.62"/>
</g>
<!-- module.root.module.filestore.output.jail_submount -->
<g id="node13" class="node">
<title>module.root.module.filestore.output.jail_submount</title>
<polygon fill="none" stroke="black" points="886.12,-132 759.88,-132 759.88,-96 892.12,-96 892.12,-126 886.12,-132"/>
<polyline fill="none" stroke="black" points="886.12,-132 886.12,-126"/>
<polyline fill="none" stroke="black" points="892.12,-126 886.12,-126"/>
<text text-anchor="middle" x="826" y="-108.95" font-family="Times,serif" font-size="14.00">output.jail_submount</text>
</g>
<!-- module.root.nebius_mk8s_v1alpha1_node_group.cpu&#45;&gt;module.root.module.filestore.output.jail_submount -->
<g id="edge20" class="edge">
<title>module.root.nebius_mk8s_v1alpha1_node_group.cpu&#45;&gt;module.root.module.filestore.output.jail_submount</title>
<path fill="none" stroke="black" stroke-dasharray="5,2" d="M799.89,-172.22C803.89,-163.45 808.85,-152.57 813.37,-142.67"/>
<polygon fill="black" stroke="black" points="816.44,-144.37 817.41,-133.82 810.07,-141.46 816.44,-144.37"/>
</g>
<!-- module.root.nebius_mk8s_v1alpha1_cluster.this -->
<g id="node17" class="node">
<title>module.root.nebius_mk8s_v1alpha1_cluster.this</title>
<path fill="none" stroke="black" d="M1141.75,-132C1141.75,-132 956.25,-132 956.25,-132 950.25,-132 944.25,-126 944.25,-120 944.25,-120 944.25,-108 944.25,-108 944.25,-102 950.25,-96 956.25,-96 956.25,-96 1141.75,-96 1141.75,-96 1147.75,-96 1153.75,-102 1153.75,-108 1153.75,-108 1153.75,-120 1153.75,-120 1153.75,-126 1147.75,-132 1141.75,-132"/>
<text text-anchor="middle" x="1049" y="-108.95" font-family="Times,serif" font-size="14.00">nebius_mk8s_v1alpha1_cluster.this</text>
</g>
<!-- module.root.nebius_mk8s_v1alpha1_node_group.cpu&#45;&gt;module.root.nebius_mk8s_v1alpha1_cluster.this -->
<g id="edge21" class="edge">
<title>module.root.nebius_mk8s_v1alpha1_node_group.cpu&#45;&gt;module.root.nebius_mk8s_v1alpha1_cluster.this</title>
<path fill="none" stroke="black" d="M911.77,-172.02C921.39,-169.78 930.9,-167.28 940,-164.5 962.57,-157.6 986.58,-147.07 1006.29,-137.5"/>
<polygon fill="black" stroke="black" points="1007.71,-140.71 1015.12,-133.13 1004.6,-134.43 1007.71,-140.71"/>
</g>
<!-- module.root.nebius_mk8s_v1alpha1_node_group.gpu&#45;&gt;module.root.module.filestore.output.jail -->
<g id="edge22" class="edge">
<title>module.root.nebius_mk8s_v1alpha1_node_group.gpu&#45;&gt;module.root.module.filestore.output.jail</title>
<path fill="none" stroke="black" stroke-dasharray="5,2" d="M928.87,-173.33C925.89,-173.04 922.92,-172.76 920,-172.5 901.28,-170.83 768.01,-172.51 751,-164.5 739.97,-159.3 730.41,-150.04 722.98,-140.93"/>
<polygon fill="black" stroke="black" points="726,-139.11 717.19,-133.22 720.4,-143.32 726,-139.11"/>
</g>
<!-- module.root.nebius_mk8s_v1alpha1_node_group.gpu&#45;&gt;module.root.module.filestore.output.jail_submount -->
<g id="edge23" class="edge">
<title>module.root.nebius_mk8s_v1alpha1_node_group.gpu&#45;&gt;module.root.module.filestore.output.jail_submount</title>
<path fill="none" stroke="black" stroke-dasharray="5,2" d="M928.96,-173.08C915.03,-170.36 903.22,-167.46 896,-164.5 881.07,-158.39 866.24,-148.58 854.09,-139.3"/>
<polygon fill="black" stroke="black" points="856.57,-136.79 846.56,-133.32 852.22,-142.28 856.57,-136.79"/>
</g>
<!-- module.root.nebius_compute_v1alpha1_gpu_cluster.this -->
<g id="node15" class="node">
<title>module.root.nebius_compute_v1alpha1_gpu_cluster.this</title>
<path fill="none" stroke="black" d="M1413.88,-132C1413.88,-132 1184.12,-132 1184.12,-132 1178.12,-132 1172.12,-126 1172.12,-120 1172.12,-120 1172.12,-108 1172.12,-108 1172.12,-102 1178.12,-96 1184.12,-96 1184.12,-96 1413.88,-96 1413.88,-96 1419.88,-96 1425.88,-102 1425.88,-108 1425.88,-108 1425.88,-120 1425.88,-120 1425.88,-126 1419.88,-132 1413.88,-132"/>
<text text-anchor="middle" x="1299" y="-108.95" font-family="Times,serif" font-size="14.00">nebius_compute_v1alpha1_gpu_cluster.this</text>
</g>
<!-- module.root.nebius_mk8s_v1alpha1_node_group.gpu&#45;&gt;module.root.nebius_compute_v1alpha1_gpu_cluster.this -->
<g id="edge24" class="edge">
<title>module.root.nebius_mk8s_v1alpha1_node_group.gpu&#45;&gt;module.root.nebius_compute_v1alpha1_gpu_cluster.this</title>
<path fill="none" stroke="black" d="M1134.6,-172.03C1144.22,-169.68 1153.85,-167.15 1163,-164.5 1190.43,-156.54 1220.32,-145.89 1245.07,-136.5"/>
<polygon fill="black" stroke="black" points="1246.2,-139.82 1254.28,-132.98 1243.69,-133.28 1246.2,-139.82"/>
</g>
<!-- module.root.nebius_mk8s_v1alpha1_node_group.gpu&#45;&gt;module.root.nebius_mk8s_v1alpha1_cluster.this -->
<g id="edge25" class="edge">
<title>module.root.nebius_mk8s_v1alpha1_node_group.gpu&#45;&gt;module.root.nebius_mk8s_v1alpha1_cluster.this</title>
<path fill="none" stroke="black" d="M1049,-172.22C1049,-163.82 1049,-153.49 1049,-143.93"/>
<polygon fill="black" stroke="black" points="1052.5,-143.96 1049,-133.96 1045.5,-143.96 1052.5,-143.96"/>
</g>
<!-- module.root.helm_release.slurm_cluster -->
<g id="node5" class="node">
<title>module.root.helm_release.slurm_cluster</title>
<path fill="none" stroke="black" d="M1198,-424.5C1198,-424.5 1056,-424.5 1056,-424.5 1050,-424.5 1044,-418.5 1044,-412.5 1044,-412.5 1044,-400.5 1044,-400.5 1044,-394.5 1050,-388.5 1056,-388.5 1056,-388.5 1198,-388.5 1198,-388.5 1204,-388.5 1210,-394.5 1210,-400.5 1210,-400.5 1210,-412.5 1210,-412.5 1210,-418.5 1204,-424.5 1198,-424.5"/>
<text text-anchor="middle" x="1127" y="-401.45" font-family="Times,serif" font-size="14.00">helm_release.slurm_cluster</text>
</g>
<!-- module.root.helm_release.slurm_cluster&#45;&gt;module.root.helm_release.gpu&#45;operator -->
<g id="edge4" class="edge">
<title>module.root.helm_release.slurm_cluster&#45;&gt;module.root.helm_release.gpu&#45;operator</title>
<path fill="none" stroke="black" d="M1133.43,-388.2C1136.23,-380.65 1139.58,-371.62 1142.72,-363.18"/>
<polygon fill="black" stroke="black" points="1145.92,-364.62 1146.12,-354.02 1139.36,-362.18 1145.92,-364.62"/>
</g>
<!-- module.root.helm_release.slurm_cluster_storage -->
<g id="node6" class="node">
<title>module.root.helm_release.slurm_cluster_storage</title>
<path fill="none" stroke="black" d="M885.88,-280.5C885.88,-280.5 698.12,-280.5 698.12,-280.5 692.12,-280.5 686.12,-274.5 686.12,-268.5 686.12,-268.5 686.12,-256.5 686.12,-256.5 686.12,-250.5 692.12,-244.5 698.12,-244.5 698.12,-244.5 885.88,-244.5 885.88,-244.5 891.88,-244.5 897.88,-250.5 897.88,-256.5 897.88,-256.5 897.88,-268.5 897.88,-268.5 897.88,-274.5 891.88,-280.5 885.88,-280.5"/>
<text text-anchor="middle" x="792" y="-257.45" font-family="Times,serif" font-size="14.00">helm_release.slurm_cluster_storage</text>
</g>
<!-- module.root.helm_release.slurm_cluster&#45;&gt;module.root.helm_release.slurm_cluster_storage -->
<g id="edge5" class="edge">
<title>module.root.helm_release.slurm_cluster&#45;&gt;module.root.helm_release.slurm_cluster_storage</title>
<path fill="none" stroke="black" d="M1085.92,-388.09C1024.81,-362.18 910.02,-313.52 843.41,-285.29"/>
<polygon fill="black" stroke="black" points="845.12,-282.21 834.54,-281.53 842.39,-288.66 845.12,-282.21"/>
</g>
<!-- module.root.helm_release.slurm_operator -->
<g id="node7" class="node">
<title>module.root.helm_release.slurm_operator</title>
<path fill="none" stroke="black" d="M1078.5,-280.5C1078.5,-280.5 927.5,-280.5 927.5,-280.5 921.5,-280.5 915.5,-274.5 915.5,-268.5 915.5,-268.5 915.5,-256.5 915.5,-256.5 915.5,-250.5 921.5,-244.5 927.5,-244.5 927.5,-244.5 1078.5,-244.5 1078.5,-244.5 1084.5,-244.5 1090.5,-250.5 1090.5,-256.5 1090.5,-256.5 1090.5,-268.5 1090.5,-268.5 1090.5,-274.5 1084.5,-280.5 1078.5,-280.5"/>
<text text-anchor="middle" x="1003" y="-257.45" font-family="Times,serif" font-size="14.00">helm_release.slurm_operator</text>
</g>
<!-- module.root.helm_release.slurm_cluster&#45;&gt;module.root.helm_release.slurm_operator -->
<g id="edge6" class="edge">
<title>module.root.helm_release.slurm_cluster&#45;&gt;module.root.helm_release.slurm_operator</title>
<path fill="none" stroke="black" d="M1102.77,-388.1C1090.15,-378.4 1074.91,-365.65 1063,-352.5 1045.77,-333.48 1029.71,-309.16 1018.55,-290.76"/>
<polygon fill="black" stroke="black" points="1021.61,-289.06 1013.5,-282.25 1015.6,-292.63 1021.61,-289.06"/>
</g>
<!-- module.root.nebius_vpc_v1alpha1_allocation.this -->
<g id="node8" class="node">
<title>module.root.nebius_vpc_v1alpha1_allocation.this</title>
<path fill="none" stroke="black" d="M1648.5,-132C1648.5,-132 1455.5,-132 1455.5,-132 1449.5,-132 1443.5,-126 1443.5,-120 1443.5,-120 1443.5,-108 1443.5,-108 1443.5,-102 1449.5,-96 1455.5,-96 1455.5,-96 1648.5,-96 1648.5,-96 1654.5,-96 1660.5,-102 1660.5,-108 1660.5,-108 1660.5,-120 1660.5,-120 1660.5,-126 1654.5,-132 1648.5,-132"/>
<text text-anchor="middle" x="1552" y="-108.95" font-family="Times,serif" font-size="14.00">nebius_vpc_v1alpha1_allocation.this</text>
</g>
<!-- module.root.helm_release.slurm_cluster&#45;&gt;module.root.nebius_vpc_v1alpha1_allocation.this -->
<g id="edge7" class="edge">
<title>module.root.helm_release.slurm_cluster&#45;&gt;module.root.nebius_vpc_v1alpha1_allocation.this</title>
<path fill="none" stroke="black" d="M1171.44,-388C1193.55,-378.6 1220.33,-366.15 1243,-352.5 1354.24,-285.53 1472.33,-185.51 1524.5,-139.62"/>
<polygon fill="black" stroke="black" points="1526.57,-142.46 1531.75,-133.22 1521.94,-137.22 1526.57,-142.46"/>
</g>
<!-- module.root.helm_release.slurm_cluster_storage&#45;&gt;module.root.nebius_mk8s_v1alpha1_node_group.cpu -->
<g id="edge8" class="edge">
<title>module.root.helm_release.slurm_cluster_storage&#45;&gt;module.root.nebius_mk8s_v1alpha1_node_group.cpu</title>
<path fill="none" stroke="black" d="M792,-244.2C792,-236.91 792,-228.23 792,-220.04"/>
<polygon fill="black" stroke="black" points="795.5,-220.12 792,-210.12 788.5,-220.12 795.5,-220.12"/>
</g>
<!-- module.root.helm_release.slurm_cluster_storage&#45;&gt;module.root.nebius_mk8s_v1alpha1_node_group.gpu -->
<g id="edge9" class="edge">
<title>module.root.helm_release.slurm_cluster_storage&#45;&gt;module.root.nebius_mk8s_v1alpha1_node_group.gpu</title>
<path fill="none" stroke="black" d="M856.19,-244.02C892.05,-234.25 936.91,-222.03 974.33,-211.84"/>
<polygon fill="black" stroke="black" points="975,-215.28 983.72,-209.28 973.16,-208.53 975,-215.28"/>
</g>
<!-- module.root.helm_release.slurm_operator&#45;&gt;module.root.nebius_mk8s_v1alpha1_node_group.cpu -->
<g id="edge10" class="edge">
<title>module.root.helm_release.slurm_operator&#45;&gt;module.root.nebius_mk8s_v1alpha1_node_group.cpu</title>
<path fill="none" stroke="black" d="M950.3,-244.02C921.49,-234.46 885.6,-222.55 855.29,-212.5"/>
<polygon fill="black" stroke="black" points="856.42,-209.19 845.83,-209.36 854.22,-215.83 856.42,-209.19"/>
</g>
<!-- module.root.helm_release.slurm_operator&#45;&gt;module.root.nebius_mk8s_v1alpha1_node_group.gpu -->
<g id="edge11" class="edge">
<title>module.root.helm_release.slurm_operator&#45;&gt;module.root.nebius_mk8s_v1alpha1_node_group.gpu</title>
<path fill="none" stroke="black" d="M1014.37,-244.2C1019.55,-236.31 1025.8,-226.8 1031.56,-218.05"/>
<polygon fill="black" stroke="black" points="1034.36,-220.15 1036.93,-209.87 1028.51,-216.3 1034.36,-220.15"/>
</g>
<!-- module.root.data.nebius_iam_v1_project.this -->
<g id="node16" class="node">
<title>module.root.data.nebius_iam_v1_project.this</title>
<path fill="none" stroke="black" d="M1383.5,-60C1383.5,-60 1214.5,-60 1214.5,-60 1208.5,-60 1202.5,-54 1202.5,-48 1202.5,-48 1202.5,-36 1202.5,-36 1202.5,-30 1208.5,-24 1214.5,-24 1214.5,-24 1383.5,-24 1383.5,-24 1389.5,-24 1395.5,-30 1395.5,-36 1395.5,-36 1395.5,-48 1395.5,-48 1395.5,-54 1389.5,-60 1383.5,-60"/>
<text text-anchor="middle" x="1299" y="-36.95" font-family="Times,serif" font-size="14.00">data.nebius_iam_v1_project.this</text>
</g>
<!-- module.root.nebius_vpc_v1alpha1_allocation.this&#45;&gt;module.root.data.nebius_iam_v1_project.this -->
<g id="edge26" class="edge">
<title>module.root.nebius_vpc_v1alpha1_allocation.this&#45;&gt;module.root.data.nebius_iam_v1_project.this</title>
<path fill="none" stroke="black" d="M1488.81,-95.52C1453.51,-85.75 1409.35,-73.53 1372.5,-63.34"/>
<polygon fill="black" stroke="black" points="1373.85,-60.08 1363.28,-60.79 1371.99,-66.83 1373.85,-60.08"/>
</g>
<!-- module.root.data.nebius_vpc_v1alpha1_subnet.this -->
<g id="node18" class="node">
<title>module.root.data.nebius_vpc_v1alpha1_subnet.this</title>
<path fill="none" stroke="black" d="M1166.62,-60C1166.62,-60 965.38,-60 965.38,-60 959.38,-60 953.38,-54 953.38,-48 953.38,-48 953.38,-36 953.38,-36 953.38,-30 959.38,-24 965.38,-24 965.38,-24 1166.62,-24 1166.62,-24 1172.62,-24 1178.62,-30 1178.62,-36 1178.62,-36 1178.62,-48 1178.62,-48 1178.62,-54 1172.62,-60 1166.62,-60"/>
<text text-anchor="middle" x="1066" y="-36.95" font-family="Times,serif" font-size="14.00">data.nebius_vpc_v1alpha1_subnet.this</text>
</g>
<!-- module.root.nebius_vpc_v1alpha1_allocation.this&#45;&gt;module.root.data.nebius_vpc_v1alpha1_subnet.this -->
<g id="edge27" class="edge">
<title>module.root.nebius_vpc_v1alpha1_allocation.this&#45;&gt;module.root.data.nebius_vpc_v1alpha1_subnet.this</title>
<path fill="none" stroke="black" d="M1443.01,-97.16C1440.32,-96.77 1437.64,-96.38 1435,-96 1353.53,-84.23 1261.92,-71.07 1190.36,-60.81"/>
<polygon fill="black" stroke="black" points="1190.95,-57.36 1180.55,-59.4 1189.96,-64.29 1190.95,-57.36"/>
</g>
<!-- module.root.module.filestore.nebius_compute_v1alpha1_filesystem.controller_spool -->
<g id="node10" class="node">
<title>module.root.module.filestore.nebius_compute_v1alpha1_filesystem.controller_spool</title>
<path fill="none" stroke="black" d="M328.38,-60C328.38,-60 35.62,-60 35.62,-60 29.63,-60 23.62,-54 23.62,-48 23.62,-48 23.62,-36 23.62,-36 23.62,-30 29.62,-24 35.62,-24 35.62,-24 328.38,-24 328.38,-24 334.38,-24 340.38,-30 340.38,-36 340.38,-36 340.38,-48 340.38,-48 340.38,-54 334.38,-60 328.38,-60"/>
<text text-anchor="middle" x="182" y="-36.95" font-family="Times,serif" font-size="14.00">nebius_compute_v1alpha1_filesystem.controller_spool</text>
</g>
<!-- module.root.module.filestore.output.controller_spool&#45;&gt;module.root.module.filestore.nebius_compute_v1alpha1_filesystem.controller_spool -->
<g id="edge12" class="edge">
<title>module.root.module.filestore.output.controller_spool&#45;&gt;module.root.module.filestore.nebius_compute_v1alpha1_filesystem.controller_spool</title>
<path fill="none" stroke="black" d="M331.3,-95.52C304.25,-86 270.58,-74.16 242.06,-64.13"/>
<polygon fill="black" stroke="black" points="243.44,-60.9 232.84,-60.88 241.11,-67.5 243.44,-60.9"/>
</g>
<!-- module.root.module.filestore.nebius_compute_v1alpha1_filesystem.jail -->
<g id="node12" class="node">
<title>module.root.module.filestore.nebius_compute_v1alpha1_filesystem.jail</title>
<path fill="none" stroke="black" d="M591.75,-60C591.75,-60 370.25,-60 370.25,-60 364.25,-60 358.25,-54 358.25,-48 358.25,-48 358.25,-36 358.25,-36 358.25,-30 364.25,-24 370.25,-24 370.25,-24 591.75,-24 591.75,-24 597.75,-24 603.75,-30 603.75,-36 603.75,-36 603.75,-48 603.75,-48 603.75,-54 597.75,-60 591.75,-60"/>
<text text-anchor="middle" x="481" y="-36.95" font-family="Times,serif" font-size="14.00">nebius_compute_v1alpha1_filesystem.jail</text>
</g>
<!-- module.root.module.filestore.output.jail&#45;&gt;module.root.module.filestore.nebius_compute_v1alpha1_filesystem.jail -->
<g id="edge13" class="edge">
<title>module.root.module.filestore.output.jail&#45;&gt;module.root.module.filestore.nebius_compute_v1alpha1_filesystem.jail</title>
<path fill="none" stroke="black" d="M669.85,-101.75C636.96,-91.52 587.6,-76.16 547.59,-63.72"/>
<polygon fill="black" stroke="black" points="548.87,-60.45 538.28,-60.82 546.79,-67.13 548.87,-60.45"/>
</g>
<!-- module.root.module.filestore.nebius_compute_v1alpha1_filesystem.jail_submount -->
<g id="node14" class="node">
<title>module.root.module.filestore.nebius_compute_v1alpha1_filesystem.jail_submount</title>
<path fill="none" stroke="black" d="M916.12,-60C916.12,-60 633.88,-60 633.88,-60 627.88,-60 621.88,-54 621.88,-48 621.88,-48 621.88,-36 621.88,-36 621.88,-30 627.88,-24 633.88,-24 633.88,-24 916.12,-24 916.12,-24 922.12,-24 928.12,-30 928.12,-36 928.12,-36 928.12,-48 928.12,-48 928.12,-54 922.12,-60 916.12,-60"/>
<text text-anchor="middle" x="775" y="-36.95" font-family="Times,serif" font-size="14.00">nebius_compute_v1alpha1_filesystem.jail_submount</text>
</g>
<!-- module.root.module.filestore.output.jail_submount&#45;&gt;module.root.module.filestore.nebius_compute_v1alpha1_filesystem.jail_submount -->
<g id="edge14" class="edge">
<title>module.root.module.filestore.output.jail_submount&#45;&gt;module.root.module.filestore.nebius_compute_v1alpha1_filesystem.jail_submount</title>
<path fill="none" stroke="black" d="M813.39,-95.7C807.59,-87.73 800.57,-78.1 794.14,-69.26"/>
<polygon fill="black" stroke="black" points="797.07,-67.35 788.35,-61.33 791.41,-71.47 797.07,-67.35"/>
</g>
<!-- module.root.nebius_compute_v1alpha1_gpu_cluster.this&#45;&gt;module.root.data.nebius_iam_v1_project.this -->
<g id="edge15" class="edge">
<title>module.root.nebius_compute_v1alpha1_gpu_cluster.this&#45;&gt;module.root.data.nebius_iam_v1_project.this</title>
<path fill="none" stroke="black" d="M1299,-95.7C1299,-88.41 1299,-79.73 1299,-71.54"/>
<polygon fill="black" stroke="black" points="1302.5,-71.62 1299,-61.62 1295.5,-71.62 1302.5,-71.62"/>
</g>
<!-- module.root.nebius_mk8s_v1alpha1_cluster.this&#45;&gt;module.root.data.nebius_iam_v1_project.this -->
<g id="edge16" class="edge">
<title>module.root.nebius_mk8s_v1alpha1_cluster.this&#45;&gt;module.root.data.nebius_iam_v1_project.this</title>
<path fill="none" stroke="black" d="M1111.44,-95.52C1146.17,-85.79 1189.59,-73.64 1225.9,-63.47"/>
<polygon fill="black" stroke="black" points="1226.78,-66.86 1235.46,-60.79 1224.89,-60.12 1226.78,-66.86"/>
</g>
<!-- module.root.nebius_mk8s_v1alpha1_cluster.this&#45;&gt;module.root.data.nebius_vpc_v1alpha1_subnet.this -->
<g id="edge17" class="edge">
<title>module.root.nebius_mk8s_v1alpha1_cluster.this&#45;&gt;module.root.data.nebius_vpc_v1alpha1_subnet.this</title>
<path fill="none" stroke="black" d="M1053.2,-95.7C1054.99,-88.32 1057.13,-79.52 1059.14,-71.25"/>
<polygon fill="black" stroke="black" points="1062.53,-72.12 1061.49,-61.58 1055.73,-70.47 1062.53,-72.12"/>
</g>
</g>
</svg>
