<?xml version="1.0" encoding="UTF-8" standalone="no"?>
<!DOCTYPE svg PUBLIC "-//W3C//DTD SVG 1.1//EN"
 "http://www.w3.org/Graphics/SVG/1.1/DTD/svg11.dtd">
<!-- Generated by graphviz version 12.0.0 (20240704.0754)
 -->
<!-- Title: newbius Pages: 1 -->
<svg width="1450pt" height="473pt"
 viewBox="0.00 0.00 1450.00 473.00" xmlns="http://www.w3.org/2000/svg" xmlns:xlink="http://www.w3.org/1999/xlink">
<g id="graph0" class="graph" transform="scale(1 1) rotate(0) translate(4 469)">
<title>newbius</title>
<polygon fill="white" stroke="none" points="-4,4 -4,-469 1446,-469 1446,4 -4,4"/>
<g id="clust1" class="cluster">
<title>cluster_module.root</title>
<polygon fill="none" stroke="black" points="8,-8 8,-457 1434,-457 1434,-8 8,-8"/>
<text text-anchor="middle" x="721" y="-439.7" font-family="Times,serif" font-size="14.00">module.root</text>
</g>
<g id="clust2" class="cluster">
<title>cluster_module.root.module.filestore</title>
<polygon fill="none" stroke="black" points="16,-16 16,-164.5 936,-164.5 936,-16 16,-16"/>
<text text-anchor="middle" x="476" y="-147.2" font-family="Times,serif" font-size="14.00">module.filestore</text>
</g>
<!-- module.root.helm_release.gpu&#45;operator -->
<g id="node1" class="node">
<title>module.root.helm_release.gpu&#45;operator</title>
<path fill="none" stroke="black" d="M969.75,-352.5C969.75,-352.5 832.25,-352.5 832.25,-352.5 826.25,-352.5 820.25,-346.5 820.25,-340.5 820.25,-340.5 820.25,-328.5 820.25,-328.5 820.25,-322.5 826.25,-316.5 832.25,-316.5 832.25,-316.5 969.75,-316.5 969.75,-316.5 975.75,-316.5 981.75,-322.5 981.75,-328.5 981.75,-328.5 981.75,-340.5 981.75,-340.5 981.75,-346.5 975.75,-352.5 969.75,-352.5"/>
<text text-anchor="middle" x="901" y="-329.45" font-family="Times,serif" font-size="14.00">helm_release.gpu&#45;operator</text>
</g>
<!-- module.root.helm_release.network_operator -->
<g id="node2" class="node">
<title>module.root.helm_release.network_operator</title>
<path fill="none" stroke="black" d="M995.88,-280.5C995.88,-280.5 832.12,-280.5 832.12,-280.5 826.12,-280.5 820.12,-274.5 820.12,-268.5 820.12,-268.5 820.12,-256.5 820.12,-256.5 820.12,-250.5 826.12,-244.5 832.12,-244.5 832.12,-244.5 995.88,-244.5 995.88,-244.5 1001.88,-244.5 1007.88,-250.5 1007.88,-256.5 1007.88,-256.5 1007.88,-268.5 1007.88,-268.5 1007.88,-274.5 1001.88,-280.5 995.88,-280.5"/>
<text text-anchor="middle" x="914" y="-257.45" font-family="Times,serif" font-size="14.00">helm_release.network_operator</text>
</g>
<!-- module.root.helm_release.gpu&#45;operator&#45;&gt;module.root.helm_release.network_operator -->
<g id="edge1" class="edge">
<title>module.root.helm_release.gpu&#45;operator&#45;&gt;module.root.helm_release.network_operator</title>
<path fill="none" stroke="black" d="M904.21,-316.2C905.58,-308.82 907.22,-300.02 908.75,-291.75"/>
<polygon fill="black" stroke="black" points="912.16,-292.56 910.55,-282.09 905.28,-291.29 912.16,-292.56"/>
</g>
<!-- module.root.nebius_mk8s_v1alpha1_node_group.cpu -->
<g id="node3" class="node">
<title>module.root.nebius_mk8s_v1alpha1_node_group.cpu</title>
<path fill="none" stroke="black" d="M769.38,-208.5C769.38,-208.5 554.62,-208.5 554.62,-208.5 548.62,-208.5 542.62,-202.5 542.62,-196.5 542.62,-196.5 542.62,-184.5 542.62,-184.5 542.62,-178.5 548.62,-172.5 554.62,-172.5 554.62,-172.5 769.38,-172.5 769.38,-172.5 775.38,-172.5 781.38,-178.5 781.38,-184.5 781.38,-184.5 781.38,-196.5 781.38,-196.5 781.38,-202.5 775.38,-208.5 769.38,-208.5"/>
<text text-anchor="middle" x="662" y="-185.45" font-family="Times,serif" font-size="14.00">nebius_mk8s_v1alpha1_node_group.cpu</text>
</g>
<!-- module.root.helm_release.network_operator&#45;&gt;module.root.nebius_mk8s_v1alpha1_node_group.cpu -->
<g id="edge2" class="edge">
<title>module.root.helm_release.network_operator&#45;&gt;module.root.nebius_mk8s_v1alpha1_node_group.cpu</title>
<path fill="none" stroke="black" d="M851.06,-244.02C815.9,-234.25 771.91,-222.03 735.21,-211.84"/>
<polygon fill="black" stroke="black" points="736.6,-208.59 726.03,-209.29 734.73,-215.34 736.6,-208.59"/>
</g>
<!-- module.root.nebius_mk8s_v1alpha1_node_group.gpu -->
<g id="node4" class="node">
<title>module.root.nebius_mk8s_v1alpha1_node_group.gpu</title>
<path fill="none" stroke="black" d="M1026.75,-208.5C1026.75,-208.5 811.25,-208.5 811.25,-208.5 805.25,-208.5 799.25,-202.5 799.25,-196.5 799.25,-196.5 799.25,-184.5 799.25,-184.5 799.25,-178.5 805.25,-172.5 811.25,-172.5 811.25,-172.5 1026.75,-172.5 1026.75,-172.5 1032.75,-172.5 1038.75,-178.5 1038.75,-184.5 1038.75,-184.5 1038.75,-196.5 1038.75,-196.5 1038.75,-202.5 1032.75,-208.5 1026.75,-208.5"/>
<text text-anchor="middle" x="919" y="-185.45" font-family="Times,serif" font-size="14.00">nebius_mk8s_v1alpha1_node_group.gpu</text>
</g>
<!-- module.root.helm_release.network_operator&#45;&gt;module.root.nebius_mk8s_v1alpha1_node_group.gpu -->
<g id="edge3" class="edge">
<title>module.root.helm_release.network_operator&#45;&gt;module.root.nebius_mk8s_v1alpha1_node_group.gpu</title>
<path fill="none" stroke="black" d="M915.24,-244.2C915.76,-236.91 916.38,-228.23 916.96,-220.04"/>
<polygon fill="black" stroke="black" points="920.45,-220.34 917.67,-210.11 913.47,-219.84 920.45,-220.34"/>
</g>
<!-- module.root.nebius_mk8s_v1alpha1_node_group.nlb -->
<g id="node5" class="node">
<title>module.root.nebius_mk8s_v1alpha1_node_group.nlb</title>
<path fill="none" stroke="black" d="M1281.25,-208.5C1281.25,-208.5 1068.75,-208.5 1068.75,-208.5 1062.75,-208.5 1056.75,-202.5 1056.75,-196.5 1056.75,-196.5 1056.75,-184.5 1056.75,-184.5 1056.75,-178.5 1062.75,-172.5 1068.75,-172.5 1068.75,-172.5 1281.25,-172.5 1281.25,-172.5 1287.25,-172.5 1293.25,-178.5 1293.25,-184.5 1293.25,-184.5 1293.25,-196.5 1293.25,-196.5 1293.25,-202.5 1287.25,-208.5 1281.25,-208.5"/>
<text text-anchor="middle" x="1175" y="-185.45" font-family="Times,serif" font-size="14.00">nebius_mk8s_v1alpha1_node_group.nlb</text>
</g>
<!-- module.root.helm_release.network_operator&#45;&gt;module.root.nebius_mk8s_v1alpha1_node_group.nlb -->
<g id="edge4" class="edge">
<title>module.root.helm_release.network_operator&#45;&gt;module.root.nebius_mk8s_v1alpha1_node_group.nlb</title>
<path fill="none" stroke="black" d="M979.19,-244.02C1015.61,-234.25 1061.17,-222.03 1099.17,-211.84"/>
<polygon fill="black" stroke="black" points="1099.98,-215.24 1108.73,-209.27 1098.16,-208.48 1099.98,-215.24"/>
</g>
<!-- module.root.module.filestore.output.controller_spool -->
<g id="node11" class="node">
<title>module.root.module.filestore.output.controller_spool</title>
<polygon fill="none" stroke="black" points="421.38,-132 284.62,-132 284.62,-96 427.38,-96 427.38,-126 421.38,-132"/>
<polyline fill="none" stroke="black" points="421.38,-132 421.38,-126"/>
<polyline fill="none" stroke="black" points="427.38,-126 421.38,-126"/>
<text text-anchor="middle" x="356" y="-108.95" font-family="Times,serif" font-size="14.00">output.controller_spool</text>
</g>
<!-- module.root.nebius_mk8s_v1alpha1_node_group.cpu&#45;&gt;module.root.module.filestore.output.controller_spool -->
<g id="edge22" class="edge">
<title>module.root.nebius_mk8s_v1alpha1_node_group.cpu&#45;&gt;module.root.module.filestore.output.controller_spool</title>
<path fill="none" stroke="black" stroke-dasharray="5,2" d="M590.26,-172.03C544.96,-161 486.27,-146.72 438.97,-135.2"/>
<polygon fill="black" stroke="black" points="439.84,-131.81 429.29,-132.84 438.18,-138.61 439.84,-131.81"/>
</g>
<!-- module.root.module.filestore.output.jail -->
<g id="node13" class="node">
<title>module.root.module.filestore.output.jail</title>
<polygon fill="none" stroke="black" points="688.75,-132 623.25,-132 623.25,-96 694.75,-96 694.75,-126 688.75,-132"/>
<polyline fill="none" stroke="black" points="688.75,-132 688.75,-126"/>
<polyline fill="none" stroke="black" points="694.75,-126 688.75,-126"/>
<text text-anchor="middle" x="659" y="-108.95" font-family="Times,serif" font-size="14.00">output.jail</text>
</g>
<!-- module.root.nebius_mk8s_v1alpha1_node_group.cpu&#45;&gt;module.root.module.filestore.output.jail -->
<g id="edge23" class="edge">
<title>module.root.nebius_mk8s_v1alpha1_node_group.cpu&#45;&gt;module.root.module.filestore.output.jail</title>
<path fill="none" stroke="black" stroke-dasharray="5,2" d="M661.3,-172.22C660.97,-163.82 660.55,-153.49 660.17,-143.93"/>
<polygon fill="black" stroke="black" points="663.66,-143.81 659.76,-133.96 656.67,-144.09 663.66,-143.81"/>
</g>
<!-- module.root.module.filestore.output.jail_submount -->
<g id="node15" class="node">
<title>module.root.module.filestore.output.jail_submount</title>
<polygon fill="none" stroke="black" points="839.12,-132 712.88,-132 712.88,-96 845.12,-96 845.12,-126 839.12,-132"/>
<polyline fill="none" stroke="black" points="839.12,-132 839.12,-126"/>
<polyline fill="none" stroke="black" points="845.12,-126 839.12,-126"/>
<text text-anchor="middle" x="779" y="-108.95" font-family="Times,serif" font-size="14.00">output.jail_submount</text>
</g>
<!-- module.root.nebius_mk8s_v1alpha1_node_group.cpu&#45;&gt;module.root.module.filestore.output.jail_submount -->
<g id="edge24" class="edge">
<title>module.root.nebius_mk8s_v1alpha1_node_group.cpu&#45;&gt;module.root.module.filestore.output.jail_submount</title>
<path fill="none" stroke="black" stroke-dasharray="5,2" d="M691.48,-172.19C695.7,-169.64 699.97,-167.02 704,-164.5 717.04,-156.32 731.16,-147.1 743.6,-138.85"/>
<polygon fill="black" stroke="black" points="745.52,-141.78 751.9,-133.32 741.64,-135.95 745.52,-141.78"/>
</g>
<!-- module.root.nebius_mk8s_v1alpha1_cluster.this -->
<g id="node19" class="node">
<title>module.root.nebius_mk8s_v1alpha1_cluster.this</title>
<path fill="none" stroke="black" d="M1413.75,-132C1413.75,-132 1228.25,-132 1228.25,-132 1222.25,-132 1216.25,-126 1216.25,-120 1216.25,-120 1216.25,-108 1216.25,-108 1216.25,-102 1222.25,-96 1228.25,-96 1228.25,-96 1413.75,-96 1413.75,-96 1419.75,-96 1425.75,-102 1425.75,-108 1425.75,-108 1425.75,-120 1425.75,-120 1425.75,-126 1419.75,-132 1413.75,-132"/>
<text text-anchor="middle" x="1321" y="-108.95" font-family="Times,serif" font-size="14.00">nebius_mk8s_v1alpha1_cluster.this</text>
</g>
<!-- module.root.nebius_mk8s_v1alpha1_node_group.cpu&#45;&gt;module.root.nebius_mk8s_v1alpha1_cluster.this -->
<g id="edge25" class="edge">
<title>module.root.nebius_mk8s_v1alpha1_node_group.cpu&#45;&gt;module.root.nebius_mk8s_v1alpha1_cluster.this</title>
<path fill="none" stroke="black" d="M781.87,-173.16C784.61,-172.92 787.32,-172.7 790,-172.5 836.21,-169 1161.72,-174.36 1207,-164.5 1232.25,-159 1258.83,-147.81 1279.96,-137.46"/>
<polygon fill="black" stroke="black" points="1281.46,-140.62 1288.82,-133 1278.32,-134.37 1281.46,-140.62"/>
</g>
<!-- module.root.nebius_mk8s_v1alpha1_node_group.gpu&#45;&gt;module.root.module.filestore.output.jail -->
<g id="edge26" class="edge">
<title>module.root.nebius_mk8s_v1alpha1_node_group.gpu&#45;&gt;module.root.module.filestore.output.jail</title>
<path fill="none" stroke="black" stroke-dasharray="5,2" d="M798.85,-173.51C795.87,-173.17 792.92,-172.83 790,-172.5 770.93,-170.36 721.17,-173.07 704,-164.5 693.36,-159.19 684.03,-150.2 676.66,-141.34"/>
<polygon fill="black" stroke="black" points="679.51,-139.3 670.65,-133.49 673.96,-143.56 679.51,-139.3"/>
</g>
<!-- module.root.nebius_mk8s_v1alpha1_node_group.gpu&#45;&gt;module.root.module.filestore.output.jail_submount -->
<g id="edge27" class="edge">
<title>module.root.nebius_mk8s_v1alpha1_node_group.gpu&#45;&gt;module.root.module.filestore.output.jail_submount</title>
<path fill="none" stroke="black" stroke-dasharray="5,2" d="M865.23,-172C859.66,-169.69 854.15,-167.18 849,-164.5 835.35,-157.41 821.31,-147.97 809.42,-139.24"/>
<polygon fill="black" stroke="black" points="811.7,-136.58 801.6,-133.36 807.49,-142.17 811.7,-136.58"/>
</g>
<!-- module.root.nebius_compute_v1alpha1_gpu_cluster.this -->
<g id="node17" class="node">
<title>module.root.nebius_compute_v1alpha1_gpu_cluster.this</title>
<path fill="none" stroke="black" d="M1185.88,-132C1185.88,-132 956.12,-132 956.12,-132 950.12,-132 944.12,-126 944.12,-120 944.12,-120 944.12,-108 944.12,-108 944.12,-102 950.12,-96 956.12,-96 956.12,-96 1185.88,-96 1185.88,-96 1191.88,-96 1197.88,-102 1197.88,-108 1197.88,-108 1197.88,-120 1197.88,-120 1197.88,-126 1191.88,-132 1185.88,-132"/>
<text text-anchor="middle" x="1071" y="-108.95" font-family="Times,serif" font-size="14.00">nebius_compute_v1alpha1_gpu_cluster.this</text>
</g>
<!-- module.root.nebius_mk8s_v1alpha1_node_group.gpu&#45;&gt;module.root.nebius_compute_v1alpha1_gpu_cluster.this -->
<g id="edge28" class="edge">
<title>module.root.nebius_mk8s_v1alpha1_node_group.gpu&#45;&gt;module.root.nebius_compute_v1alpha1_gpu_cluster.this</title>
<path fill="none" stroke="black" d="M954.64,-172.03C975.72,-161.7 1002.63,-148.51 1025.26,-137.42"/>
<polygon fill="black" stroke="black" points="1026.52,-140.7 1033.96,-133.15 1023.44,-134.41 1026.52,-140.7"/>
</g>
<!-- module.root.nebius_mk8s_v1alpha1_node_group.gpu&#45;&gt;module.root.nebius_mk8s_v1alpha1_cluster.this -->
<g id="edge29" class="edge">
<title>module.root.nebius_mk8s_v1alpha1_node_group.gpu&#45;&gt;module.root.nebius_mk8s_v1alpha1_cluster.this</title>
<path fill="none" stroke="black" d="M1039.13,-173.35C1042.12,-173.05 1045.08,-172.77 1048,-172.5 1118.47,-166.09 1138.11,-180.63 1207,-164.5 1231.98,-158.65 1258.35,-147.56 1279.43,-137.35"/>
<polygon fill="black" stroke="black" points="1280.88,-140.54 1288.27,-132.96 1277.76,-134.27 1280.88,-140.54"/>
</g>
<!-- module.root.nebius_mk8s_v1alpha1_node_group.nlb&#45;&gt;module.root.nebius_mk8s_v1alpha1_cluster.this -->
<g id="edge30" class="edge">
<title>module.root.nebius_mk8s_v1alpha1_node_group.nlb&#45;&gt;module.root.nebius_mk8s_v1alpha1_cluster.this</title>
<path fill="none" stroke="black" d="M1209.23,-172.03C1229.29,-161.8 1254.86,-148.75 1276.48,-137.72"/>
<polygon fill="black" stroke="black" points="1278.07,-140.84 1285.38,-133.17 1274.88,-134.6 1278.07,-140.84"/>
</g>
<!-- module.root.helm_release.slurm_cluster -->
<g id="node6" class="node">
<title>module.root.helm_release.slurm_cluster</title>
<path fill="none" stroke="black" d="M1069,-424.5C1069,-424.5 927,-424.5 927,-424.5 921,-424.5 915,-418.5 915,-412.5 915,-412.5 915,-400.5 915,-400.5 915,-394.5 921,-388.5 927,-388.5 927,-388.5 1069,-388.5 1069,-388.5 1075,-388.5 1081,-394.5 1081,-400.5 1081,-400.5 1081,-412.5 1081,-412.5 1081,-418.5 1075,-424.5 1069,-424.5"/>
<text text-anchor="middle" x="998" y="-401.45" font-family="Times,serif" font-size="14.00">helm_release.slurm_cluster</text>
</g>
<!-- module.root.helm_release.slurm_cluster&#45;&gt;module.root.helm_release.gpu&#45;operator -->
<g id="edge5" class="edge">
<title>module.root.helm_release.slurm_cluster&#45;&gt;module.root.helm_release.gpu&#45;operator</title>
<path fill="none" stroke="black" d="M974.02,-388.2C962.01,-379.53 947.28,-368.9 934.21,-359.46"/>
<polygon fill="black" stroke="black" points="936.42,-356.75 926.27,-353.73 932.33,-362.42 936.42,-356.75"/>
</g>
<!-- module.root.helm_release.slurm_cluster_crd -->
<g id="node7" class="node">
<title>module.root.helm_release.slurm_cluster_crd</title>
<path fill="none" stroke="black" d="M1178,-352.5C1178,-352.5 1012,-352.5 1012,-352.5 1006,-352.5 1000,-346.5 1000,-340.5 1000,-340.5 1000,-328.5 1000,-328.5 1000,-322.5 1006,-316.5 1012,-316.5 1012,-316.5 1178,-316.5 1178,-316.5 1184,-316.5 1190,-322.5 1190,-328.5 1190,-328.5 1190,-340.5 1190,-340.5 1190,-346.5 1184,-352.5 1178,-352.5"/>
<text text-anchor="middle" x="1095" y="-329.45" font-family="Times,serif" font-size="14.00">helm_release.slurm_cluster_crd</text>
</g>
<!-- module.root.helm_release.slurm_cluster&#45;&gt;module.root.helm_release.slurm_cluster_crd -->
<g id="edge6" class="edge">
<title>module.root.helm_release.slurm_cluster&#45;&gt;module.root.helm_release.slurm_cluster_crd</title>
<path fill="none" stroke="black" d="M1021.98,-388.2C1033.99,-379.53 1048.72,-368.9 1061.79,-359.46"/>
<polygon fill="black" stroke="black" points="1063.67,-362.42 1069.73,-353.73 1059.58,-356.75 1063.67,-362.42"/>
</g>
<!-- module.root.helm_release.slurm_cluster_storage -->
<g id="node8" class="node">
<title>module.root.helm_release.slurm_cluster_storage</title>
<path fill="none" stroke="black" d="M789.88,-280.5C789.88,-280.5 602.12,-280.5 602.12,-280.5 596.12,-280.5 590.12,-274.5 590.12,-268.5 590.12,-268.5 590.12,-256.5 590.12,-256.5 590.12,-250.5 596.12,-244.5 602.12,-244.5 602.12,-244.5 789.88,-244.5 789.88,-244.5 795.88,-244.5 801.88,-250.5 801.88,-256.5 801.88,-256.5 801.88,-268.5 801.88,-268.5 801.88,-274.5 795.88,-280.5 789.88,-280.5"/>
<text text-anchor="middle" x="696" y="-257.45" font-family="Times,serif" font-size="14.00">helm_release.slurm_cluster_storage</text>
</g>
<!-- module.root.helm_release.slurm_cluster&#45;&gt;module.root.helm_release.slurm_cluster_storage -->
<g id="edge7" class="edge">
<title>module.root.helm_release.slurm_cluster&#45;&gt;module.root.helm_release.slurm_cluster_storage</title>
<path fill="none" stroke="black" d="M914.92,-389.19C881.55,-380.81 843.38,-368.84 811,-352.5 777.52,-335.6 744.18,-308.35 722.08,-288.45"/>
<polygon fill="black" stroke="black" points="724.47,-285.89 714.74,-281.71 719.74,-291.05 724.47,-285.89"/>
</g>
<!-- module.root.nebius_vpc_v1alpha1_allocation.this -->
<g id="node9" class="node">
<title>module.root.nebius_vpc_v1alpha1_allocation.this</title>
<path fill="none" stroke="black" d="M1413.5,-352.5C1413.5,-352.5 1220.5,-352.5 1220.5,-352.5 1214.5,-352.5 1208.5,-346.5 1208.5,-340.5 1208.5,-340.5 1208.5,-328.5 1208.5,-328.5 1208.5,-322.5 1214.5,-316.5 1220.5,-316.5 1220.5,-316.5 1413.5,-316.5 1413.5,-316.5 1419.5,-316.5 1425.5,-322.5 1425.5,-328.5 1425.5,-328.5 1425.5,-340.5 1425.5,-340.5 1425.5,-346.5 1419.5,-352.5 1413.5,-352.5"/>
<text text-anchor="middle" x="1317" y="-329.45" font-family="Times,serif" font-size="14.00">nebius_vpc_v1alpha1_allocation.this</text>
</g>
<!-- module.root.helm_release.slurm_cluster&#45;&gt;module.root.nebius_vpc_v1alpha1_allocation.this -->
<g id="edge8" class="edge">
<title>module.root.helm_release.slurm_cluster&#45;&gt;module.root.nebius_vpc_v1alpha1_allocation.this</title>
<path fill="none" stroke="black" d="M1077.67,-388.02C1122.86,-378.1 1179.57,-365.66 1226.44,-355.37"/>
<polygon fill="black" stroke="black" points="1227.02,-358.83 1236.03,-353.27 1225.52,-351.99 1227.02,-358.83"/>
</g>
<!-- module.root.helm_release.slurm_operator -->
<g id="node10" class="node">
<title>module.root.helm_release.slurm_operator</title>
<path fill="none" stroke="black" d="M1188.5,-280.5C1188.5,-280.5 1037.5,-280.5 1037.5,-280.5 1031.5,-280.5 1025.5,-274.5 1025.5,-268.5 1025.5,-268.5 1025.5,-256.5 1025.5,-256.5 1025.5,-250.5 1031.5,-244.5 1037.5,-244.5 1037.5,-244.5 1188.5,-244.5 1188.5,-244.5 1194.5,-244.5 1200.5,-250.5 1200.5,-256.5 1200.5,-256.5 1200.5,-268.5 1200.5,-268.5 1200.5,-274.5 1194.5,-280.5 1188.5,-280.5"/>
<text text-anchor="middle" x="1113" y="-257.45" font-family="Times,serif" font-size="14.00">helm_release.slurm_operator</text>
</g>
<!-- module.root.helm_release.slurm_cluster_crd&#45;&gt;module.root.helm_release.slurm_operator -->
<g id="edge9" class="edge">
<title>module.root.helm_release.slurm_cluster_crd&#45;&gt;module.root.helm_release.slurm_operator</title>
<path fill="none" stroke="black" d="M1099.45,-316.2C1101.35,-308.82 1103.61,-300.02 1105.74,-291.75"/>
<polygon fill="black" stroke="black" points="1109.12,-292.63 1108.22,-282.07 1102.34,-290.88 1109.12,-292.63"/>
</g>
<!-- module.root.helm_release.slurm_cluster_storage&#45;&gt;module.root.nebius_mk8s_v1alpha1_node_group.cpu -->
<g id="edge10" class="edge">
<title>module.root.helm_release.slurm_cluster_storage&#45;&gt;module.root.nebius_mk8s_v1alpha1_node_group.cpu</title>
<path fill="none" stroke="black" d="M687.6,-244.2C683.89,-236.57 679.44,-227.42 675.31,-218.9"/>
<polygon fill="black" stroke="black" points="678.49,-217.43 670.97,-209.97 672.19,-220.49 678.49,-217.43"/>
</g>
<!-- module.root.helm_release.slurm_cluster_storage&#45;&gt;module.root.nebius_mk8s_v1alpha1_node_group.gpu -->
<g id="edge11" class="edge">
<title>module.root.helm_release.slurm_cluster_storage&#45;&gt;module.root.nebius_mk8s_v1alpha1_node_group.gpu</title>
<path fill="none" stroke="black" d="M751.7,-244.02C782.41,-234.38 820.74,-222.34 852.96,-212.23"/>
<polygon fill="black" stroke="black" points="853.69,-215.67 862.18,-209.34 851.59,-208.99 853.69,-215.67"/>
</g>
<!-- module.root.helm_release.slurm_cluster_storage&#45;&gt;module.root.nebius_mk8s_v1alpha1_node_group.nlb -->
<g id="edge12" class="edge">
<title>module.root.helm_release.slurm_cluster_storage&#45;&gt;module.root.nebius_mk8s_v1alpha1_node_group.nlb</title>
<path fill="none" stroke="black" d="M802.2,-245.79C805.17,-245.36 808.1,-244.92 811,-244.5 888.82,-233.08 976.01,-220.38 1045.54,-210.28"/>
<polygon fill="black" stroke="black" points="1045.66,-213.8 1055.05,-208.9 1044.65,-206.87 1045.66,-213.8"/>
</g>
<!-- module.root.nebius_vpc_v1alpha1_allocation.this&#45;&gt;module.root.nebius_mk8s_v1alpha1_cluster.this -->
<g id="edge31" class="edge">
<title>module.root.nebius_vpc_v1alpha1_allocation.this&#45;&gt;module.root.nebius_mk8s_v1alpha1_cluster.this</title>
<path fill="none" stroke="black" d="M1317.31,-316.35C1318,-278.95 1319.63,-189.7 1320.48,-143.62"/>
<polygon fill="black" stroke="black" points="1323.97,-143.94 1320.65,-133.88 1316.97,-143.82 1323.97,-143.94"/>
</g>
<!-- module.root.helm_release.slurm_operator&#45;&gt;module.root.nebius_mk8s_v1alpha1_node_group.cpu -->
<g id="edge13" class="edge">
<title>module.root.helm_release.slurm_operator&#45;&gt;module.root.nebius_mk8s_v1alpha1_node_group.cpu</title>
<path fill="none" stroke="black" d="M1025.13,-245.84C1022.39,-245.38 1019.67,-244.94 1017,-244.5 942.87,-232.4 859.84,-219.95 792.73,-210.15"/>
<polygon fill="black" stroke="black" points="793.57,-206.74 783.17,-208.76 792.56,-213.67 793.57,-206.74"/>
</g>
<!-- module.root.helm_release.slurm_operator&#45;&gt;module.root.nebius_mk8s_v1alpha1_node_group.gpu -->
<g id="edge14" class="edge">
<title>module.root.helm_release.slurm_operator&#45;&gt;module.root.nebius_mk8s_v1alpha1_node_group.gpu</title>
<path fill="none" stroke="black" d="M1064.55,-244.02C1038.29,-234.54 1005.64,-222.76 977.92,-212.76"/>
<polygon fill="black" stroke="black" points="979.19,-209.5 968.6,-209.4 976.81,-216.08 979.19,-209.5"/>
</g>
<!-- module.root.helm_release.slurm_operator&#45;&gt;module.root.nebius_mk8s_v1alpha1_node_group.nlb -->
<g id="edge15" class="edge">
<title>module.root.helm_release.slurm_operator&#45;&gt;module.root.nebius_mk8s_v1alpha1_node_group.nlb</title>
<path fill="none" stroke="black" d="M1128.33,-244.2C1135.53,-236.06 1144.28,-226.19 1152.24,-217.2"/>
<polygon fill="black" stroke="black" points="1154.84,-219.54 1158.85,-209.74 1149.6,-214.9 1154.84,-219.54"/>
</g>
<!-- module.root.module.filestore.nebius_compute_v1alpha1_filesystem.controller_spool -->
<g id="node12" class="node">
<title>module.root.module.filestore.nebius_compute_v1alpha1_filesystem.controller_spool</title>
<path fill="none" stroke="black" d="M328.38,-60C328.38,-60 35.62,-60 35.62,-60 29.63,-60 23.62,-54 23.62,-48 23.62,-48 23.62,-36 23.62,-36 23.62,-30 29.62,-24 35.62,-24 35.62,-24 328.38,-24 328.38,-24 334.38,-24 340.38,-30 340.38,-36 340.38,-36 340.38,-48 340.38,-48 340.38,-54 334.38,-60 328.38,-60"/>
<text text-anchor="middle" x="182" y="-36.95" font-family="Times,serif" font-size="14.00">nebius_compute_v1alpha1_filesystem.controller_spool</text>
</g>
<!-- module.root.module.filestore.output.controller_spool&#45;&gt;module.root.module.filestore.nebius_compute_v1alpha1_filesystem.controller_spool -->
<g id="edge16" class="edge">
<title>module.root.module.filestore.output.controller_spool&#45;&gt;module.root.module.filestore.nebius_compute_v1alpha1_filesystem.controller_spool</title>
<path fill="none" stroke="black" d="M312.54,-95.52C289.31,-86.17 260.49,-74.57 235.84,-64.66"/>
<polygon fill="black" stroke="black" points="237.19,-61.43 226.61,-60.95 234.58,-67.93 237.19,-61.43"/>
</g>
<!-- module.root.module.filestore.nebius_compute_v1alpha1_filesystem.jail -->
<g id="node14" class="node">
<title>module.root.module.filestore.nebius_compute_v1alpha1_filesystem.jail</title>
<path fill="none" stroke="black" d="M591.75,-60C591.75,-60 370.25,-60 370.25,-60 364.25,-60 358.25,-54 358.25,-48 358.25,-48 358.25,-36 358.25,-36 358.25,-30 364.25,-24 370.25,-24 370.25,-24 591.75,-24 591.75,-24 597.75,-24 603.75,-30 603.75,-36 603.75,-36 603.75,-48 603.75,-48 603.75,-54 597.75,-60 591.75,-60"/>
<text text-anchor="middle" x="481" y="-36.95" font-family="Times,serif" font-size="14.00">nebius_compute_v1alpha1_filesystem.jail</text>
</g>
<!-- module.root.module.filestore.output.jail&#45;&gt;module.root.module.filestore.nebius_compute_v1alpha1_filesystem.jail -->
<g id="edge17" class="edge">
<title>module.root.module.filestore.output.jail&#45;&gt;module.root.module.filestore.nebius_compute_v1alpha1_filesystem.jail</title>
<path fill="none" stroke="black" d="M622.98,-98.83C598.03,-89.02 564.34,-75.77 536.04,-64.65"/>
<polygon fill="black" stroke="black" points="537.49,-61.45 526.9,-61.05 534.92,-67.97 537.49,-61.45"/>
</g>
<!-- module.root.module.filestore.nebius_compute_v1alpha1_filesystem.jail_submount -->
<g id="node16" class="node">
<title>module.root.module.filestore.nebius_compute_v1alpha1_filesystem.jail_submount</title>
<path fill="none" stroke="black" d="M916.12,-60C916.12,-60 633.88,-60 633.88,-60 627.88,-60 621.88,-54 621.88,-48 621.88,-48 621.88,-36 621.88,-36 621.88,-30 627.88,-24 633.88,-24 633.88,-24 916.12,-24 916.12,-24 922.12,-24 928.12,-30 928.12,-36 928.12,-36 928.12,-48 928.12,-48 928.12,-54 922.12,-60 916.12,-60"/>
<text text-anchor="middle" x="775" y="-36.95" font-family="Times,serif" font-size="14.00">nebius_compute_v1alpha1_filesystem.jail_submount</text>
</g>
<!-- module.root.module.filestore.output.jail_submount&#45;&gt;module.root.module.filestore.nebius_compute_v1alpha1_filesystem.jail_submount -->
<g id="edge18" class="edge">
<title>module.root.module.filestore.output.jail_submount&#45;&gt;module.root.module.filestore.nebius_compute_v1alpha1_filesystem.jail_submount</title>
<path fill="none" stroke="black" d="M778.01,-95.7C777.59,-88.41 777.1,-79.73 776.63,-71.54"/>
<polygon fill="black" stroke="black" points="780.13,-71.4 776.06,-61.62 773.14,-71.8 780.13,-71.4"/>
</g>
<!-- module.root.data.nebius_iam_v1_project.this -->
<g id="node18" class="node">
<title>module.root.data.nebius_iam_v1_project.this</title>
<path fill="none" stroke="black" d="M1162.5,-60C1162.5,-60 993.5,-60 993.5,-60 987.5,-60 981.5,-54 981.5,-48 981.5,-48 981.5,-36 981.5,-36 981.5,-30 987.5,-24 993.5,-24 993.5,-24 1162.5,-24 1162.5,-24 1168.5,-24 1174.5,-30 1174.5,-36 1174.5,-36 1174.5,-48 1174.5,-48 1174.5,-54 1168.5,-60 1162.5,-60"/>
<text text-anchor="middle" x="1078" y="-36.95" font-family="Times,serif" font-size="14.00">data.nebius_iam_v1_project.this</text>
</g>
<!-- module.root.nebius_compute_v1alpha1_gpu_cluster.this&#45;&gt;module.root.data.nebius_iam_v1_project.this -->
<g id="edge19" class="edge">
<title>module.root.nebius_compute_v1alpha1_gpu_cluster.this&#45;&gt;module.root.data.nebius_iam_v1_project.this</title>
<path fill="none" stroke="black" d="M1072.73,-95.7C1073.46,-88.41 1074.33,-79.73 1075.15,-71.54"/>
<polygon fill="black" stroke="black" points="1078.63,-71.91 1076.14,-61.61 1071.66,-71.21 1078.63,-71.91"/>
</g>
<!-- module.root.nebius_mk8s_v1alpha1_cluster.this&#45;&gt;module.root.data.nebius_iam_v1_project.this -->
<g id="edge20" class="edge">
<title>module.root.nebius_mk8s_v1alpha1_cluster.this&#45;&gt;module.root.data.nebius_iam_v1_project.this</title>
<path fill="none" stroke="black" d="M1260.31,-95.52C1226.55,-85.79 1184.35,-73.64 1149.05,-63.47"/>
<polygon fill="black" stroke="black" points="1150.37,-60.21 1139.79,-60.8 1148.43,-66.93 1150.37,-60.21"/>
</g>
<!-- module.root.data.nebius_vpc_v1alpha1_subnet.this -->
<g id="node20" class="node">
<title>module.root.data.nebius_vpc_v1alpha1_subnet.this</title>
<path fill="none" stroke="black" d="M1413.62,-60C1413.62,-60 1212.38,-60 1212.38,-60 1206.38,-60 1200.38,-54 1200.38,-48 1200.38,-48 1200.38,-36 1200.38,-36 1200.38,-30 1206.38,-24 1212.38,-24 1212.38,-24 1413.62,-24 1413.62,-24 1419.62,-24 1425.62,-30 1425.62,-36 1425.62,-36 1425.62,-48 1425.62,-48 1425.62,-54 1419.62,-60 1413.62,-60"/>
<text text-anchor="middle" x="1313" y="-36.95" font-family="Times,serif" font-size="14.00">data.nebius_vpc_v1alpha1_subnet.this</text>
</g>
<!-- module.root.nebius_mk8s_v1alpha1_cluster.this&#45;&gt;module.root.data.nebius_vpc_v1alpha1_subnet.this -->
<g id="edge21" class="edge">
<title>module.root.nebius_mk8s_v1alpha1_cluster.this&#45;&gt;module.root.data.nebius_vpc_v1alpha1_subnet.this</title>
<path fill="none" stroke="black" d="M1319.02,-95.7C1318.19,-88.41 1317.2,-79.73 1316.26,-71.54"/>
<polygon fill="black" stroke="black" points="1319.74,-71.15 1315.13,-61.61 1312.78,-71.94 1319.74,-71.15"/>
</g>
</g>
</svg>
