<?xml version="1.0" encoding="UTF-8" standalone="no"?>
<!DOCTYPE svg PUBLIC "-//W3C//DTD SVG 1.1//EN"
 "http://www.w3.org/Graphics/SVG/1.1/DTD/svg11.dtd">
<!-- Generated by graphviz version 12.0.0 (20240704.0754)
 -->
<!-- Title: newbius Pages: 1 -->
<svg width="1299pt" height="473pt"
 viewBox="0.00 0.00 1299.00 473.00" xmlns="http://www.w3.org/2000/svg" xmlns:xlink="http://www.w3.org/1999/xlink">
<g id="graph0" class="graph" transform="scale(1 1) rotate(0) translate(4 469)">
<title>newbius</title>
<polygon fill="white" stroke="none" points="-4,4 -4,-469 1295,-469 1295,4 -4,4"/>
<g id="clust1" class="cluster">
<title>cluster_module.root</title>
<polygon fill="none" stroke="black" points="8,-8 8,-457 1283,-457 1283,-8 8,-8"/>
<text text-anchor="middle" x="645.5" y="-439.7" font-family="Times,serif" font-size="14.00">module.root</text>
</g>
<g id="clust2" class="cluster">
<title>cluster_module.root.module.filestore</title>
<polygon fill="none" stroke="black" points="16,-16 16,-164.5 828,-164.5 828,-16 16,-16"/>
<text text-anchor="middle" x="422" y="-147.2" font-family="Times,serif" font-size="14.00">module.filestore</text>
</g>
<!-- module.root.helm_release.gpu&#45;operator -->
<g id="node1" class="node">
<title>module.root.helm_release.gpu&#45;operator</title>
<path fill="none" stroke="black" d="M910.75,-352.5C910.75,-352.5 773.25,-352.5 773.25,-352.5 767.25,-352.5 761.25,-346.5 761.25,-340.5 761.25,-340.5 761.25,-328.5 761.25,-328.5 761.25,-322.5 767.25,-316.5 773.25,-316.5 773.25,-316.5 910.75,-316.5 910.75,-316.5 916.75,-316.5 922.75,-322.5 922.75,-328.5 922.75,-328.5 922.75,-340.5 922.75,-340.5 922.75,-346.5 916.75,-352.5 910.75,-352.5"/>
<text text-anchor="middle" x="842" y="-329.45" font-family="Times,serif" font-size="14.00">helm_release.gpu&#45;operator</text>
</g>
<!-- module.root.helm_release.network_operator -->
<g id="node2" class="node">
<title>module.root.helm_release.network_operator</title>
<path fill="none" stroke="black" d="M914.88,-280.5C914.88,-280.5 751.12,-280.5 751.12,-280.5 745.12,-280.5 739.12,-274.5 739.12,-268.5 739.12,-268.5 739.12,-256.5 739.12,-256.5 739.12,-250.5 745.12,-244.5 751.12,-244.5 751.12,-244.5 914.88,-244.5 914.88,-244.5 920.88,-244.5 926.88,-250.5 926.88,-256.5 926.88,-256.5 926.88,-268.5 926.88,-268.5 926.88,-274.5 920.88,-280.5 914.88,-280.5"/>
<text text-anchor="middle" x="833" y="-257.45" font-family="Times,serif" font-size="14.00">helm_release.network_operator</text>
</g>
<!-- module.root.helm_release.gpu&#45;operator&#45;&gt;module.root.helm_release.network_operator -->
<g id="edge1" class="edge">
<title>module.root.helm_release.gpu&#45;operator&#45;&gt;module.root.helm_release.network_operator</title>
<path fill="none" stroke="black" d="M839.78,-316.2C838.83,-308.82 837.7,-300.02 836.63,-291.75"/>
<polygon fill="black" stroke="black" points="840.14,-291.58 835.39,-282.11 833.2,-292.47 840.14,-291.58"/>
</g>
<!-- module.root.nebius_mk8s_v1_node_group.cpu -->
<g id="node3" class="node">
<title>module.root.nebius_mk8s_v1_node_group.cpu</title>
<path fill="none" stroke="black" d="M703.38,-208.5C703.38,-208.5 524.62,-208.5 524.62,-208.5 518.62,-208.5 512.62,-202.5 512.62,-196.5 512.62,-196.5 512.62,-184.5 512.62,-184.5 512.62,-178.5 518.62,-172.5 524.62,-172.5 524.62,-172.5 703.38,-172.5 703.38,-172.5 709.38,-172.5 715.38,-178.5 715.38,-184.5 715.38,-184.5 715.38,-196.5 715.38,-196.5 715.38,-202.5 709.38,-208.5 703.38,-208.5"/>
<text text-anchor="middle" x="614" y="-185.45" font-family="Times,serif" font-size="14.00">nebius_mk8s_v1_node_group.cpu</text>
</g>
<!-- module.root.helm_release.network_operator&#45;&gt;module.root.nebius_mk8s_v1_node_group.cpu -->
<g id="edge2" class="edge">
<title>module.root.helm_release.network_operator&#45;&gt;module.root.nebius_mk8s_v1_node_group.cpu</title>
<path fill="none" stroke="black" d="M778.3,-244.02C748.27,-234.42 710.83,-222.45 679.27,-212.36"/>
<polygon fill="black" stroke="black" points="680.41,-209.05 669.82,-209.34 678.28,-215.72 680.41,-209.05"/>
</g>
<!-- module.root.nebius_mk8s_v1_node_group.gpu -->
<g id="node4" class="node">
<title>module.root.nebius_mk8s_v1_node_group.gpu</title>
<path fill="none" stroke="black" d="M924.75,-208.5C924.75,-208.5 745.25,-208.5 745.25,-208.5 739.25,-208.5 733.25,-202.5 733.25,-196.5 733.25,-196.5 733.25,-184.5 733.25,-184.5 733.25,-178.5 739.25,-172.5 745.25,-172.5 745.25,-172.5 924.75,-172.5 924.75,-172.5 930.75,-172.5 936.75,-178.5 936.75,-184.5 936.75,-184.5 936.75,-196.5 936.75,-196.5 936.75,-202.5 930.75,-208.5 924.75,-208.5"/>
<text text-anchor="middle" x="835" y="-185.45" font-family="Times,serif" font-size="14.00">nebius_mk8s_v1_node_group.gpu</text>
</g>
<!-- module.root.helm_release.network_operator&#45;&gt;module.root.nebius_mk8s_v1_node_group.gpu -->
<g id="edge3" class="edge">
<title>module.root.helm_release.network_operator&#45;&gt;module.root.nebius_mk8s_v1_node_group.gpu</title>
<path fill="none" stroke="black" d="M833.49,-244.2C833.7,-236.91 833.95,-228.23 834.18,-220.04"/>
<polygon fill="black" stroke="black" points="837.68,-220.21 834.47,-210.12 830.68,-220.01 837.68,-220.21"/>
</g>
<!-- module.root.nebius_mk8s_v1_node_group.nlb -->
<g id="node5" class="node">
<title>module.root.nebius_mk8s_v1_node_group.nlb</title>
<path fill="none" stroke="black" d="M1143.25,-208.5C1143.25,-208.5 966.75,-208.5 966.75,-208.5 960.75,-208.5 954.75,-202.5 954.75,-196.5 954.75,-196.5 954.75,-184.5 954.75,-184.5 954.75,-178.5 960.75,-172.5 966.75,-172.5 966.75,-172.5 1143.25,-172.5 1143.25,-172.5 1149.25,-172.5 1155.25,-178.5 1155.25,-184.5 1155.25,-184.5 1155.25,-196.5 1155.25,-196.5 1155.25,-202.5 1149.25,-208.5 1143.25,-208.5"/>
<text text-anchor="middle" x="1055" y="-185.45" font-family="Times,serif" font-size="14.00">nebius_mk8s_v1_node_group.nlb</text>
</g>
<!-- module.root.helm_release.network_operator&#45;&gt;module.root.nebius_mk8s_v1_node_group.nlb -->
<g id="edge4" class="edge">
<title>module.root.helm_release.network_operator&#45;&gt;module.root.nebius_mk8s_v1_node_group.nlb</title>
<path fill="none" stroke="black" d="M888.45,-244.02C919.02,-234.38 957.18,-222.34 989.25,-212.23"/>
<polygon fill="black" stroke="black" points="989.95,-215.68 998.43,-209.34 987.84,-209.01 989.95,-215.68"/>
</g>
<!-- module.root.module.filestore.output.controller_spool -->
<g id="node11" class="node">
<title>module.root.module.filestore.output.controller_spool</title>
<polygon fill="none" stroke="black" points="383.38,-132 246.62,-132 246.62,-96 389.38,-96 389.38,-126 383.38,-132"/>
<polyline fill="none" stroke="black" points="383.38,-132 383.38,-126"/>
<polyline fill="none" stroke="black" points="389.38,-126 383.38,-126"/>
<text text-anchor="middle" x="318" y="-108.95" font-family="Times,serif" font-size="14.00">output.controller_spool</text>
</g>
<!-- module.root.nebius_mk8s_v1_node_group.cpu&#45;&gt;module.root.module.filestore.output.controller_spool -->
<g id="edge22" class="edge">
<title>module.root.nebius_mk8s_v1_node_group.cpu&#45;&gt;module.root.module.filestore.output.controller_spool</title>
<path fill="none" stroke="black" stroke-dasharray="5,2" d="M544.6,-172.03C500.87,-161.03 444.25,-146.78 398.55,-135.27"/>
<polygon fill="black" stroke="black" points="399.5,-131.9 388.94,-132.86 397.79,-138.69 399.5,-131.9"/>
</g>
<!-- module.root.module.filestore.output.jail -->
<g id="node13" class="node">
<title>module.root.module.filestore.output.jail</title>
<polygon fill="none" stroke="black" points="619.75,-132 554.25,-132 554.25,-96 625.75,-96 625.75,-126 619.75,-132"/>
<polyline fill="none" stroke="black" points="619.75,-132 619.75,-126"/>
<polyline fill="none" stroke="black" points="625.75,-126 619.75,-126"/>
<text text-anchor="middle" x="590" y="-108.95" font-family="Times,serif" font-size="14.00">output.jail</text>
</g>
<!-- module.root.nebius_mk8s_v1_node_group.cpu&#45;&gt;module.root.module.filestore.output.jail -->
<g id="edge23" class="edge">
<title>module.root.nebius_mk8s_v1_node_group.cpu&#45;&gt;module.root.module.filestore.output.jail</title>
<path fill="none" stroke="black" stroke-dasharray="5,2" d="M608.43,-172.22C605.67,-163.63 602.25,-153.03 599.12,-143.3"/>
<polygon fill="black" stroke="black" points="602.48,-142.33 596.08,-133.88 595.82,-144.48 602.48,-142.33"/>
</g>
<!-- module.root.module.filestore.output.jail_submount -->
<g id="node15" class="node">
<title>module.root.module.filestore.output.jail_submount</title>
<polygon fill="none" stroke="black" points="770.12,-132 643.88,-132 643.88,-96 776.12,-96 776.12,-126 770.12,-132"/>
<polyline fill="none" stroke="black" points="770.12,-132 770.12,-126"/>
<polyline fill="none" stroke="black" points="776.12,-126 770.12,-126"/>
<text text-anchor="middle" x="710" y="-108.95" font-family="Times,serif" font-size="14.00">output.jail_submount</text>
</g>
<!-- module.root.nebius_mk8s_v1_node_group.cpu&#45;&gt;module.root.module.filestore.output.jail_submount -->
<g id="edge24" class="edge">
<title>module.root.nebius_mk8s_v1_node_group.cpu&#45;&gt;module.root.module.filestore.output.jail_submount</title>
<path fill="none" stroke="black" stroke-dasharray="5,2" d="M636.27,-172.22C648.9,-162.42 664.9,-150 678.77,-139.23"/>
<polygon fill="black" stroke="black" points="680.57,-142.27 686.33,-133.37 676.28,-136.74 680.57,-142.27"/>
</g>
<!-- module.root.nebius_mk8s_v1_cluster.this -->
<g id="node19" class="node">
<title>module.root.nebius_mk8s_v1_cluster.this</title>
<path fill="none" stroke="black" d="M1233.75,-132C1233.75,-132 1084.25,-132 1084.25,-132 1078.25,-132 1072.25,-126 1072.25,-120 1072.25,-120 1072.25,-108 1072.25,-108 1072.25,-102 1078.25,-96 1084.25,-96 1084.25,-96 1233.75,-96 1233.75,-96 1239.75,-96 1245.75,-102 1245.75,-108 1245.75,-108 1245.75,-120 1245.75,-120 1245.75,-126 1239.75,-132 1233.75,-132"/>
<text text-anchor="middle" x="1159" y="-108.95" font-family="Times,serif" font-size="14.00">nebius_mk8s_v1_cluster.this</text>
</g>
<!-- module.root.nebius_mk8s_v1_node_group.cpu&#45;&gt;module.root.nebius_mk8s_v1_cluster.this -->
<g id="edge25" class="edge">
<title>module.root.nebius_mk8s_v1_node_group.cpu&#45;&gt;module.root.nebius_mk8s_v1_cluster.this</title>
<path fill="none" stroke="black" d="M715.82,-173.29C718.58,-173 721.31,-172.74 724,-172.5 761.53,-169.17 1026.49,-173.82 1063,-164.5 1084.26,-159.07 1106.15,-148.26 1123.64,-138.13"/>
<polygon fill="black" stroke="black" points="1125.32,-141.2 1132.1,-133.06 1121.72,-135.2 1125.32,-141.2"/>
</g>
<!-- module.root.nebius_mk8s_v1_node_group.gpu&#45;&gt;module.root.module.filestore.output.jail -->
<g id="edge26" class="edge">
<title>module.root.nebius_mk8s_v1_node_group.gpu&#45;&gt;module.root.module.filestore.output.jail</title>
<path fill="none" stroke="black" stroke-dasharray="5,2" d="M732.82,-173.61C729.85,-173.22 726.9,-172.85 724,-172.5 704.29,-170.11 652.78,-173.34 635,-164.5 624.35,-159.21 615.02,-150.22 607.65,-141.35"/>
<polygon fill="black" stroke="black" points="610.5,-139.32 601.64,-133.51 604.95,-143.58 610.5,-139.32"/>
</g>
<!-- module.root.nebius_mk8s_v1_node_group.gpu&#45;&gt;module.root.module.filestore.output.jail_submount -->
<g id="edge27" class="edge">
<title>module.root.nebius_mk8s_v1_node_group.gpu&#45;&gt;module.root.module.filestore.output.jail_submount</title>
<path fill="none" stroke="black" stroke-dasharray="5,2" d="M794.31,-172.06C789.42,-169.66 784.55,-167.11 780,-164.5 766.86,-156.96 753.1,-147.59 741.3,-139.04"/>
<polygon fill="black" stroke="black" points="743.64,-136.42 733.51,-133.3 739.49,-142.05 743.64,-136.42"/>
</g>
<!-- module.root.nebius_compute_v1_gpu_cluster.this -->
<g id="node17" class="node">
<title>module.root.nebius_compute_v1_gpu_cluster.this</title>
<path fill="none" stroke="black" d="M1041.88,-132C1041.88,-132 848.12,-132 848.12,-132 842.12,-132 836.12,-126 836.12,-120 836.12,-120 836.12,-108 836.12,-108 836.12,-102 842.12,-96 848.12,-96 848.12,-96 1041.88,-96 1041.88,-96 1047.88,-96 1053.88,-102 1053.88,-108 1053.88,-108 1053.88,-120 1053.88,-120 1053.88,-126 1047.88,-132 1041.88,-132"/>
<text text-anchor="middle" x="945" y="-108.95" font-family="Times,serif" font-size="14.00">nebius_compute_v1_gpu_cluster.this</text>
</g>
<!-- module.root.nebius_mk8s_v1_node_group.gpu&#45;&gt;module.root.nebius_compute_v1_gpu_cluster.this -->
<g id="edge28" class="edge">
<title>module.root.nebius_mk8s_v1_node_group.gpu&#45;&gt;module.root.nebius_compute_v1_gpu_cluster.this</title>
<path fill="none" stroke="black" d="M860.79,-172.03C875.41,-162.13 893.91,-149.6 909.84,-138.81"/>
<polygon fill="black" stroke="black" points="911.8,-141.71 918.12,-133.21 907.88,-135.92 911.8,-141.71"/>
</g>
<!-- module.root.nebius_mk8s_v1_node_group.gpu&#45;&gt;module.root.nebius_mk8s_v1_cluster.this -->
<g id="edge29" class="edge">
<title>module.root.nebius_mk8s_v1_node_group.gpu&#45;&gt;module.root.nebius_mk8s_v1_cluster.this</title>
<path fill="none" stroke="black" d="M937.17,-173.52C940.15,-173.16 943.09,-172.82 946,-172.5 997.81,-166.77 1012.8,-178.51 1063,-164.5 1083.84,-158.68 1105.39,-148.06 1122.78,-138.14"/>
<polygon fill="black" stroke="black" points="1124.35,-141.28 1131.2,-133.19 1120.8,-135.24 1124.35,-141.28"/>
</g>
<!-- module.root.nebius_mk8s_v1_node_group.nlb&#45;&gt;module.root.nebius_mk8s_v1_cluster.this -->
<g id="edge30" class="edge">
<title>module.root.nebius_mk8s_v1_node_group.nlb&#45;&gt;module.root.nebius_mk8s_v1_cluster.this</title>
<path fill="none" stroke="black" d="M1079.38,-172.03C1093.21,-162.13 1110.69,-149.6 1125.76,-138.81"/>
<polygon fill="black" stroke="black" points="1127.45,-141.91 1133.54,-133.24 1123.37,-136.22 1127.45,-141.91"/>
</g>
<!-- module.root.helm_release.slurm_cluster -->
<g id="node6" class="node">
<title>module.root.helm_release.slurm_cluster</title>
<path fill="none" stroke="black" d="M991,-424.5C991,-424.5 849,-424.5 849,-424.5 843,-424.5 837,-418.5 837,-412.5 837,-412.5 837,-400.5 837,-400.5 837,-394.5 843,-388.5 849,-388.5 849,-388.5 991,-388.5 991,-388.5 997,-388.5 1003,-394.5 1003,-400.5 1003,-400.5 1003,-412.5 1003,-412.5 1003,-418.5 997,-424.5 991,-424.5"/>
<text text-anchor="middle" x="920" y="-401.45" font-family="Times,serif" font-size="14.00">helm_release.slurm_cluster</text>
</g>
<!-- module.root.helm_release.slurm_cluster&#45;&gt;module.root.helm_release.gpu&#45;operator -->
<g id="edge5" class="edge">
<title>module.root.helm_release.slurm_cluster&#45;&gt;module.root.helm_release.gpu&#45;operator</title>
<path fill="none" stroke="black" d="M900.72,-388.2C891.34,-379.78 879.91,-369.52 869.62,-360.29"/>
<polygon fill="black" stroke="black" points="872.24,-357.93 862.46,-353.86 867.56,-363.14 872.24,-357.93"/>
</g>
<!-- module.root.helm_release.slurm_cluster_storage -->
<g id="node7" class="node">
<title>module.root.helm_release.slurm_cluster_storage</title>
<path fill="none" stroke="black" d="M1144.88,-280.5C1144.88,-280.5 957.12,-280.5 957.12,-280.5 951.12,-280.5 945.12,-274.5 945.12,-268.5 945.12,-268.5 945.12,-256.5 945.12,-256.5 945.12,-250.5 951.12,-244.5 957.12,-244.5 957.12,-244.5 1144.88,-244.5 1144.88,-244.5 1150.88,-244.5 1156.88,-250.5 1156.88,-256.5 1156.88,-256.5 1156.88,-268.5 1156.88,-268.5 1156.88,-274.5 1150.88,-280.5 1144.88,-280.5"/>
<text text-anchor="middle" x="1051" y="-257.45" font-family="Times,serif" font-size="14.00">helm_release.slurm_cluster_storage</text>
</g>
<!-- module.root.helm_release.slurm_cluster&#45;&gt;module.root.helm_release.slurm_cluster_storage -->
<g id="edge6" class="edge">
<title>module.root.helm_release.slurm_cluster&#45;&gt;module.root.helm_release.slurm_cluster_storage</title>
<path fill="none" stroke="black" d="M936.06,-388.09C958.97,-363.26 1001.17,-317.51 1027.57,-288.9"/>
<polygon fill="black" stroke="black" points="1029.98,-291.45 1034.19,-281.72 1024.84,-286.7 1029.98,-291.45"/>
</g>
<!-- module.root.helm_release.slurm_operator -->
<g id="node8" class="node">
<title>module.root.helm_release.slurm_operator</title>
<path fill="none" stroke="black" d="M721.5,-352.5C721.5,-352.5 570.5,-352.5 570.5,-352.5 564.5,-352.5 558.5,-346.5 558.5,-340.5 558.5,-340.5 558.5,-328.5 558.5,-328.5 558.5,-322.5 564.5,-316.5 570.5,-316.5 570.5,-316.5 721.5,-316.5 721.5,-316.5 727.5,-316.5 733.5,-322.5 733.5,-328.5 733.5,-328.5 733.5,-340.5 733.5,-340.5 733.5,-346.5 727.5,-352.5 721.5,-352.5"/>
<text text-anchor="middle" x="646" y="-329.45" font-family="Times,serif" font-size="14.00">helm_release.slurm_operator</text>
</g>
<!-- module.root.helm_release.slurm_cluster&#45;&gt;module.root.helm_release.slurm_operator -->
<g id="edge7" class="edge">
<title>module.root.helm_release.slurm_cluster&#45;&gt;module.root.helm_release.slurm_operator</title>
<path fill="none" stroke="black" d="M851.57,-388.02C813.17,-378.21 765.09,-365.93 725.09,-355.71"/>
<polygon fill="black" stroke="black" points="726.06,-352.34 715.5,-353.26 724.33,-359.12 726.06,-352.34"/>
</g>
<!-- module.root.nebius_vpc_v1alpha1_allocation.this -->
<g id="node9" class="node">
<title>module.root.nebius_vpc_v1alpha1_allocation.this</title>
<path fill="none" stroke="black" d="M1252.5,-352.5C1252.5,-352.5 1059.5,-352.5 1059.5,-352.5 1053.5,-352.5 1047.5,-346.5 1047.5,-340.5 1047.5,-340.5 1047.5,-328.5 1047.5,-328.5 1047.5,-322.5 1053.5,-316.5 1059.5,-316.5 1059.5,-316.5 1252.5,-316.5 1252.5,-316.5 1258.5,-316.5 1264.5,-322.5 1264.5,-328.5 1264.5,-328.5 1264.5,-340.5 1264.5,-340.5 1264.5,-346.5 1258.5,-352.5 1252.5,-352.5"/>
<text text-anchor="middle" x="1156" y="-329.45" font-family="Times,serif" font-size="14.00">nebius_vpc_v1alpha1_allocation.this</text>
</g>
<!-- module.root.helm_release.slurm_cluster&#45;&gt;module.root.nebius_vpc_v1alpha1_allocation.this -->
<g id="edge8" class="edge">
<title>module.root.helm_release.slurm_cluster&#45;&gt;module.root.nebius_vpc_v1alpha1_allocation.this</title>
<path fill="none" stroke="black" d="M978.94,-388.02C1011.59,-378.33 1052.36,-366.24 1086.55,-356.1"/>
<polygon fill="black" stroke="black" points="1087.36,-359.51 1095.95,-353.31 1085.37,-352.8 1087.36,-359.51"/>
</g>
<!-- module.root.helm_release.slurm_cluster_storage&#45;&gt;module.root.nebius_mk8s_v1_node_group.cpu -->
<g id="edge12" class="edge">
<title>module.root.helm_release.slurm_cluster_storage&#45;&gt;module.root.nebius_mk8s_v1_node_group.cpu</title>
<path fill="none" stroke="black" d="M944.66,-244.47C878.6,-233.89 793.79,-220.3 726.6,-209.54"/>
<polygon fill="black" stroke="black" points="727.47,-206.13 717.04,-208.01 726.36,-213.04 727.47,-206.13"/>
</g>
<!-- module.root.helm_release.slurm_cluster_storage&#45;&gt;module.root.nebius_mk8s_v1_node_group.gpu -->
<g id="edge13" class="edge">
<title>module.root.helm_release.slurm_cluster_storage&#45;&gt;module.root.nebius_mk8s_v1_node_group.gpu</title>
<path fill="none" stroke="black" d="M997.05,-244.02C967.43,-234.42 930.5,-222.45 899.38,-212.36"/>
<polygon fill="black" stroke="black" points="900.67,-209.1 890.07,-209.35 898.51,-215.76 900.67,-209.1"/>
</g>
<!-- module.root.helm_release.slurm_cluster_storage&#45;&gt;module.root.nebius_mk8s_v1_node_group.nlb -->
<g id="edge14" class="edge">
<title>module.root.helm_release.slurm_cluster_storage&#45;&gt;module.root.nebius_mk8s_v1_node_group.nlb</title>
<path fill="none" stroke="black" d="M1051.99,-244.2C1052.41,-236.91 1052.9,-228.23 1053.37,-220.04"/>
<polygon fill="black" stroke="black" points="1056.86,-220.3 1053.94,-210.12 1049.87,-219.9 1056.86,-220.3"/>
</g>
<!-- module.root.helm_release.slurm_cluster_crd -->
<g id="node10" class="node">
<title>module.root.helm_release.slurm_cluster_crd</title>
<path fill="none" stroke="black" d="M709,-280.5C709,-280.5 543,-280.5 543,-280.5 537,-280.5 531,-274.5 531,-268.5 531,-268.5 531,-256.5 531,-256.5 531,-250.5 537,-244.5 543,-244.5 543,-244.5 709,-244.5 709,-244.5 715,-244.5 721,-250.5 721,-256.5 721,-256.5 721,-268.5 721,-268.5 721,-274.5 715,-280.5 709,-280.5"/>
<text text-anchor="middle" x="626" y="-257.45" font-family="Times,serif" font-size="14.00">helm_release.slurm_cluster_crd</text>
</g>
<!-- module.root.helm_release.slurm_operator&#45;&gt;module.root.helm_release.slurm_cluster_crd -->
<g id="edge15" class="edge">
<title>module.root.helm_release.slurm_operator&#45;&gt;module.root.helm_release.slurm_cluster_crd</title>
<path fill="none" stroke="black" d="M641.06,-316.2C638.92,-308.74 636.38,-299.82 633.99,-291.47"/>
<polygon fill="black" stroke="black" points="637.42,-290.71 631.3,-282.06 630.68,-292.64 637.42,-290.71"/>
</g>
<!-- module.root.nebius_vpc_v1alpha1_allocation.this&#45;&gt;module.root.nebius_mk8s_v1_cluster.this -->
<g id="edge31" class="edge">
<title>module.root.nebius_vpc_v1alpha1_allocation.this&#45;&gt;module.root.nebius_mk8s_v1_cluster.this</title>
<path fill="none" stroke="black" d="M1160.06,-316.43C1162.31,-306.1 1164.87,-292.62 1166,-280.5 1170.48,-232.56 1166.11,-176.53 1162.54,-143.5"/>
<polygon fill="black" stroke="black" points="1166.06,-143.48 1161.46,-133.94 1159.11,-144.27 1166.06,-143.48"/>
</g>
<!-- module.root.helm_release.slurm_cluster_crd&#45;&gt;module.root.nebius_mk8s_v1_node_group.cpu -->
<g id="edge9" class="edge">
<title>module.root.helm_release.slurm_cluster_crd&#45;&gt;module.root.nebius_mk8s_v1_node_group.cpu</title>
<path fill="none" stroke="black" d="M623.03,-244.2C621.77,-236.82 620.26,-228.02 618.84,-219.75"/>
<polygon fill="black" stroke="black" points="622.33,-219.36 617.19,-210.1 615.43,-220.54 622.33,-219.36"/>
</g>
<!-- module.root.helm_release.slurm_cluster_crd&#45;&gt;module.root.nebius_mk8s_v1_node_group.gpu -->
<g id="edge10" class="edge">
<title>module.root.helm_release.slurm_cluster_crd&#45;&gt;module.root.nebius_mk8s_v1_node_group.gpu</title>
<path fill="none" stroke="black" d="M678.2,-244.02C706.74,-234.46 742.28,-222.55 772.31,-212.5"/>
<polygon fill="black" stroke="black" points="773.3,-215.86 781.67,-209.36 771.07,-209.22 773.3,-215.86"/>
</g>
<!-- module.root.helm_release.slurm_cluster_crd&#45;&gt;module.root.nebius_mk8s_v1_node_group.nlb -->
<g id="edge11" class="edge">
<title>module.root.helm_release.slurm_cluster_crd&#45;&gt;module.root.nebius_mk8s_v1_node_group.nlb</title>
<path fill="none" stroke="black" d="M721.49,-245.89C724.36,-245.42 727.2,-244.96 730,-244.5 800.92,-232.92 880.56,-219.93 943.25,-209.71"/>
<polygon fill="black" stroke="black" points="943.55,-213.21 952.85,-208.15 942.42,-206.3 943.55,-213.21"/>
</g>
<!-- module.root.module.filestore.nebius_compute_v1_filesystem.controller_spool -->
<g id="node12" class="node">
<title>module.root.module.filestore.nebius_compute_v1_filesystem.controller_spool</title>
<path fill="none" stroke="black" d="M292.38,-60C292.38,-60 35.62,-60 35.62,-60 29.63,-60 23.62,-54 23.62,-48 23.62,-48 23.62,-36 23.62,-36 23.62,-30 29.62,-24 35.62,-24 35.62,-24 292.38,-24 292.38,-24 298.38,-24 304.38,-30 304.38,-36 304.38,-36 304.38,-48 304.38,-48 304.38,-54 298.38,-60 292.38,-60"/>
<text text-anchor="middle" x="164" y="-36.95" font-family="Times,serif" font-size="14.00">nebius_compute_v1_filesystem.controller_spool</text>
</g>
<!-- module.root.module.filestore.output.controller_spool&#45;&gt;module.root.module.filestore.nebius_compute_v1_filesystem.controller_spool -->
<g id="edge16" class="edge">
<title>module.root.module.filestore.output.controller_spool&#45;&gt;module.root.module.filestore.nebius_compute_v1_filesystem.controller_spool</title>
<path fill="none" stroke="black" d="M279.54,-95.52C259.25,-86.29 234.15,-74.89 212.53,-65.06"/>
<polygon fill="black" stroke="black" points="214.17,-61.96 203.62,-61.01 211.27,-68.33 214.17,-61.96"/>
</g>
<!-- module.root.module.filestore.nebius_compute_v1_filesystem.jail -->
<g id="node14" class="node">
<title>module.root.module.filestore.nebius_compute_v1_filesystem.jail</title>
<path fill="none" stroke="black" d="M519.75,-60C519.75,-60 334.25,-60 334.25,-60 328.25,-60 322.25,-54 322.25,-48 322.25,-48 322.25,-36 322.25,-36 322.25,-30 328.25,-24 334.25,-24 334.25,-24 519.75,-24 519.75,-24 525.75,-24 531.75,-30 531.75,-36 531.75,-36 531.75,-48 531.75,-48 531.75,-54 525.75,-60 519.75,-60"/>
<text text-anchor="middle" x="427" y="-36.95" font-family="Times,serif" font-size="14.00">nebius_compute_v1_filesystem.jail</text>
</g>
<!-- module.root.module.filestore.output.jail&#45;&gt;module.root.module.filestore.nebius_compute_v1_filesystem.jail -->
<g id="edge17" class="edge">
<title>module.root.module.filestore.output.jail&#45;&gt;module.root.module.filestore.nebius_compute_v1_filesystem.jail</title>
<path fill="none" stroke="black" d="M553.83,-97.46C531.5,-87.88 502.53,-75.44 477.91,-64.86"/>
<polygon fill="black" stroke="black" points="479.62,-61.79 469.05,-61.06 476.86,-68.22 479.62,-61.79"/>
</g>
<!-- module.root.module.filestore.nebius_compute_v1_filesystem.jail_submount -->
<g id="node16" class="node">
<title>module.root.module.filestore.nebius_compute_v1_filesystem.jail_submount</title>
<path fill="none" stroke="black" d="M808.12,-60C808.12,-60 561.88,-60 561.88,-60 555.88,-60 549.88,-54 549.88,-48 549.88,-48 549.88,-36 549.88,-36 549.88,-30 555.88,-24 561.88,-24 561.88,-24 808.12,-24 808.12,-24 814.12,-24 820.12,-30 820.12,-36 820.12,-36 820.12,-48 820.12,-48 820.12,-54 814.12,-60 808.12,-60"/>
<text text-anchor="middle" x="685" y="-36.95" font-family="Times,serif" font-size="14.00">nebius_compute_v1_filesystem.jail_submount</text>
</g>
<!-- module.root.module.filestore.output.jail_submount&#45;&gt;module.root.module.filestore.nebius_compute_v1_filesystem.jail_submount -->
<g id="edge18" class="edge">
<title>module.root.module.filestore.output.jail_submount&#45;&gt;module.root.module.filestore.nebius_compute_v1_filesystem.jail_submount</title>
<path fill="none" stroke="black" d="M703.82,-95.7C701.13,-88.15 697.9,-79.12 694.89,-70.68"/>
<polygon fill="black" stroke="black" points="698.28,-69.77 691.62,-61.53 691.69,-72.12 698.28,-69.77"/>
</g>
<!-- module.root.data.nebius_iam_v1_project.this -->
<g id="node18" class="node">
<title>module.root.data.nebius_iam_v1_project.this</title>
<path fill="none" stroke="black" d="M1019.5,-60C1019.5,-60 850.5,-60 850.5,-60 844.5,-60 838.5,-54 838.5,-48 838.5,-48 838.5,-36 838.5,-36 838.5,-30 844.5,-24 850.5,-24 850.5,-24 1019.5,-24 1019.5,-24 1025.5,-24 1031.5,-30 1031.5,-36 1031.5,-36 1031.5,-48 1031.5,-48 1031.5,-54 1025.5,-60 1019.5,-60"/>
<text text-anchor="middle" x="935" y="-36.95" font-family="Times,serif" font-size="14.00">data.nebius_iam_v1_project.this</text>
</g>
<!-- module.root.nebius_compute_v1_gpu_cluster.this&#45;&gt;module.root.data.nebius_iam_v1_project.this -->
<g id="edge19" class="edge">
<title>module.root.nebius_compute_v1_gpu_cluster.this&#45;&gt;module.root.data.nebius_iam_v1_project.this</title>
<path fill="none" stroke="black" d="M942.53,-95.7C941.47,-88.32 940.22,-79.52 939.04,-71.25"/>
<polygon fill="black" stroke="black" points="942.54,-71.01 937.66,-61.6 935.61,-72 942.54,-71.01"/>
</g>
<!-- module.root.nebius_mk8s_v1_cluster.this&#45;&gt;module.root.data.nebius_iam_v1_project.this -->
<g id="edge20" class="edge">
<title>module.root.nebius_mk8s_v1_cluster.this&#45;&gt;module.root.data.nebius_iam_v1_project.this</title>
<path fill="none" stroke="black" d="M1103.05,-95.52C1072.2,-85.88 1033.7,-73.84 1001.34,-63.73"/>
<polygon fill="black" stroke="black" points="1002.65,-60.48 992.07,-60.83 1000.57,-67.16 1002.65,-60.48"/>
</g>
<!-- module.root.data.nebius_vpc_v1alpha1_subnet.this -->
<g id="node20" class="node">
<title>module.root.data.nebius_vpc_v1alpha1_subnet.this</title>
<path fill="none" stroke="black" d="M1262.62,-60C1262.62,-60 1061.38,-60 1061.38,-60 1055.38,-60 1049.38,-54 1049.38,-48 1049.38,-48 1049.38,-36 1049.38,-36 1049.38,-30 1055.38,-24 1061.38,-24 1061.38,-24 1262.62,-24 1262.62,-24 1268.62,-24 1274.62,-30 1274.62,-36 1274.62,-36 1274.62,-48 1274.62,-48 1274.62,-54 1268.62,-60 1262.62,-60"/>
<text text-anchor="middle" x="1162" y="-36.95" font-family="Times,serif" font-size="14.00">data.nebius_vpc_v1alpha1_subnet.this</text>
</g>
<!-- module.root.nebius_mk8s_v1_cluster.this&#45;&gt;module.root.data.nebius_vpc_v1alpha1_subnet.this -->
<g id="edge21" class="edge">
<title>module.root.nebius_mk8s_v1_cluster.this&#45;&gt;module.root.data.nebius_vpc_v1alpha1_subnet.this</title>
<path fill="none" stroke="black" d="M1159.74,-95.7C1160.05,-88.41 1160.43,-79.73 1160.78,-71.54"/>
<polygon fill="black" stroke="black" points="1164.27,-71.76 1161.2,-61.62 1157.28,-71.46 1164.27,-71.76"/>
</g>
</g>
</svg>
