<?xml version="1.0" encoding="UTF-8" standalone="no"?>
<!DOCTYPE svg PUBLIC "-//W3C//DTD SVG 1.1//EN"
 "http://www.w3.org/Graphics/SVG/1.1/DTD/svg11.dtd">
<!-- Generated by graphviz version 12.0.0 (20240704.0754)
 -->
<!-- Title: newbius Pages: 1 -->
<svg width="1579pt" height="213pt"
 viewBox="0.00 0.00 1579.00 213.00" xmlns="http://www.w3.org/2000/svg" xmlns:xlink="http://www.w3.org/1999/xlink">
<g id="graph0" class="graph" transform="scale(1 1) rotate(0) translate(4 209)">
<title>newbius</title>
<polygon fill="white" stroke="none" points="-4,4 -4,-209 1575,-209 1575,4 -4,4"/>
<g id="clust1" class="cluster">
<title>cluster_module.root</title>
<polygon fill="none" stroke="black" points="8,-8 8,-197 1563,-197 1563,-8 8,-8"/>
<text text-anchor="middle" x="785.5" y="-179.7" font-family="Times,serif" font-size="14.00">module.root</text>
</g>
<g id="clust2" class="cluster">
<title>cluster_module.root.module.shared_storage</title>
<polygon fill="none" stroke="black" points="461,-16 461,-164.5 1049,-164.5 1049,-16 461,-16"/>
<text text-anchor="middle" x="755" y="-147.2" font-family="Times,serif" font-size="14.00">module.shared_storage</text>
</g>
<!-- module.root.nebius_mk8s_v1alpha1_cluster.this -->
<g id="node1" class="node">
<title>module.root.nebius_mk8s_v1alpha1_cluster.this</title>
<path fill="none" stroke="black" d="M329.75,-132C329.75,-132 144.25,-132 144.25,-132 138.25,-132 132.25,-126 132.25,-120 132.25,-120 132.25,-108 132.25,-108 132.25,-102 138.25,-96 144.25,-96 144.25,-96 329.75,-96 329.75,-96 335.75,-96 341.75,-102 341.75,-108 341.75,-108 341.75,-120 341.75,-120 341.75,-126 335.75,-132 329.75,-132"/>
<text text-anchor="middle" x="237" y="-108.95" font-family="Times,serif" font-size="14.00">nebius_mk8s_v1alpha1_cluster.this</text>
</g>
<!-- module.root.data.nebius_iam_v1_project.this -->
<g id="node2" class="node">
<title>module.root.data.nebius_iam_v1_project.this</title>
<path fill="none" stroke="black" d="M440.5,-60C440.5,-60 271.5,-60 271.5,-60 265.5,-60 259.5,-54 259.5,-48 259.5,-48 259.5,-36 259.5,-36 259.5,-30 265.5,-24 271.5,-24 271.5,-24 440.5,-24 440.5,-24 446.5,-24 452.5,-30 452.5,-36 452.5,-36 452.5,-48 452.5,-48 452.5,-54 446.5,-60 440.5,-60"/>
<text text-anchor="middle" x="356" y="-36.95" font-family="Times,serif" font-size="14.00">data.nebius_iam_v1_project.this</text>
</g>
<!-- module.root.nebius_mk8s_v1alpha1_cluster.this&#45;&gt;module.root.data.nebius_iam_v1_project.this -->
<g id="edge1" class="edge">
<title>module.root.nebius_mk8s_v1alpha1_cluster.this&#45;&gt;module.root.data.nebius_iam_v1_project.this</title>
<path fill="none" stroke="black" d="M266.72,-95.52C281.89,-86.6 300.53,-75.63 316.85,-66.03"/>
<polygon fill="black" stroke="black" points="318.51,-69.11 325.35,-61.03 314.96,-63.08 318.51,-69.11"/>
</g>
<!-- module.root.data.nebius_vpc_v1alpha1_subnet.this -->
<g id="node3" class="node">
<title>module.root.data.nebius_vpc_v1alpha1_subnet.this</title>
<path fill="none" stroke="black" d="M229.62,-60C229.62,-60 28.37,-60 28.37,-60 22.37,-60 16.38,-54 16.38,-48 16.38,-48 16.38,-36 16.38,-36 16.38,-30 22.38,-24 28.38,-24 28.38,-24 229.62,-24 229.62,-24 235.62,-24 241.62,-30 241.62,-36 241.62,-36 241.62,-48 241.62,-48 241.62,-54 235.62,-60 229.62,-60"/>
<text text-anchor="middle" x="129" y="-36.95" font-family="Times,serif" font-size="14.00">data.nebius_vpc_v1alpha1_subnet.this</text>
</g>
<!-- module.root.nebius_mk8s_v1alpha1_cluster.this&#45;&gt;module.root.data.nebius_vpc_v1alpha1_subnet.this -->
<g id="edge2" class="edge">
<title>module.root.nebius_mk8s_v1alpha1_cluster.this&#45;&gt;module.root.data.nebius_vpc_v1alpha1_subnet.this</title>
<path fill="none" stroke="black" d="M210.03,-95.52C196.39,-86.68 179.66,-75.84 164.95,-66.3"/>
<polygon fill="black" stroke="black" points="167.2,-63.59 156.9,-61.08 163.39,-69.46 167.2,-63.59"/>
</g>
<!-- module.root.nebius_mk8s_v1alpha1_node_group.cpu -->
<g id="node4" class="node">
<title>module.root.nebius_mk8s_v1alpha1_node_group.cpu</title>
<path fill="none" stroke="black" d="M1285.38,-132C1285.38,-132 1070.62,-132 1070.62,-132 1064.62,-132 1058.62,-126 1058.62,-120 1058.62,-120 1058.62,-108 1058.62,-108 1058.62,-102 1064.62,-96 1070.62,-96 1070.62,-96 1285.38,-96 1285.38,-96 1291.38,-96 1297.38,-102 1297.38,-108 1297.38,-108 1297.38,-120 1297.38,-120 1297.38,-126 1291.38,-132 1285.38,-132"/>
<text text-anchor="middle" x="1178" y="-108.95" font-family="Times,serif" font-size="14.00">nebius_mk8s_v1alpha1_node_group.cpu</text>
</g>
<!-- module.root.module.shared_storage.output.filestore_id -->
<g id="node5" class="node">
<title>module.root.module.shared_storage.output.filestore_id</title>
<polygon fill="none" stroke="black" points="1034.88,-60 925.12,-60 925.12,-24 1040.88,-24 1040.88,-54 1034.88,-60"/>
<polyline fill="none" stroke="black" points="1034.88,-60 1034.88,-54"/>
<polyline fill="none" stroke="black" points="1040.88,-54 1034.88,-54"/>
<text text-anchor="middle" x="983" y="-36.95" font-family="Times,serif" font-size="14.00">output.filestore_id</text>
</g>
<!-- module.root.nebius_mk8s_v1alpha1_node_group.cpu&#45;&gt;module.root.module.shared_storage.output.filestore_id -->
<g id="edge3" class="edge">
<title>module.root.nebius_mk8s_v1alpha1_node_group.cpu&#45;&gt;module.root.module.shared_storage.output.filestore_id</title>
<path fill="none" stroke="black" stroke-dasharray="5,2" d="M1129.3,-95.52C1102.91,-86.04 1070.09,-74.26 1042.23,-64.26"/>
<polygon fill="black" stroke="black" points="1043.44,-60.98 1032.85,-60.89 1041.07,-67.57 1043.44,-60.98"/>
</g>
<!-- module.root.nebius_mk8s_v1alpha1_node_group.gpu -->
<g id="node6" class="node">
<title>module.root.nebius_mk8s_v1alpha1_node_group.gpu</title>
<path fill="none" stroke="black" d="M1542.75,-132C1542.75,-132 1327.25,-132 1327.25,-132 1321.25,-132 1315.25,-126 1315.25,-120 1315.25,-120 1315.25,-108 1315.25,-108 1315.25,-102 1321.25,-96 1327.25,-96 1327.25,-96 1542.75,-96 1542.75,-96 1548.75,-96 1554.75,-102 1554.75,-108 1554.75,-108 1554.75,-120 1554.75,-120 1554.75,-126 1548.75,-132 1542.75,-132"/>
<text text-anchor="middle" x="1435" y="-108.95" font-family="Times,serif" font-size="14.00">nebius_mk8s_v1alpha1_node_group.gpu</text>
</g>
<!-- module.root.nebius_mk8s_v1alpha1_node_group.gpu&#45;&gt;module.root.module.shared_storage.output.filestore_id -->
<g id="edge4" class="edge">
<title>module.root.nebius_mk8s_v1alpha1_node_group.gpu&#45;&gt;module.root.module.shared_storage.output.filestore_id</title>
<path fill="none" stroke="black" stroke-dasharray="5,2" d="M1314.93,-97.07C1218.36,-84.21 1092.79,-67.35 1052.67,-61.13"/>
<polygon fill="black" stroke="black" points="1053.3,-57.69 1042.85,-59.48 1052.14,-64.59 1053.3,-57.69"/>
</g>
<!-- module.root.nebius_compute_v1alpha1_gpu_cluster.this -->
<g id="node7" class="node">
<title>module.root.nebius_compute_v1alpha1_gpu_cluster.this</title>
<path fill="none" stroke="black" d="M1542.88,-60C1542.88,-60 1313.12,-60 1313.12,-60 1307.12,-60 1301.12,-54 1301.12,-48 1301.12,-48 1301.12,-36 1301.12,-36 1301.12,-30 1307.12,-24 1313.12,-24 1313.12,-24 1542.88,-24 1542.88,-24 1548.88,-24 1554.88,-30 1554.88,-36 1554.88,-36 1554.88,-48 1554.88,-48 1554.88,-54 1548.88,-60 1542.88,-60"/>
<text text-anchor="middle" x="1428" y="-36.95" font-family="Times,serif" font-size="14.00">nebius_compute_v1alpha1_gpu_cluster.this</text>
</g>
<!-- module.root.nebius_mk8s_v1alpha1_node_group.gpu&#45;&gt;module.root.nebius_compute_v1alpha1_gpu_cluster.this -->
<g id="edge5" class="edge">
<title>module.root.nebius_mk8s_v1alpha1_node_group.gpu&#45;&gt;module.root.nebius_compute_v1alpha1_gpu_cluster.this</title>
<path fill="none" stroke="black" d="M1433.27,-95.7C1432.54,-88.41 1431.67,-79.73 1430.85,-71.54"/>
<polygon fill="black" stroke="black" points="1434.34,-71.21 1429.86,-61.61 1427.37,-71.91 1434.34,-71.21"/>
</g>
<!-- module.root.module.shared_storage.data.nebius_compute_v1alpha1_filesystem.shared -->
<g id="node8" class="node">
<title>module.root.module.shared_storage.data.nebius_compute_v1alpha1_filesystem.shared</title>
<path fill="none" stroke="black" d="M746.88,-132C746.88,-132 481.12,-132 481.12,-132 475.12,-132 469.12,-126 469.12,-120 469.12,-120 469.12,-108 469.12,-108 469.12,-102 475.12,-96 481.12,-96 481.12,-96 746.88,-96 746.88,-96 752.88,-96 758.88,-102 758.88,-108 758.88,-108 758.88,-120 758.88,-120 758.88,-126 752.88,-132 746.88,-132"/>
<text text-anchor="middle" x="614" y="-108.95" font-family="Times,serif" font-size="14.00">data.nebius_compute_v1alpha1_filesystem.shared</text>
</g>
<!-- module.root.module.shared_storage.nebius_compute_v1alpha1_filesystem.shared -->
<g id="node9" class="node">
<title>module.root.module.shared_storage.nebius_compute_v1alpha1_filesystem.shared</title>
<path fill="none" stroke="black" d="M1028.75,-132C1028.75,-132 789.25,-132 789.25,-132 783.25,-132 777.25,-126 777.25,-120 777.25,-120 777.25,-108 777.25,-108 777.25,-102 783.25,-96 789.25,-96 789.25,-96 1028.75,-96 1028.75,-96 1034.75,-96 1040.75,-102 1040.75,-108 1040.75,-108 1040.75,-120 1040.75,-120 1040.75,-126 1034.75,-132 1028.75,-132"/>
<text text-anchor="middle" x="909" y="-108.95" font-family="Times,serif" font-size="14.00">nebius_compute_v1alpha1_filesystem.shared</text>
</g>
</g>
</svg>
