<?xml version="1.0" encoding="UTF-8" standalone="no"?>
<!DOCTYPE svg PUBLIC "-//W3C//DTD SVG 1.1//EN"
 "http://www.w3.org/Graphics/SVG/1.1/DTD/svg11.dtd">
<!-- Generated by graphviz version 12.0.0 (20240704.0754)
 -->
<!-- Title: newbius Pages: 1 -->
<svg width="1690pt" height="357pt"
 viewBox="0.00 0.00 1690.00 357.00" xmlns="http://www.w3.org/2000/svg" xmlns:xlink="http://www.w3.org/1999/xlink">
<g id="graph0" class="graph" transform="scale(1 1) rotate(0) translate(4 353)">
<title>newbius</title>
<polygon fill="white" stroke="none" points="-4,4 -4,-353 1686,-353 1686,4 -4,4"/>
<g id="clust1" class="cluster">
<title>cluster_module.root</title>
<polygon fill="none" stroke="black" points="8,-8 8,-341 1674,-341 1674,-8 8,-8"/>
<text text-anchor="middle" x="841" y="-323.7" font-family="Times,serif" font-size="14.00">module.root</text>
</g>
<g id="clust2" class="cluster">
<title>cluster_module.root.module.shared_storage</title>
<polygon fill="none" stroke="black" points="16,-16 16,-308.5 604,-308.5 604,-16 16,-16"/>
<text text-anchor="middle" x="310" y="-291.2" font-family="Times,serif" font-size="14.00">module.shared_storage</text>
</g>
<!-- module.root.helm_release.operator_gpu -->
<g id="node1" class="node">
<title>module.root.helm_release.operator_gpu</title>
<path fill="none" stroke="black" d="M993.88,-204C993.88,-204 854.12,-204 854.12,-204 848.12,-204 842.12,-198 842.12,-192 842.12,-192 842.12,-180 842.12,-180 842.12,-174 848.12,-168 854.12,-168 854.12,-168 993.88,-168 993.88,-168 999.88,-168 1005.88,-174 1005.88,-180 1005.88,-180 1005.88,-192 1005.88,-192 1005.88,-198 999.88,-204 993.88,-204"/>
<text text-anchor="middle" x="924" y="-180.95" font-family="Times,serif" font-size="14.00">helm_release.operator_gpu</text>
</g>
<!-- module.root.nebius_mk8s_v1alpha1_node_group.cpu -->
<g id="node2" class="node">
<title>module.root.nebius_mk8s_v1alpha1_node_group.cpu</title>
<path fill="none" stroke="black" d="M838.38,-132C838.38,-132 623.62,-132 623.62,-132 617.62,-132 611.62,-126 611.62,-120 611.62,-120 611.62,-108 611.62,-108 611.62,-102 617.62,-96 623.62,-96 623.62,-96 838.38,-96 838.38,-96 844.38,-96 850.38,-102 850.38,-108 850.38,-108 850.38,-120 850.38,-120 850.38,-126 844.38,-132 838.38,-132"/>
<text text-anchor="middle" x="731" y="-108.95" font-family="Times,serif" font-size="14.00">nebius_mk8s_v1alpha1_node_group.cpu</text>
</g>
<!-- module.root.helm_release.operator_gpu&#45;&gt;module.root.nebius_mk8s_v1alpha1_node_group.cpu -->
<g id="edge1" class="edge">
<title>module.root.helm_release.operator_gpu&#45;&gt;module.root.nebius_mk8s_v1alpha1_node_group.cpu</title>
<path fill="none" stroke="black" d="M875.8,-167.52C849.68,-158.04 817.19,-146.26 789.62,-136.26"/>
<polygon fill="black" stroke="black" points="790.94,-133.02 780.35,-132.9 788.55,-139.6 790.94,-133.02"/>
</g>
<!-- module.root.nebius_mk8s_v1alpha1_node_group.gpu -->
<g id="node3" class="node">
<title>module.root.nebius_mk8s_v1alpha1_node_group.gpu</title>
<path fill="none" stroke="black" d="M1095.75,-132C1095.75,-132 880.25,-132 880.25,-132 874.25,-132 868.25,-126 868.25,-120 868.25,-120 868.25,-108 868.25,-108 868.25,-102 874.25,-96 880.25,-96 880.25,-96 1095.75,-96 1095.75,-96 1101.75,-96 1107.75,-102 1107.75,-108 1107.75,-108 1107.75,-120 1107.75,-120 1107.75,-126 1101.75,-132 1095.75,-132"/>
<text text-anchor="middle" x="988" y="-108.95" font-family="Times,serif" font-size="14.00">nebius_mk8s_v1alpha1_node_group.gpu</text>
</g>
<!-- module.root.helm_release.operator_gpu&#45;&gt;module.root.nebius_mk8s_v1alpha1_node_group.gpu -->
<g id="edge2" class="edge">
<title>module.root.helm_release.operator_gpu&#45;&gt;module.root.nebius_mk8s_v1alpha1_node_group.gpu</title>
<path fill="none" stroke="black" d="M939.82,-167.7C947.34,-159.47 956.47,-149.48 964.76,-140.42"/>
<polygon fill="black" stroke="black" points="967.18,-142.96 971.34,-133.22 962.01,-138.24 967.18,-142.96"/>
</g>
<!-- module.root.module.shared_storage.output.filestore_id -->
<g id="node10" class="node">
<title>module.root.module.shared_storage.output.filestore_id</title>
<polygon fill="none" stroke="black" points="589.88,-60 480.12,-60 480.12,-24 595.88,-24 595.88,-54 589.88,-60"/>
<polyline fill="none" stroke="black" points="589.88,-60 589.88,-54"/>
<polyline fill="none" stroke="black" points="595.88,-54 589.88,-54"/>
<text text-anchor="middle" x="538" y="-36.95" font-family="Times,serif" font-size="14.00">output.filestore_id</text>
</g>
<!-- module.root.nebius_mk8s_v1alpha1_node_group.cpu&#45;&gt;module.root.module.shared_storage.output.filestore_id -->
<g id="edge12" class="edge">
<title>module.root.nebius_mk8s_v1alpha1_node_group.cpu&#45;&gt;module.root.module.shared_storage.output.filestore_id</title>
<path fill="none" stroke="black" stroke-dasharray="5,2" d="M682.8,-95.52C656.68,-86.04 624.19,-74.26 596.62,-64.26"/>
<polygon fill="black" stroke="black" points="597.94,-61.02 587.35,-60.9 595.55,-67.6 597.94,-61.02"/>
</g>
<!-- module.root.nebius_mk8s_v1alpha1_node_group.gpu&#45;&gt;module.root.module.shared_storage.output.filestore_id -->
<g id="edge13" class="edge">
<title>module.root.nebius_mk8s_v1alpha1_node_group.gpu&#45;&gt;module.root.module.shared_storage.output.filestore_id</title>
<path fill="none" stroke="black" stroke-dasharray="5,2" d="M867.9,-96.53C866.59,-96.35 865.29,-96.18 864,-96 750.34,-80.46 718.02,-83.49 607.32,-61.45"/>
<polygon fill="black" stroke="black" points="608.34,-58.08 597.84,-59.53 606.95,-64.94 608.34,-58.08"/>
</g>
<!-- module.root.nebius_compute_v1alpha1_gpu_cluster.this -->
<g id="node11" class="node">
<title>module.root.nebius_compute_v1alpha1_gpu_cluster.this</title>
<path fill="none" stroke="black" d="M1102.88,-60C1102.88,-60 873.12,-60 873.12,-60 867.12,-60 861.12,-54 861.12,-48 861.12,-48 861.12,-36 861.12,-36 861.12,-30 867.12,-24 873.12,-24 873.12,-24 1102.88,-24 1102.88,-24 1108.88,-24 1114.88,-30 1114.88,-36 1114.88,-36 1114.88,-48 1114.88,-48 1114.88,-54 1108.88,-60 1102.88,-60"/>
<text text-anchor="middle" x="988" y="-36.95" font-family="Times,serif" font-size="14.00">nebius_compute_v1alpha1_gpu_cluster.this</text>
</g>
<!-- module.root.nebius_mk8s_v1alpha1_node_group.gpu&#45;&gt;module.root.nebius_compute_v1alpha1_gpu_cluster.this -->
<g id="edge14" class="edge">
<title>module.root.nebius_mk8s_v1alpha1_node_group.gpu&#45;&gt;module.root.nebius_compute_v1alpha1_gpu_cluster.this</title>
<path fill="none" stroke="black" d="M988,-95.7C988,-88.41 988,-79.73 988,-71.54"/>
<polygon fill="black" stroke="black" points="991.5,-71.62 988,-61.62 984.5,-71.62 991.5,-71.62"/>
</g>
<!-- module.root.helm_release.operator_network -->
<g id="node4" class="node">
<title>module.root.helm_release.operator_network</title>
<path fill="none" stroke="black" d="M1199.88,-204C1199.88,-204 1036.12,-204 1036.12,-204 1030.12,-204 1024.12,-198 1024.12,-192 1024.12,-192 1024.12,-180 1024.12,-180 1024.12,-174 1030.12,-168 1036.12,-168 1036.12,-168 1199.88,-168 1199.88,-168 1205.88,-168 1211.88,-174 1211.88,-180 1211.88,-180 1211.88,-192 1211.88,-192 1211.88,-198 1205.88,-204 1199.88,-204"/>
<text text-anchor="middle" x="1118" y="-180.95" font-family="Times,serif" font-size="14.00">helm_release.operator_network</text>
</g>
<!-- module.root.helm_release.operator_network&#45;&gt;module.root.nebius_mk8s_v1alpha1_node_group.cpu -->
<g id="edge3" class="edge">
<title>module.root.helm_release.operator_network&#45;&gt;module.root.nebius_mk8s_v1alpha1_node_group.cpu</title>
<path fill="none" stroke="black" d="M1023.82,-167.97C967.91,-157.85 896.82,-144.99 838.69,-134.48"/>
<polygon fill="black" stroke="black" points="839.57,-131.08 829.11,-132.75 838.33,-137.97 839.57,-131.08"/>
</g>
<!-- module.root.helm_release.operator_network&#45;&gt;module.root.nebius_mk8s_v1alpha1_node_group.gpu -->
<g id="edge4" class="edge">
<title>module.root.helm_release.operator_network&#45;&gt;module.root.nebius_mk8s_v1alpha1_node_group.gpu</title>
<path fill="none" stroke="black" d="M1085.53,-167.52C1068.73,-158.47 1048.02,-147.32 1030.02,-137.62"/>
<polygon fill="black" stroke="black" points="1031.85,-134.64 1021.39,-132.98 1028.53,-140.8 1031.85,-134.64"/>
</g>
<!-- module.root.helm_release.slurm_cluster_storage -->
<g id="node5" class="node">
<title>module.root.helm_release.slurm_cluster_storage</title>
<path fill="none" stroke="black" d="M811.88,-204C811.88,-204 624.12,-204 624.12,-204 618.12,-204 612.12,-198 612.12,-192 612.12,-192 612.12,-180 612.12,-180 612.12,-174 618.12,-168 624.12,-168 624.12,-168 811.88,-168 811.88,-168 817.88,-168 823.88,-174 823.88,-180 823.88,-180 823.88,-192 823.88,-192 823.88,-198 817.88,-204 811.88,-204"/>
<text text-anchor="middle" x="718" y="-180.95" font-family="Times,serif" font-size="14.00">helm_release.slurm_cluster_storage</text>
</g>
<!-- module.root.helm_release.slurm_cluster_storage&#45;&gt;module.root.nebius_mk8s_v1alpha1_node_group.cpu -->
<g id="edge5" class="edge">
<title>module.root.helm_release.slurm_cluster_storage&#45;&gt;module.root.nebius_mk8s_v1alpha1_node_group.cpu</title>
<path fill="none" stroke="black" d="M721.21,-167.7C722.58,-160.32 724.22,-151.52 725.75,-143.25"/>
<polygon fill="black" stroke="black" points="729.16,-144.06 727.55,-133.59 722.28,-142.79 729.16,-144.06"/>
</g>
<!-- module.root.helm_release.slurm_cluster_storage&#45;&gt;module.root.nebius_mk8s_v1alpha1_node_group.gpu -->
<g id="edge6" class="edge">
<title>module.root.helm_release.slurm_cluster_storage&#45;&gt;module.root.nebius_mk8s_v1alpha1_node_group.gpu</title>
<path fill="none" stroke="black" d="M785.44,-167.52C823.27,-157.71 870.64,-145.43 910.06,-135.21"/>
<polygon fill="black" stroke="black" points="910.69,-138.66 919.49,-132.76 908.93,-131.88 910.69,-138.66"/>
</g>
<!-- module.root.helm_release.slurm_operator -->
<g id="node6" class="node">
<title>module.root.helm_release.slurm_operator</title>
<path fill="none" stroke="black" d="M999.5,-276C999.5,-276 848.5,-276 848.5,-276 842.5,-276 836.5,-270 836.5,-264 836.5,-264 836.5,-252 836.5,-252 836.5,-246 842.5,-240 848.5,-240 848.5,-240 999.5,-240 999.5,-240 1005.5,-240 1011.5,-246 1011.5,-252 1011.5,-252 1011.5,-264 1011.5,-264 1011.5,-270 1005.5,-276 999.5,-276"/>
<text text-anchor="middle" x="924" y="-252.95" font-family="Times,serif" font-size="14.00">helm_release.slurm_operator</text>
</g>
<!-- module.root.helm_release.slurm_operator&#45;&gt;module.root.helm_release.operator_gpu -->
<g id="edge7" class="edge">
<title>module.root.helm_release.slurm_operator&#45;&gt;module.root.helm_release.operator_gpu</title>
<path fill="none" stroke="black" d="M924,-239.7C924,-232.41 924,-223.73 924,-215.54"/>
<polygon fill="black" stroke="black" points="927.5,-215.62 924,-205.62 920.5,-215.62 927.5,-215.62"/>
</g>
<!-- module.root.helm_release.slurm_operator&#45;&gt;module.root.helm_release.operator_network -->
<g id="edge8" class="edge">
<title>module.root.helm_release.slurm_operator&#45;&gt;module.root.helm_release.operator_network</title>
<path fill="none" stroke="black" d="M972.45,-239.52C998.71,-230.04 1031.36,-218.26 1059.08,-208.26"/>
<polygon fill="black" stroke="black" points="1060.19,-211.58 1068.4,-204.9 1057.81,-205 1060.19,-211.58"/>
</g>
<!-- module.root.helm_release.slurm_operator&#45;&gt;module.root.helm_release.slurm_cluster_storage -->
<g id="edge9" class="edge">
<title>module.root.helm_release.slurm_operator&#45;&gt;module.root.helm_release.slurm_cluster_storage</title>
<path fill="none" stroke="black" d="M872.55,-239.52C844.42,-229.96 809.39,-218.05 779.79,-208"/>
<polygon fill="black" stroke="black" points="781.18,-204.77 770.58,-204.87 778.93,-211.4 781.18,-204.77"/>
</g>
<!-- module.root.nebius_mk8s_v1alpha1_cluster.this -->
<g id="node7" class="node">
<title>module.root.nebius_mk8s_v1alpha1_cluster.this</title>
<path fill="none" stroke="black" d="M1531.75,-276C1531.75,-276 1346.25,-276 1346.25,-276 1340.25,-276 1334.25,-270 1334.25,-264 1334.25,-264 1334.25,-252 1334.25,-252 1334.25,-246 1340.25,-240 1346.25,-240 1346.25,-240 1531.75,-240 1531.75,-240 1537.75,-240 1543.75,-246 1543.75,-252 1543.75,-252 1543.75,-264 1543.75,-264 1543.75,-270 1537.75,-276 1531.75,-276"/>
<text text-anchor="middle" x="1439" y="-252.95" font-family="Times,serif" font-size="14.00">nebius_mk8s_v1alpha1_cluster.this</text>
</g>
<!-- module.root.data.nebius_iam_v1_project.this -->
<g id="node8" class="node">
<title>module.root.data.nebius_iam_v1_project.this</title>
<path fill="none" stroke="black" d="M1410.5,-204C1410.5,-204 1241.5,-204 1241.5,-204 1235.5,-204 1229.5,-198 1229.5,-192 1229.5,-192 1229.5,-180 1229.5,-180 1229.5,-174 1235.5,-168 1241.5,-168 1241.5,-168 1410.5,-168 1410.5,-168 1416.5,-168 1422.5,-174 1422.5,-180 1422.5,-180 1422.5,-192 1422.5,-192 1422.5,-198 1416.5,-204 1410.5,-204"/>
<text text-anchor="middle" x="1326" y="-180.95" font-family="Times,serif" font-size="14.00">data.nebius_iam_v1_project.this</text>
</g>
<!-- module.root.nebius_mk8s_v1alpha1_cluster.this&#45;&gt;module.root.data.nebius_iam_v1_project.this -->
<g id="edge10" class="edge">
<title>module.root.nebius_mk8s_v1alpha1_cluster.this&#45;&gt;module.root.data.nebius_iam_v1_project.this</title>
<path fill="none" stroke="black" d="M1410.78,-239.52C1396.51,-230.68 1379.01,-219.84 1363.62,-210.3"/>
<polygon fill="black" stroke="black" points="1365.49,-207.35 1355.15,-205.06 1361.81,-213.3 1365.49,-207.35"/>
</g>
<!-- module.root.data.nebius_vpc_v1alpha1_subnet.this -->
<g id="node9" class="node">
<title>module.root.data.nebius_vpc_v1alpha1_subnet.this</title>
<path fill="none" stroke="black" d="M1653.62,-204C1653.62,-204 1452.38,-204 1452.38,-204 1446.38,-204 1440.38,-198 1440.38,-192 1440.38,-192 1440.38,-180 1440.38,-180 1440.38,-174 1446.38,-168 1452.38,-168 1452.38,-168 1653.62,-168 1653.62,-168 1659.62,-168 1665.62,-174 1665.62,-180 1665.62,-180 1665.62,-192 1665.62,-192 1665.62,-198 1659.62,-204 1653.62,-204"/>
<text text-anchor="middle" x="1553" y="-180.95" font-family="Times,serif" font-size="14.00">data.nebius_vpc_v1alpha1_subnet.this</text>
</g>
<!-- module.root.nebius_mk8s_v1alpha1_cluster.this&#45;&gt;module.root.data.nebius_vpc_v1alpha1_subnet.this -->
<g id="edge11" class="edge">
<title>module.root.nebius_mk8s_v1alpha1_cluster.this&#45;&gt;module.root.data.nebius_vpc_v1alpha1_subnet.this</title>
<path fill="none" stroke="black" d="M1467.47,-239.52C1482,-230.6 1499.86,-219.63 1515.49,-210.03"/>
<polygon fill="black" stroke="black" points="1516.91,-213.27 1523.6,-205.05 1513.25,-207.3 1516.91,-213.27"/>
</g>
<!-- module.root.module.shared_storage.data.nebius_compute_v1alpha1_filesystem.shared -->
<g id="node12" class="node">
<title>module.root.module.shared_storage.data.nebius_compute_v1alpha1_filesystem.shared</title>
<path fill="none" stroke="black" d="M301.88,-276C301.88,-276 36.12,-276 36.12,-276 30.12,-276 24.12,-270 24.12,-264 24.12,-264 24.12,-252 24.12,-252 24.12,-246 30.12,-240 36.12,-240 36.12,-240 301.88,-240 301.88,-240 307.88,-240 313.88,-246 313.88,-252 313.88,-252 313.88,-264 313.88,-264 313.88,-270 307.88,-276 301.88,-276"/>
<text text-anchor="middle" x="169" y="-252.95" font-family="Times,serif" font-size="14.00">data.nebius_compute_v1alpha1_filesystem.shared</text>
</g>
<!-- module.root.module.shared_storage.nebius_compute_v1alpha1_filesystem.shared -->
<g id="node13" class="node">
<title>module.root.module.shared_storage.nebius_compute_v1alpha1_filesystem.shared</title>
<path fill="none" stroke="black" d="M583.75,-276C583.75,-276 344.25,-276 344.25,-276 338.25,-276 332.25,-270 332.25,-264 332.25,-264 332.25,-252 332.25,-252 332.25,-246 338.25,-240 344.25,-240 344.25,-240 583.75,-240 583.75,-240 589.75,-240 595.75,-246 595.75,-252 595.75,-252 595.75,-264 595.75,-264 595.75,-270 589.75,-276 583.75,-276"/>
<text text-anchor="middle" x="464" y="-252.95" font-family="Times,serif" font-size="14.00">nebius_compute_v1alpha1_filesystem.shared</text>
</g>
</g>
</svg>
